<mxfile host="app.diagrams.net" agent="Mozilla/5.0 (Windows NT 10.0; Win64; x64) AppleWebKit/537.36 (KHTML, like Gecko) Chrome/135.0.0.0 Safari/537.36" version="26.2.14" pages="7">
  <diagram name="Page-1" id="UPbVl_5Ez3u3kQggWeEI">
    <mxGraphModel dx="3329" dy="2707" grid="1" gridSize="10" guides="1" tooltips="1" connect="1" arrows="1" fold="1" page="1" pageScale="1" pageWidth="827" pageHeight="1169" math="0" shadow="0">
      <root>
        <mxCell id="0" />
        <mxCell id="1" parent="0" />
        <UserObject label="" plantUmlData="{&#xa;  &quot;data&quot;: &quot;@startuml\nstart\n\n:Check Redis for \&quot;network_info\&quot; cache;\nif (Cache found?) then (Yes)\n    :Load cached network info;\nelse (No)\n    :Scan network (optional);\nendif\n\nif (Is user authenticated?) then (Yes)\n    :Set user role in session;\n    :Log successful login;\n    :Redirect to home;\n    stop\nelse (No)\n    :Get username from POST data;\n    if (Is login blocked?) then (Yes)\n        :Log blocked login attempt;\n        :Show error message;\n        :Redirect to login page;\n        stop\n    else (No)\n        if (Is POST request?) then (Yes)\n            :Get username and password;\n            :Authenticate user;\n            if (Authentication successful?) then (Yes)\n                if (Is email verified?) then (Yes)\n                    :Login user;\n                    :Log successful login;\n                    :Redirect to home;\n                    stop\n                else (No)\n                    :Login user;\n                    :Log login (email not verified);\n                    :Redirect to home;\n                    stop\n                endif\n            else (No)\n                :Increment failed login attempts in Redis;\n                :Log failed login attempt;\n                if (Failed attempts &gt;= 5?) then (Yes)\n                    :Block login for 10 mins;\n                    :Log blocking event;\n                    :Show blocked error message;\n                    :Redirect to login;\n                    stop\n                else (No)\n                    :Show invalid credentials error;\n                endif\n            endif\n        else (No)\n            :Render login page;\n        endif\n    endif\nendif\n\n@enduml\n&quot;,&#xa;  &quot;format&quot;: &quot;svg&quot;&#xa;}" id="3_kZbPJBiV-xOVIHeNI_-1">
          <mxCell style="shape=image;noLabel=1;verticalAlign=top;aspect=fixed;imageAspect=0;image=data:image/svg+xml,PHN2ZyB4bWxucz0iaHR0cDovL3d3dy53My5vcmcvMjAwMC9zdmciIHhtbG5zOnhsaW5rPSJodHRwOi8vd3d3LnczLm9yZy8xOTk5L3hsaW5rIiBjb250ZW50U3R5bGVUeXBlPSJ0ZXh0L2NzcyIgZGF0YS1kaWFncmFtLXR5cGU9IkFDVElWSVRZIiBoZWlnaHQ9IjEwMDVweCIgcHJlc2VydmVBc3BlY3RSYXRpbz0ibm9uZSIgc3R5bGU9IndpZHRoOjEzNDRweDtoZWlnaHQ6MTAwNXB4O2JhY2tncm91bmQ6I0ZGRkZGRjsiIHZlcnNpb249IjEuMSIgdmlld0JveD0iMCAwIDEzNDQgMTAwNSIgd2lkdGg9IjEzNDRweCIgem9vbUFuZFBhbj0ibWFnbmlmeSI+PGRlZnMvPjxnPjxlbGxpcHNlIGN4PSIzNjQuNjg3NSIgY3k9IjIwIiBmaWxsPSIjMjIyMjIyIiByeD0iMTAiIHJ5PSIxMCIgc3R5bGU9InN0cm9rZTojMjIyMjIyO3N0cm9rZS13aWR0aDoxOyIvPjxyZWN0IGZpbGw9IiNGMUYxRjEiIGhlaWdodD0iMzIuODQzOCIgcng9IjEyLjUiIHJ5PSIxMi41IiBzdHlsZT0ic3Ryb2tlOiMxODE4MTg7c3Ryb2tlLXdpZHRoOjAuNTsiIHdpZHRoPSIyMzYiIHg9IjI0Ni42ODc1IiB5PSI1MCIvPjx0ZXh0IGZpbGw9IiMwMDAwMDAiIGZvbnQtZmFtaWx5PSJzYW5zLXNlcmlmIiBmb250LXNpemU9IjEyIiBsZW5ndGhBZGp1c3Q9InNwYWNpbmciIHRleHRMZW5ndGg9IjIxNiIgeD0iMjU2LjY4NzUiIHk9IjcxLjM0MzgiPkNoZWNrIFJlZGlzIGZvciAibmV0d29ya19pbmZvIiBjYWNoZTwvdGV4dD48cG9seWdvbiBmaWxsPSIjRjFGMUYxIiBwb2ludHM9IjMzMS42ODc1LDEwMi44NDM4LDM5Ny42ODc1LDEwMi44NDM4LDQwOS42ODc1LDExNC44NDM4LDM5Ny42ODc1LDEyNi44NDM4LDMzMS42ODc1LDEyNi44NDM4LDMxOS42ODc1LDExNC44NDM4LDMzMS42ODc1LDEwMi44NDM4IiBzdHlsZT0ic3Ryb2tlOiMxODE4MTg7c3Ryb2tlLXdpZHRoOjAuNTsiLz48dGV4dCBmaWxsPSIjMDAwMDAwIiBmb250LWZhbWlseT0ic2Fucy1zZXJpZiIgZm9udC1zaXplPSIxMSIgbGVuZ3RoQWRqdXN0PSJzcGFjaW5nIiB0ZXh0TGVuZ3RoPSI2NiIgeD0iMzMxLjY4NzUiIHk9IjExOS4zNTU1Ij5DYWNoZSBmb3VuZD88L3RleHQ+PHRleHQgZmlsbD0iIzAwMDAwMCIgZm9udC1mYW1pbHk9InNhbnMtc2VyaWYiIGZvbnQtc2l6ZT0iMTEiIGxlbmd0aEFkanVzdD0ic3BhY2luZyIgdGV4dExlbmd0aD0iMTYuNSIgeD0iMzAzLjE4NzUiIHk9IjExMy40Njg4Ij5ZZXM8L3RleHQ+PHRleHQgZmlsbD0iIzAwMDAwMCIgZm9udC1mYW1pbHk9InNhbnMtc2VyaWYiIGZvbnQtc2l6ZT0iMTEiIGxlbmd0aEFkanVzdD0ic3BhY2luZyIgdGV4dExlbmd0aD0iMTEiIHg9IjQwOS42ODc1IiB5PSIxMTMuNDY4OCI+Tm88L3RleHQ+PHJlY3QgZmlsbD0iI0YxRjFGMSIgaGVpZ2h0PSIzMi44NDM4IiByeD0iMTIuNSIgcnk9IjEyLjUiIHN0eWxlPSJzdHJva2U6IzE4MTgxODtzdHJva2Utd2lkdGg6MC41OyIgd2lkdGg9IjE2NCIgeD0iMTkyLjE4NzUiIHk9IjEzNi44NDM4Ii8+PHRleHQgZmlsbD0iIzAwMDAwMCIgZm9udC1mYW1pbHk9InNhbnMtc2VyaWYiIGZvbnQtc2l6ZT0iMTIiIGxlbmd0aEFkanVzdD0ic3BhY2luZyIgdGV4dExlbmd0aD0iMTQ0IiB4PSIyMDIuMTg3NSIgeT0iMTU4LjE4NzUiPkxvYWQgY2FjaGVkIG5ldHdvcmsgaW5mbzwvdGV4dD48cmVjdCBmaWxsPSIjRjFGMUYxIiBoZWlnaHQ9IjMyLjg0MzgiIHJ4PSIxMi41IiByeT0iMTIuNSIgc3R5bGU9InN0cm9rZTojMTgxODE4O3N0cm9rZS13aWR0aDowLjU7IiB3aWR0aD0iMTU4IiB4PSIzNzYuMTg3NSIgeT0iMTM2Ljg0MzgiLz48dGV4dCBmaWxsPSIjMDAwMDAwIiBmb250LWZhbWlseT0ic2Fucy1zZXJpZiIgZm9udC1zaXplPSIxMiIgbGVuZ3RoQWRqdXN0PSJzcGFjaW5nIiB0ZXh0TGVuZ3RoPSIxMzgiIHg9IjM4Ni4xODc1IiB5PSIxNTguMTg3NSI+U2NhbiBuZXR3b3JrIChvcHRpb25hbCk8L3RleHQ+PHBvbHlnb24gZmlsbD0iI0YxRjFGMSIgcG9pbnRzPSIzNjQuNjg3NSwxNzUuNjg3NSwzNzYuNjg3NSwxODcuNjg3NSwzNjQuNjg3NSwxOTkuNjg3NSwzNTIuNjg3NSwxODcuNjg3NSwzNjQuNjg3NSwxNzUuNjg3NSIgc3R5bGU9InN0cm9rZTojMTgxODE4O3N0cm9rZS13aWR0aDowLjU7Ii8+PHBvbHlnb24gZmlsbD0iI0YxRjFGMSIgcG9pbnRzPSIzMDQuMTg3NSwyMTkuNjg3NSw0MjUuMTg3NSwyMTkuNjg3NSw0MzcuMTg3NSwyMzEuNjg3NSw0MjUuMTg3NSwyNDMuNjg3NSwzMDQuMTg3NSwyNDMuNjg3NSwyOTIuMTg3NSwyMzEuNjg3NSwzMDQuMTg3NSwyMTkuNjg3NSIgc3R5bGU9InN0cm9rZTojMTgxODE4O3N0cm9rZS13aWR0aDowLjU7Ii8+PHRleHQgZmlsbD0iIzAwMDAwMCIgZm9udC1mYW1pbHk9InNhbnMtc2VyaWYiIGZvbnQtc2l6ZT0iMTEiIGxlbmd0aEFkanVzdD0ic3BhY2luZyIgdGV4dExlbmd0aD0iMTIxIiB4PSIzMDQuMTg3NSIgeT0iMjM2LjE5OTIiPklzIHVzZXIgYXV0aGVudGljYXRlZD88L3RleHQ+PHRleHQgZmlsbD0iIzAwMDAwMCIgZm9udC1mYW1pbHk9InNhbnMtc2VyaWYiIGZvbnQtc2l6ZT0iMTEiIGxlbmd0aEFkanVzdD0ic3BhY2luZyIgdGV4dExlbmd0aD0iMTYuNSIgeD0iMjc1LjY4NzUiIHk9IjIzMC4zMTI1Ij5ZZXM8L3RleHQ+PHRleHQgZmlsbD0iIzAwMDAwMCIgZm9udC1mYW1pbHk9InNhbnMtc2VyaWYiIGZvbnQtc2l6ZT0iMTEiIGxlbmd0aEFkanVzdD0ic3BhY2luZyIgdGV4dExlbmd0aD0iMTEiIHg9IjQzNy4xODc1IiB5PSIyMzAuMzEyNSI+Tm88L3RleHQ+PHJlY3QgZmlsbD0iI0YxRjFGMSIgaGVpZ2h0PSIzMi44NDM4IiByeD0iMTIuNSIgcnk9IjEyLjUiIHN0eWxlPSJzdHJva2U6IzE4MTgxODtzdHJva2Utd2lkdGg6MC41OyIgd2lkdGg9IjE2NCIgeD0iMTEiIHk9IjI1My42ODc1Ii8+PHRleHQgZmlsbD0iIzAwMDAwMCIgZm9udC1mYW1pbHk9InNhbnMtc2VyaWYiIGZvbnQtc2l6ZT0iMTIiIGxlbmd0aEFkanVzdD0ic3BhY2luZyIgdGV4dExlbmd0aD0iMTQ0IiB4PSIyMSIgeT0iMjc1LjAzMTMiPlNldCB1c2VyIHJvbGUgaW4gc2Vzc2lvbjwvdGV4dD48cmVjdCBmaWxsPSIjRjFGMUYxIiBoZWlnaHQ9IjMyLjg0MzgiIHJ4PSIxMi41IiByeT0iMTIuNSIgc3R5bGU9InN0cm9rZTojMTgxODE4O3N0cm9rZS13aWR0aDowLjU7IiB3aWR0aD0iMTQwIiB4PSIyMyIgeT0iMzA2LjUzMTMiLz48dGV4dCBmaWxsPSIjMDAwMDAwIiBmb250LWZhbWlseT0ic2Fucy1zZXJpZiIgZm9udC1zaXplPSIxMiIgbGVuZ3RoQWRqdXN0PSJzcGFjaW5nIiB0ZXh0TGVuZ3RoPSIxMjAiIHg9IjMzIiB5PSIzMjcuODc1Ij5Mb2cgc3VjY2Vzc2Z1bCBsb2dpbjwvdGV4dD48cmVjdCBmaWxsPSIjRjFGMUYxIiBoZWlnaHQ9IjMyLjg0MzgiIHJ4PSIxMi41IiByeT0iMTIuNSIgc3R5bGU9InN0cm9rZTojMTgxODE4O3N0cm9rZS13aWR0aDowLjU7IiB3aWR0aD0iMTE2IiB4PSIzNSIgeT0iMzc0LjM3NSIvPjx0ZXh0IGZpbGw9IiMwMDAwMDAiIGZvbnQtZmFtaWx5PSJzYW5zLXNlcmlmIiBmb250LXNpemU9IjEyIiBsZW5ndGhBZGp1c3Q9InNwYWNpbmciIHRleHRMZW5ndGg9Ijk2IiB4PSI0NSIgeT0iMzk1LjcxODgiPlJlZGlyZWN0IHRvIGhvbWU8L3RleHQ+PGVsbGlwc2UgY3g9IjkzIiBjeT0iNDUzLjIxODgiIGZpbGw9Im5vbmUiIHJ4PSIxMSIgcnk9IjExIiBzdHlsZT0ic3Ryb2tlOiMyMjIyMjI7c3Ryb2tlLXdpZHRoOjE7Ii8+PGVsbGlwc2UgY3g9IjkzIiBjeT0iNDUzLjIxODgiIGZpbGw9IiMyMjIyMjIiIHJ4PSI2IiByeT0iNiIgc3R5bGU9InN0cm9rZTojMjIyMjIyO3N0cm9rZS13aWR0aDoxOyIvPjxyZWN0IGZpbGw9IiNGMUYxRjEiIGhlaWdodD0iMzIuODQzOCIgcng9IjEyLjUiIHJ5PSIxMi41IiBzdHlsZT0ic3Ryb2tlOiMxODE4MTg7c3Ryb2tlLXdpZHRoOjAuNTsiIHdpZHRoPSIxODIiIHg9IjU2NS4zNzUiIHk9IjI1My42ODc1Ii8+PHRleHQgZmlsbD0iIzAwMDAwMCIgZm9udC1mYW1pbHk9InNhbnMtc2VyaWYiIGZvbnQtc2l6ZT0iMTIiIGxlbmd0aEFkanVzdD0ic3BhY2luZyIgdGV4dExlbmd0aD0iMTYyIiB4PSI1NzUuMzc1IiB5PSIyNzUuMDMxMyI+R2V0IHVzZXJuYW1lIGZyb20gUE9TVCBkYXRhPC90ZXh0Pjxwb2x5Z29uIGZpbGw9IiNGMUYxRjEiIHBvaW50cz0iNjA5LjYyNSwzMDYuNTMxMyw3MDMuMTI1LDMwNi41MzEzLDcxNS4xMjUsMzE4LjUzMTMsNzAzLjEyNSwzMzAuNTMxMyw2MDkuNjI1LDMzMC41MzEzLDU5Ny42MjUsMzE4LjUzMTMsNjA5LjYyNSwzMDYuNTMxMyIgc3R5bGU9InN0cm9rZTojMTgxODE4O3N0cm9rZS13aWR0aDowLjU7Ii8+PHRleHQgZmlsbD0iIzAwMDAwMCIgZm9udC1mYW1pbHk9InNhbnMtc2VyaWYiIGZvbnQtc2l6ZT0iMTEiIGxlbmd0aEFkanVzdD0ic3BhY2luZyIgdGV4dExlbmd0aD0iOTMuNSIgeD0iNjA5LjYyNSIgeT0iMzIzLjA0MyI+SXMgbG9naW4gYmxvY2tlZD88L3RleHQ+PHRleHQgZmlsbD0iIzAwMDAwMCIgZm9udC1mYW1pbHk9InNhbnMtc2VyaWYiIGZvbnQtc2l6ZT0iMTEiIGxlbmd0aEFkanVzdD0ic3BhY2luZyIgdGV4dExlbmd0aD0iMTYuNSIgeD0iNTgxLjEyNSIgeT0iMzE3LjE1NjMiPlllczwvdGV4dD48dGV4dCBmaWxsPSIjMDAwMDAwIiBmb250LWZhbWlseT0ic2Fucy1zZXJpZiIgZm9udC1zaXplPSIxMSIgbGVuZ3RoQWRqdXN0PSJzcGFjaW5nIiB0ZXh0TGVuZ3RoPSIxMSIgeD0iNzE1LjEyNSIgeT0iMzE3LjE1NjMiPk5vPC90ZXh0PjxyZWN0IGZpbGw9IiNGMUYxRjEiIGhlaWdodD0iMzIuODQzOCIgcng9IjEyLjUiIHJ5PSIxMi41IiBzdHlsZT0ic3Ryb2tlOiMxODE4MTg7c3Ryb2tlLXdpZHRoOjAuNTsiIHdpZHRoPSIxNzAiIHg9IjE4NSIgeT0iMzQwLjUzMTMiLz48dGV4dCBmaWxsPSIjMDAwMDAwIiBmb250LWZhbWlseT0ic2Fucy1zZXJpZiIgZm9udC1zaXplPSIxMiIgbGVuZ3RoQWRqdXN0PSJzcGFjaW5nIiB0ZXh0TGVuZ3RoPSIxNTAiIHg9IjE5NSIgeT0iMzYxLjg3NSI+TG9nIGJsb2NrZWQgbG9naW4gYXR0ZW1wdDwvdGV4dD48cmVjdCBmaWxsPSIjRjFGMUYxIiBoZWlnaHQ9IjMyLjg0MzgiIHJ4PSIxMi41IiByeT0iMTIuNSIgc3R5bGU9InN0cm9rZTojMTgxODE4O3N0cm9rZS13aWR0aDowLjU7IiB3aWR0aD0iMTI4IiB4PSIyMDYiIHk9IjQwOC4zNzUiLz48dGV4dCBmaWxsPSIjMDAwMDAwIiBmb250LWZhbWlseT0ic2Fucy1zZXJpZiIgZm9udC1zaXplPSIxMiIgbGVuZ3RoQWRqdXN0PSJzcGFjaW5nIiB0ZXh0TGVuZ3RoPSIxMDgiIHg9IjIxNiIgeT0iNDI5LjcxODgiPlNob3cgZXJyb3IgbWVzc2FnZTwvdGV4dD48cmVjdCBmaWxsPSIjRjFGMUYxIiBoZWlnaHQ9IjMyLjg0MzgiIHJ4PSIxMi41IiByeT0iMTIuNSIgc3R5bGU9InN0cm9rZTojMTgxODE4O3N0cm9rZS13aWR0aDowLjU7IiB3aWR0aD0iMTUyIiB4PSIxOTQiIHk9IjQ3Ni4yMTg4Ii8+PHRleHQgZmlsbD0iIzAwMDAwMCIgZm9udC1mYW1pbHk9InNhbnMtc2VyaWYiIGZvbnQtc2l6ZT0iMTIiIGxlbmd0aEFkanVzdD0ic3BhY2luZyIgdGV4dExlbmd0aD0iMTMyIiB4PSIyMDQiIHk9IjQ5Ny41NjI1Ij5SZWRpcmVjdCB0byBsb2dpbiBwYWdlPC90ZXh0PjxlbGxpcHNlIGN4PSIyNzAiIGN5PSI1NTUuMDYyNSIgZmlsbD0ibm9uZSIgcng9IjExIiByeT0iMTEiIHN0eWxlPSJzdHJva2U6IzIyMjIyMjtzdHJva2Utd2lkdGg6MTsiLz48ZWxsaXBzZSBjeD0iMjcwIiBjeT0iNTU1LjA2MjUiIGZpbGw9IiMyMjIyMjIiIHJ4PSI2IiByeT0iNiIgc3R5bGU9InN0cm9rZTojMjIyMjIyO3N0cm9rZS13aWR0aDoxOyIvPjxwb2x5Z29uIGZpbGw9IiNGMUYxRjEiIHBvaW50cz0iOTk4Ljc1LDM0MC41MzEzLDEwODYuNzUsMzQwLjUzMTMsMTA5OC43NSwzNTIuNTMxMywxMDg2Ljc1LDM2NC41MzEzLDk5OC43NSwzNjQuNTMxMyw5ODYuNzUsMzUyLjUzMTMsOTk4Ljc1LDM0MC41MzEzIiBzdHlsZT0ic3Ryb2tlOiMxODE4MTg7c3Ryb2tlLXdpZHRoOjAuNTsiLz48dGV4dCBmaWxsPSIjMDAwMDAwIiBmb250LWZhbWlseT0ic2Fucy1zZXJpZiIgZm9udC1zaXplPSIxMSIgbGVuZ3RoQWRqdXN0PSJzcGFjaW5nIiB0ZXh0TGVuZ3RoPSI4OCIgeD0iOTk4Ljc1IiB5PSIzNTcuMDQzIj5JcyBQT1NUIHJlcXVlc3Q/PC90ZXh0Pjx0ZXh0IGZpbGw9IiMwMDAwMDAiIGZvbnQtZmFtaWx5PSJzYW5zLXNlcmlmIiBmb250LXNpemU9IjExIiBsZW5ndGhBZGp1c3Q9InNwYWNpbmciIHRleHRMZW5ndGg9IjE2LjUiIHg9Ijk3MC4yNSIgeT0iMzUxLjE1NjMiPlllczwvdGV4dD48dGV4dCBmaWxsPSIjMDAwMDAwIiBmb250LWZhbWlseT0ic2Fucy1zZXJpZiIgZm9udC1zaXplPSIxMSIgbGVuZ3RoQWRqdXN0PSJzcGFjaW5nIiB0ZXh0TGVuZ3RoPSIxMSIgeD0iMTA5OC43NSIgeT0iMzUxLjE1NjMiPk5vPC90ZXh0PjxyZWN0IGZpbGw9IiNGMUYxRjEiIGhlaWdodD0iMzIuODQzOCIgcng9IjEyLjUiIHJ5PSIxMi41IiBzdHlsZT0ic3Ryb2tlOiMxODE4MTg7c3Ryb2tlLXdpZHRoOjAuNTsiIHdpZHRoPSIxNzAiIHg9IjY5OC41IiB5PSIzNzQuNTMxMyIvPjx0ZXh0IGZpbGw9IiMwMDAwMDAiIGZvbnQtZmFtaWx5PSJzYW5zLXNlcmlmIiBmb250LXNpemU9IjEyIiBsZW5ndGhBZGp1c3Q9InNwYWNpbmciIHRleHRMZW5ndGg9IjE1MCIgeD0iNzA4LjUiIHk9IjM5NS44NzUiPkdldCB1c2VybmFtZSBhbmQgcGFzc3dvcmQ8L3RleHQ+PHJlY3QgZmlsbD0iI0YxRjFGMSIgaGVpZ2h0PSIzMi44NDM4IiByeD0iMTIuNSIgcnk9IjEyLjUiIHN0eWxlPSJzdHJva2U6IzE4MTgxODtzdHJva2Utd2lkdGg6MC41OyIgd2lkdGg9IjEyMiIgeD0iNzIyLjUiIHk9IjQ0Mi4zNzUiLz48dGV4dCBmaWxsPSIjMDAwMDAwIiBmb250LWZhbWlseT0ic2Fucy1zZXJpZiIgZm9udC1zaXplPSIxMiIgbGVuZ3RoQWRqdXN0PSJzcGFjaW5nIiB0ZXh0TGVuZ3RoPSIxMDIiIHg9IjczMi41IiB5PSI0NjMuNzE4OCI+QXV0aGVudGljYXRlIHVzZXI8L3RleHQ+PHBvbHlnb24gZmlsbD0iI0YxRjFGMSIgcG9pbnRzPSI3MTIsNTEwLjIxODgsODU1LDUxMC4yMTg4LDg2Nyw1MjIuMjE4OCw4NTUsNTM0LjIxODgsNzEyLDUzNC4yMTg4LDcwMCw1MjIuMjE4OCw3MTIsNTEwLjIxODgiIHN0eWxlPSJzdHJva2U6IzE4MTgxODtzdHJva2Utd2lkdGg6MC41OyIvPjx0ZXh0IGZpbGw9IiMwMDAwMDAiIGZvbnQtZmFtaWx5PSJzYW5zLXNlcmlmIiBmb250LXNpemU9IjExIiBsZW5ndGhBZGp1c3Q9InNwYWNpbmciIHRleHRMZW5ndGg9IjE0MyIgeD0iNzEyIiB5PSI1MjYuNzMwNSI+QXV0aGVudGljYXRpb24gc3VjY2Vzc2Z1bD88L3RleHQ+PHRleHQgZmlsbD0iIzAwMDAwMCIgZm9udC1mYW1pbHk9InNhbnMtc2VyaWYiIGZvbnQtc2l6ZT0iMTEiIGxlbmd0aEFkanVzdD0ic3BhY2luZyIgdGV4dExlbmd0aD0iMTYuNSIgeD0iNjgzLjUiIHk9IjUyMC44NDM4Ij5ZZXM8L3RleHQ+PHRleHQgZmlsbD0iIzAwMDAwMCIgZm9udC1mYW1pbHk9InNhbnMtc2VyaWYiIGZvbnQtc2l6ZT0iMTEiIGxlbmd0aEFkanVzdD0ic3BhY2luZyIgdGV4dExlbmd0aD0iMTEiIHg9Ijg2NyIgeT0iNTIwLjg0MzgiPk5vPC90ZXh0Pjxwb2x5Z29uIGZpbGw9IiNGMUYxRjEiIHBvaW50cz0iNTIwLjUsNTQ0LjIxODgsNjE5LjUsNTQ0LjIxODgsNjMxLjUsNTU2LjIxODgsNjE5LjUsNTY4LjIxODgsNTIwLjUsNTY4LjIxODgsNTA4LjUsNTU2LjIxODgsNTIwLjUsNTQ0LjIxODgiIHN0eWxlPSJzdHJva2U6IzE4MTgxODtzdHJva2Utd2lkdGg6MC41OyIvPjx0ZXh0IGZpbGw9IiMwMDAwMDAiIGZvbnQtZmFtaWx5PSJzYW5zLXNlcmlmIiBmb250LXNpemU9IjExIiBsZW5ndGhBZGp1c3Q9InNwYWNpbmciIHRleHRMZW5ndGg9Ijk5IiB4PSI1MjAuNSIgeT0iNTYwLjczMDUiPklzIGVtYWlsIHZlcmlmaWVkPzwvdGV4dD48dGV4dCBmaWxsPSIjMDAwMDAwIiBmb250LWZhbWlseT0ic2Fucy1zZXJpZiIgZm9udC1zaXplPSIxMSIgbGVuZ3RoQWRqdXN0PSJzcGFjaW5nIiB0ZXh0TGVuZ3RoPSIxNi41IiB4PSI0OTIiIHk9IjU1NC44NDM4Ij5ZZXM8L3RleHQ+PHRleHQgZmlsbD0iIzAwMDAwMCIgZm9udC1mYW1pbHk9InNhbnMtc2VyaWYiIGZvbnQtc2l6ZT0iMTEiIGxlbmd0aEFkanVzdD0ic3BhY2luZyIgdGV4dExlbmd0aD0iMTEiIHg9IjYzMS41IiB5PSI1NTQuODQzOCI+Tm88L3RleHQ+PHJlY3QgZmlsbD0iI0YxRjFGMSIgaGVpZ2h0PSIzMi44NDM4IiByeD0iMTIuNSIgcnk9IjEyLjUiIHN0eWxlPSJzdHJva2U6IzE4MTgxODtzdHJva2Utd2lkdGg6MC41OyIgd2lkdGg9IjgwIiB4PSI0MzUiIHk9IjU3OC4yMTg4Ii8+PHRleHQgZmlsbD0iIzAwMDAwMCIgZm9udC1mYW1pbHk9InNhbnMtc2VyaWYiIGZvbnQtc2l6ZT0iMTIiIGxlbmd0aEFkanVzdD0ic3BhY2luZyIgdGV4dExlbmd0aD0iNjAiIHg9IjQ0NSIgeT0iNTk5LjU2MjUiPkxvZ2luIHVzZXI8L3RleHQ+PHJlY3QgZmlsbD0iI0YxRjFGMSIgaGVpZ2h0PSIzMi44NDM4IiByeD0iMTIuNSIgcnk9IjEyLjUiIHN0eWxlPSJzdHJva2U6IzE4MTgxODtzdHJva2Utd2lkdGg6MC41OyIgd2lkdGg9IjE0MCIgeD0iNDA1IiB5PSI2NDYuMDYyNSIvPjx0ZXh0IGZpbGw9IiMwMDAwMDAiIGZvbnQtZmFtaWx5PSJzYW5zLXNlcmlmIiBmb250LXNpemU9IjEyIiBsZW5ndGhBZGp1c3Q9InNwYWNpbmciIHRleHRMZW5ndGg9IjEyMCIgeD0iNDE1IiB5PSI2NjcuNDA2MyI+TG9nIHN1Y2Nlc3NmdWwgbG9naW48L3RleHQ+PHJlY3QgZmlsbD0iI0YxRjFGMSIgaGVpZ2h0PSIzMi44NDM4IiByeD0iMTIuNSIgcnk9IjEyLjUiIHN0eWxlPSJzdHJva2U6IzE4MTgxODtzdHJva2Utd2lkdGg6MC41OyIgd2lkdGg9IjExNiIgeD0iNDE3IiB5PSI3MTMuOTA2MyIvPjx0ZXh0IGZpbGw9IiMwMDAwMDAiIGZvbnQtZmFtaWx5PSJzYW5zLXNlcmlmIiBmb250LXNpemU9IjEyIiBsZW5ndGhBZGp1c3Q9InNwYWNpbmciIHRleHRMZW5ndGg9Ijk2IiB4PSI0MjciIHk9IjczNS4yNSI+UmVkaXJlY3QgdG8gaG9tZTwvdGV4dD48ZWxsaXBzZSBjeD0iNDc1IiBjeT0iNzc3Ljc1IiBmaWxsPSJub25lIiByeD0iMTEiIHJ5PSIxMSIgc3R5bGU9InN0cm9rZTojMjIyMjIyO3N0cm9rZS13aWR0aDoxOyIvPjxlbGxpcHNlIGN4PSI0NzUiIGN5PSI3NzcuNzUiIGZpbGw9IiMyMjIyMjIiIHJ4PSI2IiByeT0iNiIgc3R5bGU9InN0cm9rZTojMjIyMjIyO3N0cm9rZS13aWR0aDoxOyIvPjxyZWN0IGZpbGw9IiNGMUYxRjEiIGhlaWdodD0iMzIuODQzOCIgcng9IjEyLjUiIHJ5PSIxMi41IiBzdHlsZT0ic3Ryb2tlOiMxODE4MTg7c3Ryb2tlLXdpZHRoOjAuNTsiIHdpZHRoPSI4MCIgeD0iNjI1IiB5PSI1NzguMjE4OCIvPjx0ZXh0IGZpbGw9IiMwMDAwMDAiIGZvbnQtZmFtaWx5PSJzYW5zLXNlcmlmIiBmb250LXNpemU9IjEyIiBsZW5ndGhBZGp1c3Q9InNwYWNpbmciIHRleHRMZW5ndGg9IjYwIiB4PSI2MzUiIHk9IjU5OS41NjI1Ij5Mb2dpbiB1c2VyPC90ZXh0PjxyZWN0IGZpbGw9IiNGMUYxRjEiIGhlaWdodD0iMzIuODQzOCIgcng9IjEyLjUiIHJ5PSIxMi41IiBzdHlsZT0ic3Ryb2tlOiMxODE4MTg7c3Ryb2tlLXdpZHRoOjAuNTsiIHdpZHRoPSIyMDAiIHg9IjU2NSIgeT0iNjQ2LjA2MjUiLz48dGV4dCBmaWxsPSIjMDAwMDAwIiBmb250LWZhbWlseT0ic2Fucy1zZXJpZiIgZm9udC1zaXplPSIxMiIgbGVuZ3RoQWRqdXN0PSJzcGFjaW5nIiB0ZXh0TGVuZ3RoPSIxODAiIHg9IjU3NSIgeT0iNjY3LjQwNjMiPkxvZyBsb2dpbiAoZW1haWwgbm90IHZlcmlmaWVkKTwvdGV4dD48cmVjdCBmaWxsPSIjRjFGMUYxIiBoZWlnaHQ9IjMyLjg0MzgiIHJ4PSIxMi41IiByeT0iMTIuNSIgc3R5bGU9InN0cm9rZTojMTgxODE4O3N0cm9rZS13aWR0aDowLjU7IiB3aWR0aD0iMTE2IiB4PSI2MDciIHk9IjcxMy45MDYzIi8+PHRleHQgZmlsbD0iIzAwMDAwMCIgZm9udC1mYW1pbHk9InNhbnMtc2VyaWYiIGZvbnQtc2l6ZT0iMTIiIGxlbmd0aEFkanVzdD0ic3BhY2luZyIgdGV4dExlbmd0aD0iOTYiIHg9IjYxNyIgeT0iNzM1LjI1Ij5SZWRpcmVjdCB0byBob21lPC90ZXh0PjxlbGxpcHNlIGN4PSI2NjUiIGN5PSI3NzcuNzUiIGZpbGw9Im5vbmUiIHJ4PSIxMSIgcnk9IjExIiBzdHlsZT0ic3Ryb2tlOiMyMjIyMjI7c3Ryb2tlLXdpZHRoOjE7Ii8+PGVsbGlwc2UgY3g9IjY2NSIgY3k9Ijc3Ny43NSIgZmlsbD0iIzIyMjIyMiIgcng9IjYiIHJ5PSI2IiBzdHlsZT0ic3Ryb2tlOiMyMjIyMjI7c3Ryb2tlLXdpZHRoOjE7Ii8+PHJlY3QgZmlsbD0iI0YxRjFGMSIgaGVpZ2h0PSIzMi44NDM4IiByeD0iMTIuNSIgcnk9IjEyLjUiIHN0eWxlPSJzdHJva2U6IzE4MTgxODtzdHJva2Utd2lkdGg6MC41OyIgd2lkdGg9IjI2MCIgeD0iODY3IiB5PSI1NDQuMjE4OCIvPjx0ZXh0IGZpbGw9IiMwMDAwMDAiIGZvbnQtZmFtaWx5PSJzYW5zLXNlcmlmIiBmb250LXNpemU9IjEyIiBsZW5ndGhBZGp1c3Q9InNwYWNpbmciIHRleHRMZW5ndGg9IjI0MCIgeD0iODc3IiB5PSI1NjUuNTYyNSI+SW5jcmVtZW50IGZhaWxlZCBsb2dpbiBhdHRlbXB0cyBpbiBSZWRpczwvdGV4dD48cmVjdCBmaWxsPSIjRjFGMUYxIiBoZWlnaHQ9IjMyLjg0MzgiIHJ4PSIxMi41IiByeT0iMTIuNSIgc3R5bGU9InN0cm9rZTojMTgxODE4O3N0cm9rZS13aWR0aDowLjU7IiB3aWR0aD0iMTY0IiB4PSI5MTUiIHk9IjYxMi4wNjI1Ii8+PHRleHQgZmlsbD0iIzAwMDAwMCIgZm9udC1mYW1pbHk9InNhbnMtc2VyaWYiIGZvbnQtc2l6ZT0iMTIiIGxlbmd0aEFkanVzdD0ic3BhY2luZyIgdGV4dExlbmd0aD0iMTQ0IiB4PSI5MjUiIHk9IjYzMy40MDYzIj5Mb2cgZmFpbGVkIGxvZ2luIGF0dGVtcHQ8L3RleHQ+PHBvbHlnb24gZmlsbD0iI0YxRjFGMSIgcG9pbnRzPSI5MzkuMjUsNjc5LjkwNjMsMTA1NC43NSw2NzkuOTA2MywxMDY2Ljc1LDY5MS45MDYzLDEwNTQuNzUsNzAzLjkwNjMsOTM5LjI1LDcwMy45MDYzLDkyNy4yNSw2OTEuOTA2Myw5MzkuMjUsNjc5LjkwNjMiIHN0eWxlPSJzdHJva2U6IzE4MTgxODtzdHJva2Utd2lkdGg6MC41OyIvPjx0ZXh0IGZpbGw9IiMwMDAwMDAiIGZvbnQtZmFtaWx5PSJzYW5zLXNlcmlmIiBmb250LXNpemU9IjExIiBsZW5ndGhBZGp1c3Q9InNwYWNpbmciIHRleHRMZW5ndGg9IjExNS41IiB4PSI5MzkuMjUiIHk9IjY5Ni40MTgiPkZhaWxlZCBhdHRlbXB0cyAmZ3Q7PSA1PzwvdGV4dD48dGV4dCBmaWxsPSIjMDAwMDAwIiBmb250LWZhbWlseT0ic2Fucy1zZXJpZiIgZm9udC1zaXplPSIxMSIgbGVuZ3RoQWRqdXN0PSJzcGFjaW5nIiB0ZXh0TGVuZ3RoPSIxNi41IiB4PSI5MTAuNzUiIHk9IjY5MC41MzEzIj5ZZXM8L3RleHQ+PHRleHQgZmlsbD0iIzAwMDAwMCIgZm9udC1mYW1pbHk9InNhbnMtc2VyaWYiIGZvbnQtc2l6ZT0iMTEiIGxlbmd0aEFkanVzdD0ic3BhY2luZyIgdGV4dExlbmd0aD0iMTEiIHg9IjEwNjYuNzUiIHk9IjY5MC41MzEzIj5ObzwvdGV4dD48cmVjdCBmaWxsPSIjRjFGMUYxIiBoZWlnaHQ9IjMyLjg0MzgiIHJ4PSIxMi41IiByeT0iMTIuNSIgc3R5bGU9InN0cm9rZTojMTgxODE4O3N0cm9rZS13aWR0aDowLjU7IiB3aWR0aD0iMTU4IiB4PSI4MTQiIHk9IjcxMy45MDYzIi8+PHRleHQgZmlsbD0iIzAwMDAwMCIgZm9udC1mYW1pbHk9InNhbnMtc2VyaWYiIGZvbnQtc2l6ZT0iMTIiIGxlbmd0aEFkanVzdD0ic3BhY2luZyIgdGV4dExlbmd0aD0iMTM4IiB4PSI4MjQiIHk9IjczNS4yNSI+QmxvY2sgbG9naW4gZm9yIDEwIG1pbnM8L3RleHQ+PHJlY3QgZmlsbD0iI0YxRjFGMSIgaGVpZ2h0PSIzMi44NDM4IiByeD0iMTIuNSIgcnk9IjEyLjUiIHN0eWxlPSJzdHJva2U6IzE4MTgxODtzdHJva2Utd2lkdGg6MC41OyIgd2lkdGg9IjEyOCIgeD0iODI5IiB5PSI3NjYuNzUiLz48dGV4dCBmaWxsPSIjMDAwMDAwIiBmb250LWZhbWlseT0ic2Fucy1zZXJpZiIgZm9udC1zaXplPSIxMiIgbGVuZ3RoQWRqdXN0PSJzcGFjaW5nIiB0ZXh0TGVuZ3RoPSIxMDgiIHg9IjgzOSIgeT0iNzg4LjA5MzgiPkxvZyBibG9ja2luZyBldmVudDwvdGV4dD48cmVjdCBmaWxsPSIjRjFGMUYxIiBoZWlnaHQ9IjMyLjg0MzgiIHJ4PSIxMi41IiByeT0iMTIuNSIgc3R5bGU9InN0cm9rZTojMTgxODE4O3N0cm9rZS13aWR0aDowLjU7IiB3aWR0aD0iMTc2IiB4PSI4MDUiIHk9IjgxOS41OTM4Ii8+PHRleHQgZmlsbD0iIzAwMDAwMCIgZm9udC1mYW1pbHk9InNhbnMtc2VyaWYiIGZvbnQtc2l6ZT0iMTIiIGxlbmd0aEFkanVzdD0ic3BhY2luZyIgdGV4dExlbmd0aD0iMTU2IiB4PSI4MTUiIHk9Ijg0MC45Mzc1Ij5TaG93IGJsb2NrZWQgZXJyb3IgbWVzc2FnZTwvdGV4dD48cmVjdCBmaWxsPSIjRjFGMUYxIiBoZWlnaHQ9IjMyLjg0MzgiIHJ4PSIxMi41IiByeT0iMTIuNSIgc3R5bGU9InN0cm9rZTojMTgxODE4O3N0cm9rZS13aWR0aDowLjU7IiB3aWR0aD0iMTIyIiB4PSI4MzIiIHk9Ijg3Mi40Mzc1Ii8+PHRleHQgZmlsbD0iIzAwMDAwMCIgZm9udC1mYW1pbHk9InNhbnMtc2VyaWYiIGZvbnQtc2l6ZT0iMTIiIGxlbmd0aEFkanVzdD0ic3BhY2luZyIgdGV4dExlbmd0aD0iMTAyIiB4PSI4NDIiIHk9Ijg5My43ODEzIj5SZWRpcmVjdCB0byBsb2dpbjwvdGV4dD48ZWxsaXBzZSBjeD0iODkzIiBjeT0iOTM2LjI4MTMiIGZpbGw9Im5vbmUiIHJ4PSIxMSIgcnk9IjExIiBzdHlsZT0ic3Ryb2tlOiMyMjIyMjI7c3Ryb2tlLXdpZHRoOjE7Ii8+PGVsbGlwc2UgY3g9Ijg5MyIgY3k9IjkzNi4yODEzIiBmaWxsPSIjMjIyMjIyIiByeD0iNiIgcnk9IjYiIHN0eWxlPSJzdHJva2U6IzIyMjIyMjtzdHJva2Utd2lkdGg6MTsiLz48cmVjdCBmaWxsPSIjRjFGMUYxIiBoZWlnaHQ9IjMyLjg0MzgiIHJ4PSIxMi41IiByeT0iMTIuNSIgc3R5bGU9InN0cm9rZTojMTgxODE4O3N0cm9rZS13aWR0aDowLjU7IiB3aWR0aD0iMjAwIiB4PSIxMDAxIiB5PSI3MTMuOTA2MyIvPjx0ZXh0IGZpbGw9IiMwMDAwMDAiIGZvbnQtZmFtaWx5PSJzYW5zLXNlcmlmIiBmb250LXNpemU9IjEyIiBsZW5ndGhBZGp1c3Q9InNwYWNpbmciIHRleHRMZW5ndGg9IjE4MCIgeD0iMTAxMSIgeT0iNzM1LjI1Ij5TaG93IGludmFsaWQgY3JlZGVudGlhbHMgZXJyb3I8L3RleHQ+PHJlY3QgZmlsbD0iI0YxRjFGMSIgaGVpZ2h0PSIzMi44NDM4IiByeD0iMTIuNSIgcnk9IjEyLjUiIHN0eWxlPSJzdHJva2U6IzE4MTgxODtzdHJva2Utd2lkdGg6MC41OyIgd2lkdGg9IjEyMiIgeD0iMTIxMSIgeT0iMzc0LjUzMTMiLz48dGV4dCBmaWxsPSIjMDAwMDAwIiBmb250LWZhbWlseT0ic2Fucy1zZXJpZiIgZm9udC1zaXplPSIxMiIgbGVuZ3RoQWRqdXN0PSJzcGFjaW5nIiB0ZXh0TGVuZ3RoPSIxMDIiIHg9IjEyMjEiIHk9IjM5NS44NzUiPlJlbmRlciBsb2dpbiBwYWdlPC90ZXh0Pjxwb2x5Z29uIGZpbGw9IiNGMUYxRjEiIHBvaW50cz0iMTA0Mi43NSw5NTcuMjgxMywxMDU0Ljc1LDk2OS4yODEzLDEwNDIuNzUsOTgxLjI4MTMsMTAzMC43NSw5NjkuMjgxMywxMDQyLjc1LDk1Ny4yODEzIiBzdHlsZT0ic3Ryb2tlOiMxODE4MTg7c3Ryb2tlLXdpZHRoOjAuNTsiLz48bGluZSBzdHlsZT0ic3Ryb2tlOiMxODE4MTg7c3Ryb2tlLXdpZHRoOjE7IiB4MT0iMzY0LjY4NzUiIHgyPSIzNjQuNjg3NSIgeTE9IjMwIiB5Mj0iNTAiLz48cG9seWdvbiBmaWxsPSIjMTgxODE4IiBwb2ludHM9IjM2MC42ODc1LDQwLDM2NC42ODc1LDUwLDM2OC42ODc1LDQwLDM2NC42ODc1LDQ0IiBzdHlsZT0ic3Ryb2tlOiMxODE4MTg7c3Ryb2tlLXdpZHRoOjE7Ii8+PGxpbmUgc3R5bGU9InN0cm9rZTojMTgxODE4O3N0cm9rZS13aWR0aDoxOyIgeDE9IjMxOS42ODc1IiB4Mj0iMjc0LjE4NzUiIHkxPSIxMTQuODQzOCIgeTI9IjExNC44NDM4Ii8+PGxpbmUgc3R5bGU9InN0cm9rZTojMTgxODE4O3N0cm9rZS13aWR0aDoxOyIgeDE9IjI3NC4xODc1IiB4Mj0iMjc0LjE4NzUiIHkxPSIxMTQuODQzOCIgeTI9IjEzNi44NDM4Ii8+PHBvbHlnb24gZmlsbD0iIzE4MTgxOCIgcG9pbnRzPSIyNzAuMTg3NSwxMjYuODQzOCwyNzQuMTg3NSwxMzYuODQzOCwyNzguMTg3NSwxMjYuODQzOCwyNzQuMTg3NSwxMzAuODQzOCIgc3R5bGU9InN0cm9rZTojMTgxODE4O3N0cm9rZS13aWR0aDoxOyIvPjxsaW5lIHN0eWxlPSJzdHJva2U6IzE4MTgxODtzdHJva2Utd2lkdGg6MTsiIHgxPSI0MDkuNjg3NSIgeDI9IjQ1NS4xODc1IiB5MT0iMTE0Ljg0MzgiIHkyPSIxMTQuODQzOCIvPjxsaW5lIHN0eWxlPSJzdHJva2U6IzE4MTgxODtzdHJva2Utd2lkdGg6MTsiIHgxPSI0NTUuMTg3NSIgeDI9IjQ1NS4xODc1IiB5MT0iMTE0Ljg0MzgiIHkyPSIxMzYuODQzOCIvPjxwb2x5Z29uIGZpbGw9IiMxODE4MTgiIHBvaW50cz0iNDUxLjE4NzUsMTI2Ljg0MzgsNDU1LjE4NzUsMTM2Ljg0MzgsNDU5LjE4NzUsMTI2Ljg0MzgsNDU1LjE4NzUsMTMwLjg0MzgiIHN0eWxlPSJzdHJva2U6IzE4MTgxODtzdHJva2Utd2lkdGg6MTsiLz48bGluZSBzdHlsZT0ic3Ryb2tlOiMxODE4MTg7c3Ryb2tlLXdpZHRoOjE7IiB4MT0iMjc0LjE4NzUiIHgyPSIyNzQuMTg3NSIgeTE9IjE2OS42ODc1IiB5Mj0iMTg3LjY4NzUiLz48bGluZSBzdHlsZT0ic3Ryb2tlOiMxODE4MTg7c3Ryb2tlLXdpZHRoOjE7IiB4MT0iMjc0LjE4NzUiIHgyPSIzNTIuNjg3NSIgeTE9IjE4Ny42ODc1IiB5Mj0iMTg3LjY4NzUiLz48cG9seWdvbiBmaWxsPSIjMTgxODE4IiBwb2ludHM9IjM0Mi42ODc1LDE4My42ODc1LDM1Mi42ODc1LDE4Ny42ODc1LDM0Mi42ODc1LDE5MS42ODc1LDM0Ni42ODc1LDE4Ny42ODc1IiBzdHlsZT0ic3Ryb2tlOiMxODE4MTg7c3Ryb2tlLXdpZHRoOjE7Ii8+PGxpbmUgc3R5bGU9InN0cm9rZTojMTgxODE4O3N0cm9rZS13aWR0aDoxOyIgeDE9IjQ1NS4xODc1IiB4Mj0iNDU1LjE4NzUiIHkxPSIxNjkuNjg3NSIgeTI9IjE4Ny42ODc1Ii8+PGxpbmUgc3R5bGU9InN0cm9rZTojMTgxODE4O3N0cm9rZS13aWR0aDoxOyIgeDE9IjQ1NS4xODc1IiB4Mj0iMzc2LjY4NzUiIHkxPSIxODcuNjg3NSIgeTI9IjE4Ny42ODc1Ii8+PHBvbHlnb24gZmlsbD0iIzE4MTgxOCIgcG9pbnRzPSIzODYuNjg3NSwxODMuNjg3NSwzNzYuNjg3NSwxODcuNjg3NSwzODYuNjg3NSwxOTEuNjg3NSwzODIuNjg3NSwxODcuNjg3NSIgc3R5bGU9InN0cm9rZTojMTgxODE4O3N0cm9rZS13aWR0aDoxOyIvPjxsaW5lIHN0eWxlPSJzdHJva2U6IzE4MTgxODtzdHJva2Utd2lkdGg6MTsiIHgxPSIzNjQuNjg3NSIgeDI9IjM2NC42ODc1IiB5MT0iODIuODQzOCIgeTI9IjEwMi44NDM4Ii8+PHBvbHlnb24gZmlsbD0iIzE4MTgxOCIgcG9pbnRzPSIzNjAuNjg3NSw5Mi44NDM4LDM2NC42ODc1LDEwMi44NDM4LDM2OC42ODc1LDkyLjg0MzgsMzY0LjY4NzUsOTYuODQzOCIgc3R5bGU9InN0cm9rZTojMTgxODE4O3N0cm9rZS13aWR0aDoxOyIvPjxsaW5lIHN0eWxlPSJzdHJva2U6IzE4MTgxODtzdHJva2Utd2lkdGg6MTsiIHgxPSI5MyIgeDI9IjkzIiB5MT0iMjg2LjUzMTMiIHkyPSIzMDYuNTMxMyIvPjxwb2x5Z29uIGZpbGw9IiMxODE4MTgiIHBvaW50cz0iODksMjk2LjUzMTMsOTMsMzA2LjUzMTMsOTcsMjk2LjUzMTMsOTMsMzAwLjUzMTMiIHN0eWxlPSJzdHJva2U6IzE4MTgxODtzdHJva2Utd2lkdGg6MTsiLz48bGluZSBzdHlsZT0ic3Ryb2tlOiMxODE4MTg7c3Ryb2tlLXdpZHRoOjE7IiB4MT0iOTMiIHgyPSI5MyIgeTE9IjMzOS4zNzUiIHkyPSIzNzQuMzc1Ii8+PHBvbHlnb24gZmlsbD0iIzE4MTgxOCIgcG9pbnRzPSI4OSwzNjQuMzc1LDkzLDM3NC4zNzUsOTcsMzY0LjM3NSw5MywzNjguMzc1IiBzdHlsZT0ic3Ryb2tlOiMxODE4MTg7c3Ryb2tlLXdpZHRoOjE7Ii8+PGxpbmUgc3R5bGU9InN0cm9rZTojMTgxODE4O3N0cm9rZS13aWR0aDoxOyIgeDE9IjkzIiB4Mj0iOTMiIHkxPSI0MDcuMjE4OCIgeTI9IjQ0Mi4yMTg4Ii8+PHBvbHlnb24gZmlsbD0iIzE4MTgxOCIgcG9pbnRzPSI4OSw0MzIuMjE4OCw5Myw0NDIuMjE4OCw5Nyw0MzIuMjE4OCw5Myw0MzYuMjE4OCIgc3R5bGU9InN0cm9rZTojMTgxODE4O3N0cm9rZS13aWR0aDoxOyIvPjxsaW5lIHN0eWxlPSJzdHJva2U6IzE4MTgxODtzdHJva2Utd2lkdGg6MTsiIHgxPSIyNzAiIHgyPSIyNzAiIHkxPSIzNzMuMzc1IiB5Mj0iNDA4LjM3NSIvPjxwb2x5Z29uIGZpbGw9IiMxODE4MTgiIHBvaW50cz0iMjY2LDM5OC4zNzUsMjcwLDQwOC4zNzUsMjc0LDM5OC4zNzUsMjcwLDQwMi4zNzUiIHN0eWxlPSJzdHJva2U6IzE4MTgxODtzdHJva2Utd2lkdGg6MTsiLz48bGluZSBzdHlsZT0ic3Ryb2tlOiMxODE4MTg7c3Ryb2tlLXdpZHRoOjE7IiB4MT0iMjcwIiB4Mj0iMjcwIiB5MT0iNDQxLjIxODgiIHkyPSI0NzYuMjE4OCIvPjxwb2x5Z29uIGZpbGw9IiMxODE4MTgiIHBvaW50cz0iMjY2LDQ2Ni4yMTg4LDI3MCw0NzYuMjE4OCwyNzQsNDY2LjIxODgsMjcwLDQ3MC4yMTg4IiBzdHlsZT0ic3Ryb2tlOiMxODE4MTg7c3Ryb2tlLXdpZHRoOjE7Ii8+PGxpbmUgc3R5bGU9InN0cm9rZTojMTgxODE4O3N0cm9rZS13aWR0aDoxOyIgeDE9IjI3MCIgeDI9IjI3MCIgeTE9IjUwOS4wNjI1IiB5Mj0iNTQ0LjA2MjUiLz48cG9seWdvbiBmaWxsPSIjMTgxODE4IiBwb2ludHM9IjI2Niw1MzQuMDYyNSwyNzAsNTQ0LjA2MjUsMjc0LDUzNC4wNjI1LDI3MCw1MzguMDYyNSIgc3R5bGU9InN0cm9rZTojMTgxODE4O3N0cm9rZS13aWR0aDoxOyIvPjxsaW5lIHN0eWxlPSJzdHJva2U6IzE4MTgxODtzdHJva2Utd2lkdGg6MTsiIHgxPSI3ODMuNSIgeDI9Ijc4My41IiB5MT0iNDA3LjM3NSIgeTI9IjQ0Mi4zNzUiLz48cG9seWdvbiBmaWxsPSIjMTgxODE4IiBwb2ludHM9Ijc3OS41LDQzMi4zNzUsNzgzLjUsNDQyLjM3NSw3ODcuNSw0MzIuMzc1LDc4My41LDQzNi4zNzUiIHN0eWxlPSJzdHJva2U6IzE4MTgxODtzdHJva2Utd2lkdGg6MTsiLz48bGluZSBzdHlsZT0ic3Ryb2tlOiMxODE4MTg7c3Ryb2tlLXdpZHRoOjE7IiB4MT0iNDc1IiB4Mj0iNDc1IiB5MT0iNjExLjA2MjUiIHkyPSI2NDYuMDYyNSIvPjxwb2x5Z29uIGZpbGw9IiMxODE4MTgiIHBvaW50cz0iNDcxLDYzNi4wNjI1LDQ3NSw2NDYuMDYyNSw0NzksNjM2LjA2MjUsNDc1LDY0MC4wNjI1IiBzdHlsZT0ic3Ryb2tlOiMxODE4MTg7c3Ryb2tlLXdpZHRoOjE7Ii8+PGxpbmUgc3R5bGU9InN0cm9rZTojMTgxODE4O3N0cm9rZS13aWR0aDoxOyIgeDE9IjQ3NSIgeDI9IjQ3NSIgeTE9IjY3OC45MDYzIiB5Mj0iNzEzLjkwNjMiLz48cG9seWdvbiBmaWxsPSIjMTgxODE4IiBwb2ludHM9IjQ3MSw3MDMuOTA2Myw0NzUsNzEzLjkwNjMsNDc5LDcwMy45MDYzLDQ3NSw3MDcuOTA2MyIgc3R5bGU9InN0cm9rZTojMTgxODE4O3N0cm9rZS13aWR0aDoxOyIvPjxsaW5lIHN0eWxlPSJzdHJva2U6IzE4MTgxODtzdHJva2Utd2lkdGg6MTsiIHgxPSI0NzUiIHgyPSI0NzUiIHkxPSI3NDYuNzUiIHkyPSI3NjYuNzUiLz48cG9seWdvbiBmaWxsPSIjMTgxODE4IiBwb2ludHM9IjQ3MSw3NTYuNzUsNDc1LDc2Ni43NSw0NzksNzU2Ljc1LDQ3NSw3NjAuNzUiIHN0eWxlPSJzdHJva2U6IzE4MTgxODtzdHJva2Utd2lkdGg6MTsiLz48bGluZSBzdHlsZT0ic3Ryb2tlOiMxODE4MTg7c3Ryb2tlLXdpZHRoOjE7IiB4MT0iNjY1IiB4Mj0iNjY1IiB5MT0iNjExLjA2MjUiIHkyPSI2NDYuMDYyNSIvPjxwb2x5Z29uIGZpbGw9IiMxODE4MTgiIHBvaW50cz0iNjYxLDYzNi4wNjI1LDY2NSw2NDYuMDYyNSw2NjksNjM2LjA2MjUsNjY1LDY0MC4wNjI1IiBzdHlsZT0ic3Ryb2tlOiMxODE4MTg7c3Ryb2tlLXdpZHRoOjE7Ii8+PGxpbmUgc3R5bGU9InN0cm9rZTojMTgxODE4O3N0cm9rZS13aWR0aDoxOyIgeDE9IjY2NSIgeDI9IjY2NSIgeTE9IjY3OC45MDYzIiB5Mj0iNzEzLjkwNjMiLz48cG9seWdvbiBmaWxsPSIjMTgxODE4IiBwb2ludHM9IjY2MSw3MDMuOTA2Myw2NjUsNzEzLjkwNjMsNjY5LDcwMy45MDYzLDY2NSw3MDcuOTA2MyIgc3R5bGU9InN0cm9rZTojMTgxODE4O3N0cm9rZS13aWR0aDoxOyIvPjxsaW5lIHN0eWxlPSJzdHJva2U6IzE4MTgxODtzdHJva2Utd2lkdGg6MTsiIHgxPSI2NjUiIHgyPSI2NjUiIHkxPSI3NDYuNzUiIHkyPSI3NjYuNzUiLz48cG9seWdvbiBmaWxsPSIjMTgxODE4IiBwb2ludHM9IjY2MSw3NTYuNzUsNjY1LDc2Ni43NSw2NjksNzU2Ljc1LDY2NSw3NjAuNzUiIHN0eWxlPSJzdHJva2U6IzE4MTgxODtzdHJva2Utd2lkdGg6MTsiLz48bGluZSBzdHlsZT0ic3Ryb2tlOiMxODE4MTg7c3Ryb2tlLXdpZHRoOjE7IiB4MT0iNTA4LjUiIHgyPSI0NzUiIHkxPSI1NTYuMjE4OCIgeTI9IjU1Ni4yMTg4Ii8+PGxpbmUgc3R5bGU9InN0cm9rZTojMTgxODE4O3N0cm9rZS13aWR0aDoxOyIgeDE9IjQ3NSIgeDI9IjQ3NSIgeTE9IjU1Ni4yMTg4IiB5Mj0iNTc4LjIxODgiLz48cG9seWdvbiBmaWxsPSIjMTgxODE4IiBwb2ludHM9IjQ3MSw1NjguMjE4OCw0NzUsNTc4LjIxODgsNDc5LDU2OC4yMTg4LDQ3NSw1NzIuMjE4OCIgc3R5bGU9InN0cm9rZTojMTgxODE4O3N0cm9rZS13aWR0aDoxOyIvPjxsaW5lIHN0eWxlPSJzdHJva2U6IzE4MTgxODtzdHJva2Utd2lkdGg6MTsiIHgxPSI2MzEuNSIgeDI9IjY2NSIgeTE9IjU1Ni4yMTg4IiB5Mj0iNTU2LjIxODgiLz48bGluZSBzdHlsZT0ic3Ryb2tlOiMxODE4MTg7c3Ryb2tlLXdpZHRoOjE7IiB4MT0iNjY1IiB4Mj0iNjY1IiB5MT0iNTU2LjIxODgiIHkyPSI1NzguMjE4OCIvPjxwb2x5Z29uIGZpbGw9IiMxODE4MTgiIHBvaW50cz0iNjYxLDU2OC4yMTg4LDY2NSw1NzguMjE4OCw2NjksNTY4LjIxODgsNjY1LDU3Mi4yMTg4IiBzdHlsZT0ic3Ryb2tlOiMxODE4MTg7c3Ryb2tlLXdpZHRoOjE7Ii8+PGxpbmUgc3R5bGU9InN0cm9rZTojMTgxODE4O3N0cm9rZS13aWR0aDoxOyIgeDE9Ijk5NyIgeDI9Ijk5NyIgeTE9IjU3Ny4wNjI1IiB5Mj0iNjEyLjA2MjUiLz48cG9seWdvbiBmaWxsPSIjMTgxODE4IiBwb2ludHM9Ijk5Myw2MDIuMDYyNSw5OTcsNjEyLjA2MjUsMTAwMSw2MDIuMDYyNSw5OTcsNjA2LjA2MjUiIHN0eWxlPSJzdHJva2U6IzE4MTgxODtzdHJva2Utd2lkdGg6MTsiLz48bGluZSBzdHlsZT0ic3Ryb2tlOiMxODE4MTg7c3Ryb2tlLXdpZHRoOjE7IiB4MT0iODkzIiB4Mj0iODkzIiB5MT0iNzQ2Ljc1IiB5Mj0iNzY2Ljc1Ii8+PHBvbHlnb24gZmlsbD0iIzE4MTgxOCIgcG9pbnRzPSI4ODksNzU2Ljc1LDg5Myw3NjYuNzUsODk3LDc1Ni43NSw4OTMsNzYwLjc1IiBzdHlsZT0ic3Ryb2tlOiMxODE4MTg7c3Ryb2tlLXdpZHRoOjE7Ii8+PGxpbmUgc3R5bGU9InN0cm9rZTojMTgxODE4O3N0cm9rZS13aWR0aDoxOyIgeDE9Ijg5MyIgeDI9Ijg5MyIgeTE9Ijc5OS41OTM4IiB5Mj0iODE5LjU5MzgiLz48cG9seWdvbiBmaWxsPSIjMTgxODE4IiBwb2ludHM9Ijg4OSw4MDkuNTkzOCw4OTMsODE5LjU5MzgsODk3LDgwOS41OTM4LDg5Myw4MTMuNTkzOCIgc3R5bGU9InN0cm9rZTojMTgxODE4O3N0cm9rZS13aWR0aDoxOyIvPjxsaW5lIHN0eWxlPSJzdHJva2U6IzE4MTgxODtzdHJva2Utd2lkdGg6MTsiIHgxPSI4OTMiIHgyPSI4OTMiIHkxPSI4NTIuNDM3NSIgeTI9Ijg3Mi40Mzc1Ii8+PHBvbHlnb24gZmlsbD0iIzE4MTgxOCIgcG9pbnRzPSI4ODksODYyLjQzNzUsODkzLDg3Mi40Mzc1LDg5Nyw4NjIuNDM3NSw4OTMsODY2LjQzNzUiIHN0eWxlPSJzdHJva2U6IzE4MTgxODtzdHJva2Utd2lkdGg6MTsiLz48bGluZSBzdHlsZT0ic3Ryb2tlOiMxODE4MTg7c3Ryb2tlLXdpZHRoOjE7IiB4MT0iODkzIiB4Mj0iODkzIiB5MT0iOTA1LjI4MTMiIHkyPSI5MjUuMjgxMyIvPjxwb2x5Z29uIGZpbGw9IiMxODE4MTgiIHBvaW50cz0iODg5LDkxNS4yODEzLDg5Myw5MjUuMjgxMyw4OTcsOTE1LjI4MTMsODkzLDkxOS4yODEzIiBzdHlsZT0ic3Ryb2tlOiMxODE4MTg7c3Ryb2tlLXdpZHRoOjE7Ii8+PGxpbmUgc3R5bGU9InN0cm9rZTojMTgxODE4O3N0cm9rZS13aWR0aDoxOyIgeDE9IjkyNy4yNSIgeDI9Ijg5MyIgeTE9IjY5MS45MDYzIiB5Mj0iNjkxLjkwNjMiLz48bGluZSBzdHlsZT0ic3Ryb2tlOiMxODE4MTg7c3Ryb2tlLXdpZHRoOjE7IiB4MT0iODkzIiB4Mj0iODkzIiB5MT0iNjkxLjkwNjMiIHkyPSI3MTMuOTA2MyIvPjxwb2x5Z29uIGZpbGw9IiMxODE4MTgiIHBvaW50cz0iODg5LDcwMy45MDYzLDg5Myw3MTMuOTA2Myw4OTcsNzAzLjkwNjMsODkzLDcwNy45MDYzIiBzdHlsZT0ic3Ryb2tlOiMxODE4MTg7c3Ryb2tlLXdpZHRoOjE7Ii8+PGxpbmUgc3R5bGU9InN0cm9rZTojMTgxODE4O3N0cm9rZS13aWR0aDoxOyIgeDE9IjEwNjYuNzUiIHgyPSIxMTAxIiB5MT0iNjkxLjkwNjMiIHkyPSI2OTEuOTA2MyIvPjxsaW5lIHN0eWxlPSJzdHJva2U6IzE4MTgxODtzdHJva2Utd2lkdGg6MTsiIHgxPSIxMTAxIiB4Mj0iMTEwMSIgeTE9IjY5MS45MDYzIiB5Mj0iNzEzLjkwNjMiLz48cG9seWdvbiBmaWxsPSIjMTgxODE4IiBwb2ludHM9IjEwOTcsNzAzLjkwNjMsMTEwMSw3MTMuOTA2MywxMTA1LDcwMy45MDYzLDExMDEsNzA3LjkwNjMiIHN0eWxlPSJzdHJva2U6IzE4MTgxODtzdHJva2Utd2lkdGg6MTsiLz48bGluZSBzdHlsZT0ic3Ryb2tlOiMxODE4MTg7c3Ryb2tlLXdpZHRoOjE7IiB4MT0iMTEwMSIgeDI9IjExMDEiIHkxPSI3NDYuNzUiIHkyPSI5NTIuMjgxMyIvPjxsaW5lIHN0eWxlPSJzdHJva2U6IzE4MTgxODtzdHJva2Utd2lkdGg6MTsiIHgxPSIxMTAxIiB4Mj0iNzgzLjUiIHkxPSI5NTIuMjgxMyIgeTI9Ijk1Mi4yODEzIi8+PGxpbmUgc3R5bGU9InN0cm9rZTojMTgxODE4O3N0cm9rZS13aWR0aDoxOyIgeDE9Ijc4My41IiB4Mj0iNzgzLjUiIHkxPSI5NTIuMjgxMyIgeTI9Ijk2OS4yODEzIi8+PGxpbmUgc3R5bGU9InN0cm9rZTojMTgxODE4O3N0cm9rZS13aWR0aDoxOyIgeDE9Ijc4My41IiB4Mj0iMTAzMC43NSIgeTE9Ijk2OS4yODEzIiB5Mj0iOTY5LjI4MTMiLz48cG9seWdvbiBmaWxsPSIjMTgxODE4IiBwb2ludHM9IjEwMjAuNzUsOTY1LjI4MTMsMTAzMC43NSw5NjkuMjgxMywxMDIwLjc1LDk3My4yODEzLDEwMjQuNzUsOTY5LjI4MTMiIHN0eWxlPSJzdHJva2U6IzE4MTgxODtzdHJva2Utd2lkdGg6MTsiLz48bGluZSBzdHlsZT0ic3Ryb2tlOiMxODE4MTg7c3Ryb2tlLXdpZHRoOjE7IiB4MT0iOTk3IiB4Mj0iOTk3IiB5MT0iNjQ0LjkwNjMiIHkyPSI2NzkuOTA2MyIvPjxwb2x5Z29uIGZpbGw9IiMxODE4MTgiIHBvaW50cz0iOTkzLDY2OS45MDYzLDk5Nyw2NzkuOTA2MywxMDAxLDY2OS45MDYzLDk5Nyw2NzMuOTA2MyIgc3R5bGU9InN0cm9rZTojMTgxODE4O3N0cm9rZS13aWR0aDoxOyIvPjxsaW5lIHN0eWxlPSJzdHJva2U6IzE4MTgxODtzdHJva2Utd2lkdGg6MTsiIHgxPSI3MDAiIHgyPSI1NzAiIHkxPSI1MjIuMjE4OCIgeTI9IjUyMi4yMTg4Ii8+PGxpbmUgc3R5bGU9InN0cm9rZTojMTgxODE4O3N0cm9rZS13aWR0aDoxOyIgeDE9IjU3MCIgeDI9IjU3MCIgeTE9IjUyMi4yMTg4IiB5Mj0iNTQ0LjIxODgiLz48cG9seWdvbiBmaWxsPSIjMTgxODE4IiBwb2ludHM9IjU2Niw1MzQuMjE4OCw1NzAsNTQ0LjIxODgsNTc0LDUzNC4yMTg4LDU3MCw1MzguMjE4OCIgc3R5bGU9InN0cm9rZTojMTgxODE4O3N0cm9rZS13aWR0aDoxOyIvPjxsaW5lIHN0eWxlPSJzdHJva2U6IzE4MTgxODtzdHJva2Utd2lkdGg6MTsiIHgxPSI4NjciIHgyPSI5OTciIHkxPSI1MjIuMjE4OCIgeTI9IjUyMi4yMTg4Ii8+PGxpbmUgc3R5bGU9InN0cm9rZTojMTgxODE4O3N0cm9rZS13aWR0aDoxOyIgeDE9Ijk5NyIgeDI9Ijk5NyIgeTE9IjUyMi4yMTg4IiB5Mj0iNTQ0LjIxODgiLz48cG9seWdvbiBmaWxsPSIjMTgxODE4IiBwb2ludHM9Ijk5Myw1MzQuMjE4OCw5OTcsNTQ0LjIxODgsMTAwMSw1MzQuMjE4OCw5OTcsNTM4LjIxODgiIHN0eWxlPSJzdHJva2U6IzE4MTgxODtzdHJva2Utd2lkdGg6MTsiLz48bGluZSBzdHlsZT0ic3Ryb2tlOiMxODE4MTg7c3Ryb2tlLXdpZHRoOjE7IiB4MT0iNzgzLjUiIHgyPSI3ODMuNSIgeTE9IjQ3NS4yMTg4IiB5Mj0iNTEwLjIxODgiLz48cG9seWdvbiBmaWxsPSIjMTgxODE4IiBwb2ludHM9Ijc3OS41LDUwMC4yMTg4LDc4My41LDUxMC4yMTg4LDc4Ny41LDUwMC4yMTg4LDc4My41LDUwNC4yMTg4IiBzdHlsZT0ic3Ryb2tlOiMxODE4MTg7c3Ryb2tlLXdpZHRoOjE7Ii8+PGxpbmUgc3R5bGU9InN0cm9rZTojMTgxODE4O3N0cm9rZS13aWR0aDoxOyIgeDE9Ijk4Ni43NSIgeDI9Ijc4My41IiB5MT0iMzUyLjUzMTMiIHkyPSIzNTIuNTMxMyIvPjxsaW5lIHN0eWxlPSJzdHJva2U6IzE4MTgxODtzdHJva2Utd2lkdGg6MTsiIHgxPSI3ODMuNSIgeDI9Ijc4My41IiB5MT0iMzUyLjUzMTMiIHkyPSIzNzQuNTMxMyIvPjxwb2x5Z29uIGZpbGw9IiMxODE4MTgiIHBvaW50cz0iNzc5LjUsMzY0LjUzMTMsNzgzLjUsMzc0LjUzMTMsNzg3LjUsMzY0LjUzMTMsNzgzLjUsMzY4LjUzMTMiIHN0eWxlPSJzdHJva2U6IzE4MTgxODtzdHJva2Utd2lkdGg6MTsiLz48bGluZSBzdHlsZT0ic3Ryb2tlOiMxODE4MTg7c3Ryb2tlLXdpZHRoOjE7IiB4MT0iMTA5OC43NSIgeDI9IjEyNzIiIHkxPSIzNTIuNTMxMyIgeTI9IjM1Mi41MzEzIi8+PGxpbmUgc3R5bGU9InN0cm9rZTojMTgxODE4O3N0cm9rZS13aWR0aDoxOyIgeDE9IjEyNzIiIHgyPSIxMjcyIiB5MT0iMzUyLjUzMTMiIHkyPSIzNzQuNTMxMyIvPjxwb2x5Z29uIGZpbGw9IiMxODE4MTgiIHBvaW50cz0iMTI2OCwzNjQuNTMxMywxMjcyLDM3NC41MzEzLDEyNzYsMzY0LjUzMTMsMTI3MiwzNjguNTMxMyIgc3R5bGU9InN0cm9rZTojMTgxODE4O3N0cm9rZS13aWR0aDoxOyIvPjxsaW5lIHN0eWxlPSJzdHJva2U6IzE4MTgxODtzdHJva2Utd2lkdGg6MTsiIHgxPSIxMjcyIiB4Mj0iMTI3MiIgeTE9IjQwNy4zNzUiIHkyPSI5NjkuMjgxMyIvPjxsaW5lIHN0eWxlPSJzdHJva2U6IzE4MTgxODtzdHJva2Utd2lkdGg6MTsiIHgxPSIxMjcyIiB4Mj0iMTA1NC43NSIgeTE9Ijk2OS4yODEzIiB5Mj0iOTY5LjI4MTMiLz48cG9seWdvbiBmaWxsPSIjMTgxODE4IiBwb2ludHM9IjEwNjQuNzUsOTY1LjI4MTMsMTA1NC43NSw5NjkuMjgxMywxMDY0Ljc1LDk3My4yODEzLDEwNjAuNzUsOTY5LjI4MTMiIHN0eWxlPSJzdHJva2U6IzE4MTgxODtzdHJva2Utd2lkdGg6MTsiLz48bGluZSBzdHlsZT0ic3Ryb2tlOiMxODE4MTg7c3Ryb2tlLXdpZHRoOjE7IiB4MT0iNTk3LjYyNSIgeDI9IjI3MCIgeTE9IjMxOC41MzEzIiB5Mj0iMzE4LjUzMTMiLz48bGluZSBzdHlsZT0ic3Ryb2tlOiMxODE4MTg7c3Ryb2tlLXdpZHRoOjE7IiB4MT0iMjcwIiB4Mj0iMjcwIiB5MT0iMzE4LjUzMTMiIHkyPSIzNDAuNTMxMyIvPjxwb2x5Z29uIGZpbGw9IiMxODE4MTgiIHBvaW50cz0iMjY2LDMzMC41MzEzLDI3MCwzNDAuNTMxMywyNzQsMzMwLjUzMTMsMjcwLDMzNC41MzEzIiBzdHlsZT0ic3Ryb2tlOiMxODE4MTg7c3Ryb2tlLXdpZHRoOjE7Ii8+PGxpbmUgc3R5bGU9InN0cm9rZTojMTgxODE4O3N0cm9rZS13aWR0aDoxOyIgeDE9IjcxNS4xMjUiIHgyPSIxMDQyLjc1IiB5MT0iMzE4LjUzMTMiIHkyPSIzMTguNTMxMyIvPjxsaW5lIHN0eWxlPSJzdHJva2U6IzE4MTgxODtzdHJva2Utd2lkdGg6MTsiIHgxPSIxMDQyLjc1IiB4Mj0iMTA0Mi43NSIgeTE9IjMxOC41MzEzIiB5Mj0iMzQwLjUzMTMiLz48cG9seWdvbiBmaWxsPSIjMTgxODE4IiBwb2ludHM9IjEwMzguNzUsMzMwLjUzMTMsMTA0Mi43NSwzNDAuNTMxMywxMDQ2Ljc1LDMzMC41MzEzLDEwNDIuNzUsMzM0LjUzMTMiIHN0eWxlPSJzdHJva2U6IzE4MTgxODtzdHJva2Utd2lkdGg6MTsiLz48bGluZSBzdHlsZT0ic3Ryb2tlOiMxODE4MTg7c3Ryb2tlLXdpZHRoOjE7IiB4MT0iMTA0Mi43NSIgeDI9IjEwNDIuNzUiIHkxPSI5ODEuMjgxMyIgeTI9Ijk5My4yODEzIi8+PGxpbmUgc3R5bGU9InN0cm9rZTojMTgxODE4O3N0cm9rZS13aWR0aDoxOyIgeDE9IjEwNDIuNzUiIHgyPSIzNjQuNjg3NSIgeTE9Ijk5My4yODEzIiB5Mj0iOTkzLjI4MTMiLz48bGluZSBzdHlsZT0ic3Ryb2tlOiMxODE4MTg7c3Ryb2tlLXdpZHRoOjE7IiB4MT0iNjU2LjM3NSIgeDI9IjY1Ni4zNzUiIHkxPSIyODYuNTMxMyIgeTI9IjMwNi41MzEzIi8+PHBvbHlnb24gZmlsbD0iIzE4MTgxOCIgcG9pbnRzPSI2NTIuMzc1LDI5Ni41MzEzLDY1Ni4zNzUsMzA2LjUzMTMsNjYwLjM3NSwyOTYuNTMxMyw2NTYuMzc1LDMwMC41MzEzIiBzdHlsZT0ic3Ryb2tlOiMxODE4MTg7c3Ryb2tlLXdpZHRoOjE7Ii8+PGxpbmUgc3R5bGU9InN0cm9rZTojMTgxODE4O3N0cm9rZS13aWR0aDoxOyIgeDE9IjI5Mi4xODc1IiB4Mj0iOTMiIHkxPSIyMzEuNjg3NSIgeTI9IjIzMS42ODc1Ii8+PGxpbmUgc3R5bGU9InN0cm9rZTojMTgxODE4O3N0cm9rZS13aWR0aDoxOyIgeDE9IjkzIiB4Mj0iOTMiIHkxPSIyMzEuNjg3NSIgeTI9IjI1My42ODc1Ii8+PHBvbHlnb24gZmlsbD0iIzE4MTgxOCIgcG9pbnRzPSI4OSwyNDMuNjg3NSw5MywyNTMuNjg3NSw5NywyNDMuNjg3NSw5MywyNDcuNjg3NSIgc3R5bGU9InN0cm9rZTojMTgxODE4O3N0cm9rZS13aWR0aDoxOyIvPjxsaW5lIHN0eWxlPSJzdHJva2U6IzE4MTgxODtzdHJva2Utd2lkdGg6MTsiIHgxPSI0MzcuMTg3NSIgeDI9IjY1Ni4zNzUiIHkxPSIyMzEuNjg3NSIgeTI9IjIzMS42ODc1Ii8+PGxpbmUgc3R5bGU9InN0cm9rZTojMTgxODE4O3N0cm9rZS13aWR0aDoxOyIgeDE9IjY1Ni4zNzUiIHgyPSI2NTYuMzc1IiB5MT0iMjMxLjY4NzUiIHkyPSIyNTMuNjg3NSIvPjxwb2x5Z29uIGZpbGw9IiMxODE4MTgiIHBvaW50cz0iNjUyLjM3NSwyNDMuNjg3NSw2NTYuMzc1LDI1My42ODc1LDY2MC4zNzUsMjQzLjY4NzUsNjU2LjM3NSwyNDcuNjg3NSIgc3R5bGU9InN0cm9rZTojMTgxODE4O3N0cm9rZS13aWR0aDoxOyIvPjxsaW5lIHN0eWxlPSJzdHJva2U6IzE4MTgxODtzdHJva2Utd2lkdGg6MTsiIHgxPSIzNjQuNjg3NSIgeDI9IjM2NC42ODc1IiB5MT0iMTk5LjY4NzUiIHkyPSIyMTkuNjg3NSIvPjxwb2x5Z29uIGZpbGw9IiMxODE4MTgiIHBvaW50cz0iMzYwLjY4NzUsMjA5LjY4NzUsMzY0LjY4NzUsMjE5LjY4NzUsMzY4LjY4NzUsMjA5LjY4NzUsMzY0LjY4NzUsMjEzLjY4NzUiIHN0eWxlPSJzdHJva2U6IzE4MTgxODtzdHJva2Utd2lkdGg6MTsiLz48IS0tU1JDPVtqTEoxUmptVzRCdHhBcU92VU1fZjhQVXJzZ1lEcjJYSWI0SlRON0FnQThwTlEzNWkwNnotbG1EdTdOa0Rlc3NhU2gwaVVDbnhDc3k2dnZkckhSNi1RUDNsdTFTQXdRMHM1WXVxLVpUWlR4LWJoaXE1U0NPUmgwZlBHdGFKVldkSlFONnowai1XWGw4NXRRZTBNa2p4bXFIMjItWDNHMFhINVFXU0dsYldVazI2Q3BxV0loRnRxY1ljTGVKSkdqUDVmQmZwcTNjcW1CZjB1b0xkN2RFYTZfRzlROHIyZVdFN3BiNnl3Z1hmMnd4WmQzUmhKZTRvTXRheTJXYlJ2MXd5V1NRcWNCUVREX2pKbFJTelhzT2pQTXpEMnEtRmNzU0dwQkRxZ0hTU2V5Q1ZQVldrZnRLR3IyRHdGRkNVc3hzbHRaNlJuaG0xTWFqVWoySVNSTjVxRTlRVDBrbWRXOVgwLTlhY0NQOFBuTGp5eFQzdmxDZnZyYW1CdWQ2RUIxRkw1RlR6djUyeUMzcUZmMkM4TUpDb1A5Yi1mMVRSOVhLU3FDZlFCakxyZWtXLWJjS2tQTTkybFlqY3E3b05kQXdYd0VDckQtM1ZMSVE3b3JHMlJWbkdYakxfcTFrZHh4bUNyZFVRTXNwOUxBWDlzY2Fwa3AyOXlLTVB5eVV5U2ZVZ1IwRnlKQ1dYeUJVbFM3TDYzX204Q3pSNzN1X1FicWplZk5PVmIzZkVmVEhSbTBFYmpHMkNldGNTdHVLSE5WSlpXcHh4SjBENUJMOFZjOUJxeGJlS09TSU9TYWJOVE93X2F2cXk3TU1XMVJzbGtSVmNfTnh3WXotX10tLT48L2c+PC9zdmc+;" parent="1" vertex="1">
            <mxGeometry x="-260" y="-100" width="1344" height="1005" as="geometry" />
          </mxCell>
        </UserObject>
      </root>
    </mxGraphModel>
  </diagram>
  <diagram id="UdJqQN8hGmBuoUd6BiQN" name="Register User">
    <mxGraphModel grid="1" page="1" gridSize="10" guides="1" tooltips="1" connect="1" arrows="1" fold="1" pageScale="1" pageWidth="827" pageHeight="1169" math="0" shadow="0">
      <root>
        <mxCell id="0" />
        <mxCell id="1" parent="0" />
        <UserObject label="" plantUmlData="{&quot;data&quot;:&quot;@startuml\nstart\n\n:Check if user is logged in;\n\n:Get user role;\nif (Is role ADMIN?) then (No)\n    :Redirect to insufficient permission page;\n    stop\nelse (Yes)\n    if (Is user staff?) then (Yes)\n        if (Is POST request?) then (Yes)\n            :Get form inputs (first name, last name, username, email, phone);\n\n            :Generate temporary password;\n            :Set role = OPERATOR;\n\n            :Check for duplicate username/email/phone;\n\n            if (Duplicates found?) then (Yes)\n                :Show error message about duplicates;\n                :Render register page;\n                stop\n            else (No)\n                :Create user account;\n                :Set phone number and role;\n                :Save user;\n                :Log user creation (Medium level);\n                :Send account creation email;\n                :Show success message;\n                :Render register page;\n                stop\n            endif\n\n        else (No)\n            :Render register page;\n        endif\n    else (No)\n        :Show permission error message;\n        :Render register page;\n        stop\n    endif\nendif\n\n@enduml\n&quot;,&quot;format&quot;:&quot;svg&quot;}" id="AjBZmzESRVC7aDx9b92m-1">
          <mxCell style="shape=image;noLabel=1;verticalAlign=top;aspect=fixed;imageAspect=0;image=data:image/svg+xml,PHN2ZyB4bWxucz0iaHR0cDovL3d3dy53My5vcmcvMjAwMC9zdmciIHhtbG5zOnhsaW5rPSJodHRwOi8vd3d3LnczLm9yZy8xOTk5L3hsaW5rIiBjb250ZW50U3R5bGVUeXBlPSJ0ZXh0L2NzcyIgZGF0YS1kaWFncmFtLXR5cGU9IkFDVElWSVRZIiBoZWlnaHQ9Ijk2MHB4IiBwcmVzZXJ2ZUFzcGVjdFJhdGlvPSJub25lIiBzdHlsZT0id2lkdGg6MTEyMHB4O2hlaWdodDo5NjBweDtiYWNrZ3JvdW5kOiNGRkZGRkY7IiB2ZXJzaW9uPSIxLjEiIHZpZXdCb3g9IjAgMCAxMTIwIDk2MCIgd2lkdGg9IjExMjBweCIgem9vbUFuZFBhbj0ibWFnbmlmeSI+PGRlZnMvPjxnPjxlbGxpcHNlIGN4PSI0ODAuNDM3NSIgY3k9IjIwIiBmaWxsPSIjMjIyMjIyIiByeD0iMTAiIHJ5PSIxMCIgc3R5bGU9InN0cm9rZTojMjIyMjIyO3N0cm9rZS13aWR0aDoxOyIvPjxyZWN0IGZpbGw9IiNGMUYxRjEiIGhlaWdodD0iMzIuODQzOCIgcng9IjEyLjUiIHJ5PSIxMi41IiBzdHlsZT0ic3Ryb2tlOiMxODE4MTg7c3Ryb2tlLXdpZHRoOjAuNTsiIHdpZHRoPSIxNzYiIHg9IjM5Mi40Mzc1IiB5PSI1MCIvPjx0ZXh0IGZpbGw9IiMwMDAwMDAiIGZvbnQtZmFtaWx5PSJzYW5zLXNlcmlmIiBmb250LXNpemU9IjEyIiBsZW5ndGhBZGp1c3Q9InNwYWNpbmciIHRleHRMZW5ndGg9IjE1NiIgeD0iNDAyLjQzNzUiIHk9IjcxLjM0MzgiPkNoZWNrIGlmIHVzZXIgaXMgbG9nZ2VkIGluPC90ZXh0PjxyZWN0IGZpbGw9IiNGMUYxRjEiIGhlaWdodD0iMzIuODQzOCIgcng9IjEyLjUiIHJ5PSIxMi41IiBzdHlsZT0ic3Ryb2tlOiMxODE4MTg7c3Ryb2tlLXdpZHRoOjAuNTsiIHdpZHRoPSI5OCIgeD0iNDMxLjQzNzUiIHk9IjEwMi44NDM4Ii8+PHRleHQgZmlsbD0iIzAwMDAwMCIgZm9udC1mYW1pbHk9InNhbnMtc2VyaWYiIGZvbnQtc2l6ZT0iMTIiIGxlbmd0aEFkanVzdD0ic3BhY2luZyIgdGV4dExlbmd0aD0iNzgiIHg9IjQ0MS40Mzc1IiB5PSIxMjQuMTg3NSI+R2V0IHVzZXIgcm9sZTwvdGV4dD48cG9seWdvbiBmaWxsPSIjRjFGMUYxIiBwb2ludHM9IjQ0MS45Mzc1LDE1NS42ODc1LDUxOC45Mzc1LDE1NS42ODc1LDUzMC45Mzc1LDE2Ny42ODc1LDUxOC45Mzc1LDE3OS42ODc1LDQ0MS45Mzc1LDE3OS42ODc1LDQyOS45Mzc1LDE2Ny42ODc1LDQ0MS45Mzc1LDE1NS42ODc1IiBzdHlsZT0ic3Ryb2tlOiMxODE4MTg7c3Ryb2tlLXdpZHRoOjAuNTsiLz48dGV4dCBmaWxsPSIjMDAwMDAwIiBmb250LWZhbWlseT0ic2Fucy1zZXJpZiIgZm9udC1zaXplPSIxMSIgbGVuZ3RoQWRqdXN0PSJzcGFjaW5nIiB0ZXh0TGVuZ3RoPSI3NyIgeD0iNDQxLjkzNzUiIHk9IjE3Mi4xOTkyIj5JcyByb2xlIEFETUlOPzwvdGV4dD48dGV4dCBmaWxsPSIjMDAwMDAwIiBmb250LWZhbWlseT0ic2Fucy1zZXJpZiIgZm9udC1zaXplPSIxMSIgbGVuZ3RoQWRqdXN0PSJzcGFjaW5nIiB0ZXh0TGVuZ3RoPSIxMSIgeD0iNDE4LjkzNzUiIHk9IjE2Ni4zMTI1Ij5ObzwvdGV4dD48dGV4dCBmaWxsPSIjMDAwMDAwIiBmb250LWZhbWlseT0ic2Fucy1zZXJpZiIgZm9udC1zaXplPSIxMSIgbGVuZ3RoQWRqdXN0PSJzcGFjaW5nIiB0ZXh0TGVuZ3RoPSIxNi41IiB4PSI1MzAuOTM3NSIgeT0iMTY2LjMxMjUiPlllczwvdGV4dD48cmVjdCBmaWxsPSIjRjFGMUYxIiBoZWlnaHQ9IjMyLjg0MzgiIHJ4PSIxMi41IiByeT0iMTIuNSIgc3R5bGU9InN0cm9rZTojMTgxODE4O3N0cm9rZS13aWR0aDowLjU7IiB3aWR0aD0iMjYwIiB4PSIxMSIgeT0iMTg5LjY4NzUiLz48dGV4dCBmaWxsPSIjMDAwMDAwIiBmb250LWZhbWlseT0ic2Fucy1zZXJpZiIgZm9udC1zaXplPSIxMiIgbGVuZ3RoQWRqdXN0PSJzcGFjaW5nIiB0ZXh0TGVuZ3RoPSIyNDAiIHg9IjIxIiB5PSIyMTEuMDMxMyI+UmVkaXJlY3QgdG8gaW5zdWZmaWNpZW50IHBlcm1pc3Npb24gcGFnZTwvdGV4dD48ZWxsaXBzZSBjeD0iMTQxIiBjeT0iMjY4LjUzMTMiIGZpbGw9Im5vbmUiIHJ4PSIxMSIgcnk9IjExIiBzdHlsZT0ic3Ryb2tlOiMyMjIyMjI7c3Ryb2tlLXdpZHRoOjE7Ii8+PGVsbGlwc2UgY3g9IjE0MSIgY3k9IjI2OC41MzEzIiBmaWxsPSIjMjIyMjIyIiByeD0iNiIgcnk9IjYiIHN0eWxlPSJzdHJva2U6IzIyMjIyMjtzdHJva2Utd2lkdGg6MTsiLz48cG9seWdvbiBmaWxsPSIjRjFGMUYxIiBwb2ludHM9IjgwNS4xMjUsMTg5LjY4NzUsODgyLjEyNSwxODkuNjg3NSw4OTQuMTI1LDIwMS42ODc1LDg4Mi4xMjUsMjEzLjY4NzUsODA1LjEyNSwyMTMuNjg3NSw3OTMuMTI1LDIwMS42ODc1LDgwNS4xMjUsMTg5LjY4NzUiIHN0eWxlPSJzdHJva2U6IzE4MTgxODtzdHJva2Utd2lkdGg6MC41OyIvPjx0ZXh0IGZpbGw9IiMwMDAwMDAiIGZvbnQtZmFtaWx5PSJzYW5zLXNlcmlmIiBmb250LXNpemU9IjExIiBsZW5ndGhBZGp1c3Q9InNwYWNpbmciIHRleHRMZW5ndGg9Ijc3IiB4PSI4MDUuMTI1IiB5PSIyMDYuMTk5MiI+SXMgdXNlciBzdGFmZj88L3RleHQ+PHRleHQgZmlsbD0iIzAwMDAwMCIgZm9udC1mYW1pbHk9InNhbnMtc2VyaWYiIGZvbnQtc2l6ZT0iMTEiIGxlbmd0aEFkanVzdD0ic3BhY2luZyIgdGV4dExlbmd0aD0iMTYuNSIgeD0iNzc2LjYyNSIgeT0iMjAwLjMxMjUiPlllczwvdGV4dD48dGV4dCBmaWxsPSIjMDAwMDAwIiBmb250LWZhbWlseT0ic2Fucy1zZXJpZiIgZm9udC1zaXplPSIxMSIgbGVuZ3RoQWRqdXN0PSJzcGFjaW5nIiB0ZXh0TGVuZ3RoPSIxMSIgeD0iODk0LjEyNSIgeT0iMjAwLjMxMjUiPk5vPC90ZXh0Pjxwb2x5Z29uIGZpbGw9IiNGMUYxRjEiIHBvaW50cz0iNjM1Ljc1LDIyMy42ODc1LDcyMy43NSwyMjMuNjg3NSw3MzUuNzUsMjM1LjY4NzUsNzIzLjc1LDI0Ny42ODc1LDYzNS43NSwyNDcuNjg3NSw2MjMuNzUsMjM1LjY4NzUsNjM1Ljc1LDIyMy42ODc1IiBzdHlsZT0ic3Ryb2tlOiMxODE4MTg7c3Ryb2tlLXdpZHRoOjAuNTsiLz48dGV4dCBmaWxsPSIjMDAwMDAwIiBmb250LWZhbWlseT0ic2Fucy1zZXJpZiIgZm9udC1zaXplPSIxMSIgbGVuZ3RoQWRqdXN0PSJzcGFjaW5nIiB0ZXh0TGVuZ3RoPSI4OCIgeD0iNjM1Ljc1IiB5PSIyNDAuMTk5MiI+SXMgUE9TVCByZXF1ZXN0PzwvdGV4dD48dGV4dCBmaWxsPSIjMDAwMDAwIiBmb250LWZhbWlseT0ic2Fucy1zZXJpZiIgZm9udC1zaXplPSIxMSIgbGVuZ3RoQWRqdXN0PSJzcGFjaW5nIiB0ZXh0TGVuZ3RoPSIxNi41IiB4PSI2MDcuMjUiIHk9IjIzNC4zMTI1Ij5ZZXM8L3RleHQ+PHRleHQgZmlsbD0iIzAwMDAwMCIgZm9udC1mYW1pbHk9InNhbnMtc2VyaWYiIGZvbnQtc2l6ZT0iMTEiIGxlbmd0aEFkanVzdD0ic3BhY2luZyIgdGV4dExlbmd0aD0iMTEiIHg9IjczNS43NSIgeT0iMjM0LjMxMjUiPk5vPC90ZXh0PjxyZWN0IGZpbGw9IiNGMUYxRjEiIGhlaWdodD0iMzIuODQzOCIgcng9IjEyLjUiIHJ5PSIxMi41IiBzdHlsZT0ic3Ryb2tlOiMxODE4MTg7c3Ryb2tlLXdpZHRoOjAuNTsiIHdpZHRoPSIzOTgiIHg9IjMxNy41IiB5PSIyNTcuNjg3NSIvPjx0ZXh0IGZpbGw9IiMwMDAwMDAiIGZvbnQtZmFtaWx5PSJzYW5zLXNlcmlmIiBmb250LXNpemU9IjEyIiBsZW5ndGhBZGp1c3Q9InNwYWNpbmciIHRleHRMZW5ndGg9IjM3OCIgeD0iMzI3LjUiIHk9IjI3OS4wMzEzIj5HZXQgZm9ybSBpbnB1dHMgKGZpcnN0IG5hbWUsIGxhc3QgbmFtZSwgdXNlcm5hbWUsIGVtYWlsLCBwaG9uZSk8L3RleHQ+PHJlY3QgZmlsbD0iI0YxRjFGMSIgaGVpZ2h0PSIzMi44NDM4IiByeD0iMTIuNSIgcnk9IjEyLjUiIHN0eWxlPSJzdHJva2U6IzE4MTgxODtzdHJva2Utd2lkdGg6MC41OyIgd2lkdGg9IjE4MiIgeD0iNDI1LjUiIHk9IjMyNS41MzEzIi8+PHRleHQgZmlsbD0iIzAwMDAwMCIgZm9udC1mYW1pbHk9InNhbnMtc2VyaWYiIGZvbnQtc2l6ZT0iMTIiIGxlbmd0aEFkanVzdD0ic3BhY2luZyIgdGV4dExlbmd0aD0iMTYyIiB4PSI0MzUuNSIgeT0iMzQ2Ljg3NSI+R2VuZXJhdGUgdGVtcG9yYXJ5IHBhc3N3b3JkPC90ZXh0PjxyZWN0IGZpbGw9IiNGMUYxRjEiIGhlaWdodD0iMzIuODQzOCIgcng9IjEyLjUiIHJ5PSIxMi41IiBzdHlsZT0ic3Ryb2tlOiMxODE4MTg7c3Ryb2tlLXdpZHRoOjAuNTsiIHdpZHRoPSIxMzQiIHg9IjQ0OS41IiB5PSIzOTMuMzc1Ii8+PHRleHQgZmlsbD0iIzAwMDAwMCIgZm9udC1mYW1pbHk9InNhbnMtc2VyaWYiIGZvbnQtc2l6ZT0iMTIiIGxlbmd0aEFkanVzdD0ic3BhY2luZyIgdGV4dExlbmd0aD0iMTE0IiB4PSI0NTkuNSIgeT0iNDE0LjcxODgiPlNldCByb2xlID0gT1BFUkFUT1I8L3RleHQ+PHJlY3QgZmlsbD0iI0YxRjFGMSIgaGVpZ2h0PSIzMi44NDM4IiByeD0iMTIuNSIgcnk9IjEyLjUiIHN0eWxlPSJzdHJva2U6IzE4MTgxODtzdHJva2Utd2lkdGg6MC41OyIgd2lkdGg9IjI2MCIgeD0iMzg2LjUiIHk9IjQ0Ni4yMTg4Ii8+PHRleHQgZmlsbD0iIzAwMDAwMCIgZm9udC1mYW1pbHk9InNhbnMtc2VyaWYiIGZvbnQtc2l6ZT0iMTIiIGxlbmd0aEFkanVzdD0ic3BhY2luZyIgdGV4dExlbmd0aD0iMjQwIiB4PSIzOTYuNSIgeT0iNDY3LjU2MjUiPkNoZWNrIGZvciBkdXBsaWNhdGUgdXNlcm5hbWUvZW1haWwvcGhvbmU8L3RleHQ+PHBvbHlnb24gZmlsbD0iI0YxRjFGMSIgcG9pbnRzPSI0NjkuNzUsNDk5LjA2MjUsNTYzLjI1LDQ5OS4wNjI1LDU3NS4yNSw1MTEuMDYyNSw1NjMuMjUsNTIzLjA2MjUsNDY5Ljc1LDUyMy4wNjI1LDQ1Ny43NSw1MTEuMDYyNSw0NjkuNzUsNDk5LjA2MjUiIHN0eWxlPSJzdHJva2U6IzE4MTgxODtzdHJva2Utd2lkdGg6MC41OyIvPjx0ZXh0IGZpbGw9IiMwMDAwMDAiIGZvbnQtZmFtaWx5PSJzYW5zLXNlcmlmIiBmb250LXNpemU9IjExIiBsZW5ndGhBZGp1c3Q9InNwYWNpbmciIHRleHRMZW5ndGg9IjkzLjUiIHg9IjQ2OS43NSIgeT0iNTE1LjU3NDIiPkR1cGxpY2F0ZXMgZm91bmQ/PC90ZXh0Pjx0ZXh0IGZpbGw9IiMwMDAwMDAiIGZvbnQtZmFtaWx5PSJzYW5zLXNlcmlmIiBmb250LXNpemU9IjExIiBsZW5ndGhBZGp1c3Q9InNwYWNpbmciIHRleHRMZW5ndGg9IjE2LjUiIHg9IjQ0MS4yNSIgeT0iNTA5LjY4NzUiPlllczwvdGV4dD48dGV4dCBmaWxsPSIjMDAwMDAwIiBmb250LWZhbWlseT0ic2Fucy1zZXJpZiIgZm9udC1zaXplPSIxMSIgbGVuZ3RoQWRqdXN0PSJzcGFjaW5nIiB0ZXh0TGVuZ3RoPSIxMSIgeD0iNTc1LjI1IiB5PSI1MDkuNjg3NSI+Tm88L3RleHQ+PHJlY3QgZmlsbD0iI0YxRjFGMSIgaGVpZ2h0PSIzMi44NDM4IiByeD0iMTIuNSIgcnk9IjEyLjUiIHN0eWxlPSJzdHJva2U6IzE4MTgxODtzdHJva2Utd2lkdGg6MC41OyIgd2lkdGg9IjIzMCIgeD0iMjgxIiB5PSI1MzMuMDYyNSIvPjx0ZXh0IGZpbGw9IiMwMDAwMDAiIGZvbnQtZmFtaWx5PSJzYW5zLXNlcmlmIiBmb250LXNpemU9IjEyIiBsZW5ndGhBZGp1c3Q9InNwYWNpbmciIHRleHRMZW5ndGg9IjIxMCIgeD0iMjkxIiB5PSI1NTQuNDA2MyI+U2hvdyBlcnJvciBtZXNzYWdlIGFib3V0IGR1cGxpY2F0ZXM8L3RleHQ+PHJlY3QgZmlsbD0iI0YxRjFGMSIgaGVpZ2h0PSIzMi44NDM4IiByeD0iMTIuNSIgcnk9IjEyLjUiIHN0eWxlPSJzdHJva2U6IzE4MTgxODtzdHJva2Utd2lkdGg6MC41OyIgd2lkdGg9IjE0MCIgeD0iMzI2IiB5PSI1ODUuOTA2MyIvPjx0ZXh0IGZpbGw9IiMwMDAwMDAiIGZvbnQtZmFtaWx5PSJzYW5zLXNlcmlmIiBmb250LXNpemU9IjEyIiBsZW5ndGhBZGp1c3Q9InNwYWNpbmciIHRleHRMZW5ndGg9IjEyMCIgeD0iMzM2IiB5PSI2MDcuMjUiPlJlbmRlciByZWdpc3RlciBwYWdlPC90ZXh0PjxlbGxpcHNlIGN4PSIzOTYiIGN5PSI2NDkuNzUiIGZpbGw9Im5vbmUiIHJ4PSIxMSIgcnk9IjExIiBzdHlsZT0ic3Ryb2tlOiMyMjIyMjI7c3Ryb2tlLXdpZHRoOjE7Ii8+PGVsbGlwc2UgY3g9IjM5NiIgY3k9IjY0OS43NSIgZmlsbD0iIzIyMjIyMiIgcng9IjYiIHJ5PSI2IiBzdHlsZT0ic3Ryb2tlOiMyMjIyMjI7c3Ryb2tlLXdpZHRoOjE7Ii8+PHJlY3QgZmlsbD0iI0YxRjFGMSIgaGVpZ2h0PSIzMi44NDM4IiByeD0iMTIuNSIgcnk9IjEyLjUiIHN0eWxlPSJzdHJva2U6IzE4MTgxODtzdHJva2Utd2lkdGg6MC41OyIgd2lkdGg9IjEzNCIgeD0iNTcwIiB5PSI1MzMuMDYyNSIvPjx0ZXh0IGZpbGw9IiMwMDAwMDAiIGZvbnQtZmFtaWx5PSJzYW5zLXNlcmlmIiBmb250LXNpemU9IjEyIiBsZW5ndGhBZGp1c3Q9InNwYWNpbmciIHRleHRMZW5ndGg9IjExNCIgeD0iNTgwIiB5PSI1NTQuNDA2MyI+Q3JlYXRlIHVzZXIgYWNjb3VudDwvdGV4dD48cmVjdCBmaWxsPSIjRjFGMUYxIiBoZWlnaHQ9IjMyLjg0MzgiIHJ4PSIxMi41IiByeT0iMTIuNSIgc3R5bGU9InN0cm9rZTojMTgxODE4O3N0cm9rZS13aWR0aDowLjU7IiB3aWR0aD0iMTcwIiB4PSI1NTIiIHk9IjU4NS45MDYzIi8+PHRleHQgZmlsbD0iIzAwMDAwMCIgZm9udC1mYW1pbHk9InNhbnMtc2VyaWYiIGZvbnQtc2l6ZT0iMTIiIGxlbmd0aEFkanVzdD0ic3BhY2luZyIgdGV4dExlbmd0aD0iMTUwIiB4PSI1NjIiIHk9IjYwNy4yNSI+U2V0IHBob25lIG51bWJlciBhbmQgcm9sZTwvdGV4dD48cmVjdCBmaWxsPSIjRjFGMUYxIiBoZWlnaHQ9IjMyLjg0MzgiIHJ4PSIxMi41IiByeT0iMTIuNSIgc3R5bGU9InN0cm9rZTojMTgxODE4O3N0cm9rZS13aWR0aDowLjU7IiB3aWR0aD0iNzQiIHg9IjYwMCIgeT0iNjM4Ljc1Ii8+PHRleHQgZmlsbD0iIzAwMDAwMCIgZm9udC1mYW1pbHk9InNhbnMtc2VyaWYiIGZvbnQtc2l6ZT0iMTIiIGxlbmd0aEFkanVzdD0ic3BhY2luZyIgdGV4dExlbmd0aD0iNTQiIHg9IjYxMCIgeT0iNjYwLjA5MzgiPlNhdmUgdXNlcjwvdGV4dD48cmVjdCBmaWxsPSIjRjFGMUYxIiBoZWlnaHQ9IjMyLjg0MzgiIHJ4PSIxMi41IiByeT0iMTIuNSIgc3R5bGU9InN0cm9rZTojMTgxODE4O3N0cm9rZS13aWR0aDowLjU7IiB3aWR0aD0iMjEyIiB4PSI1MzEiIHk9IjY5MS41OTM4Ii8+PHRleHQgZmlsbD0iIzAwMDAwMCIgZm9udC1mYW1pbHk9InNhbnMtc2VyaWYiIGZvbnQtc2l6ZT0iMTIiIGxlbmd0aEFkanVzdD0ic3BhY2luZyIgdGV4dExlbmd0aD0iMTkyIiB4PSI1NDEiIHk9IjcxMi45Mzc1Ij5Mb2cgdXNlciBjcmVhdGlvbiAoTWVkaXVtIGxldmVsKTwvdGV4dD48cmVjdCBmaWxsPSIjRjFGMUYxIiBoZWlnaHQ9IjMyLjg0MzgiIHJ4PSIxMi41IiByeT0iMTIuNSIgc3R5bGU9InN0cm9rZTojMTgxODE4O3N0cm9rZS13aWR0aDowLjU7IiB3aWR0aD0iMTgyIiB4PSI1NDYiIHk9Ijc0NC40Mzc1Ii8+PHRleHQgZmlsbD0iIzAwMDAwMCIgZm9udC1mYW1pbHk9InNhbnMtc2VyaWYiIGZvbnQtc2l6ZT0iMTIiIGxlbmd0aEFkanVzdD0ic3BhY2luZyIgdGV4dExlbmd0aD0iMTYyIiB4PSI1NTYiIHk9Ijc2NS43ODEzIj5TZW5kIGFjY291bnQgY3JlYXRpb24gZW1haWw8L3RleHQ+PHJlY3QgZmlsbD0iI0YxRjFGMSIgaGVpZ2h0PSIzMi44NDM4IiByeD0iMTIuNSIgcnk9IjEyLjUiIHN0eWxlPSJzdHJva2U6IzE4MTgxODtzdHJva2Utd2lkdGg6MC41OyIgd2lkdGg9IjE0MCIgeD0iNTY3IiB5PSI3OTcuMjgxMyIvPjx0ZXh0IGZpbGw9IiMwMDAwMDAiIGZvbnQtZmFtaWx5PSJzYW5zLXNlcmlmIiBmb250LXNpemU9IjEyIiBsZW5ndGhBZGp1c3Q9InNwYWNpbmciIHRleHRMZW5ndGg9IjEyMCIgeD0iNTc3IiB5PSI4MTguNjI1Ij5TaG93IHN1Y2Nlc3MgbWVzc2FnZTwvdGV4dD48cmVjdCBmaWxsPSIjRjFGMUYxIiBoZWlnaHQ9IjMyLjg0MzgiIHJ4PSIxMi41IiByeT0iMTIuNSIgc3R5bGU9InN0cm9rZTojMTgxODE4O3N0cm9rZS13aWR0aDowLjU7IiB3aWR0aD0iMTQwIiB4PSI1NjciIHk9Ijg1MC4xMjUiLz48dGV4dCBmaWxsPSIjMDAwMDAwIiBmb250LWZhbWlseT0ic2Fucy1zZXJpZiIgZm9udC1zaXplPSIxMiIgbGVuZ3RoQWRqdXN0PSJzcGFjaW5nIiB0ZXh0TGVuZ3RoPSIxMjAiIHg9IjU3NyIgeT0iODcxLjQ2ODgiPlJlbmRlciByZWdpc3RlciBwYWdlPC90ZXh0PjxlbGxpcHNlIGN4PSI2MzciIGN5PSI5MTMuOTY4OCIgZmlsbD0ibm9uZSIgcng9IjExIiByeT0iMTEiIHN0eWxlPSJzdHJva2U6IzIyMjIyMjtzdHJva2Utd2lkdGg6MTsiLz48ZWxsaXBzZSBjeD0iNjM3IiBjeT0iOTEzLjk2ODgiIGZpbGw9IiMyMjIyMjIiIHJ4PSI2IiByeT0iNiIgc3R5bGU9InN0cm9rZTojMjIyMjIyO3N0cm9rZS13aWR0aDoxOyIvPjxyZWN0IGZpbGw9IiNGMUYxRjEiIGhlaWdodD0iMzIuODQzOCIgcng9IjEyLjUiIHJ5PSIxMi41IiBzdHlsZT0ic3Ryb2tlOiMxODE4MTg7c3Ryb2tlLXdpZHRoOjAuNTsiIHdpZHRoPSIxNDAiIHg9Ijc1Ni43NSIgeT0iMjU3LjY4NzUiLz48dGV4dCBmaWxsPSIjMDAwMDAwIiBmb250LWZhbWlseT0ic2Fucy1zZXJpZiIgZm9udC1zaXplPSIxMiIgbGVuZ3RoQWRqdXN0PSJzcGFjaW5nIiB0ZXh0TGVuZ3RoPSIxMjAiIHg9Ijc2Ni43NSIgeT0iMjc5LjAzMTMiPlJlbmRlciByZWdpc3RlciBwYWdlPC90ZXh0PjxyZWN0IGZpbGw9IiNGMUYxRjEiIGhlaWdodD0iMzIuODQzOCIgcng9IjEyLjUiIHJ5PSIxMi41IiBzdHlsZT0ic3Ryb2tlOiMxODE4MTg7c3Ryb2tlLXdpZHRoOjAuNTsiIHdpZHRoPSIxOTQiIHg9IjkxNS4xMjUiIHk9IjIyMy42ODc1Ii8+PHRleHQgZmlsbD0iIzAwMDAwMCIgZm9udC1mYW1pbHk9InNhbnMtc2VyaWYiIGZvbnQtc2l6ZT0iMTIiIGxlbmd0aEFkanVzdD0ic3BhY2luZyIgdGV4dExlbmd0aD0iMTc0IiB4PSI5MjUuMTI1IiB5PSIyNDUuMDMxMyI+U2hvdyBwZXJtaXNzaW9uIGVycm9yIG1lc3NhZ2U8L3RleHQ+PHJlY3QgZmlsbD0iI0YxRjFGMSIgaGVpZ2h0PSIzMi44NDM4IiByeD0iMTIuNSIgcnk9IjEyLjUiIHN0eWxlPSJzdHJva2U6IzE4MTgxODtzdHJva2Utd2lkdGg6MC41OyIgd2lkdGg9IjE0MCIgeD0iOTQyLjEyNSIgeT0iMjkxLjUzMTMiLz48dGV4dCBmaWxsPSIjMDAwMDAwIiBmb250LWZhbWlseT0ic2Fucy1zZXJpZiIgZm9udC1zaXplPSIxMiIgbGVuZ3RoQWRqdXN0PSJzcGFjaW5nIiB0ZXh0TGVuZ3RoPSIxMjAiIHg9Ijk1Mi4xMjUiIHk9IjMxMi44NzUiPlJlbmRlciByZWdpc3RlciBwYWdlPC90ZXh0PjxlbGxpcHNlIGN4PSIxMDEyLjEyNSIgY3k9IjM3MC4zNzUiIGZpbGw9Im5vbmUiIHJ4PSIxMSIgcnk9IjExIiBzdHlsZT0ic3Ryb2tlOiMyMjIyMjI7c3Ryb2tlLXdpZHRoOjE7Ii8+PGVsbGlwc2UgY3g9IjEwMTIuMTI1IiBjeT0iMzcwLjM3NSIgZmlsbD0iIzIyMjIyMiIgcng9IjYiIHJ5PSI2IiBzdHlsZT0ic3Ryb2tlOiMyMjIyMjI7c3Ryb2tlLXdpZHRoOjE7Ii8+PGxpbmUgc3R5bGU9InN0cm9rZTojMTgxODE4O3N0cm9rZS13aWR0aDoxOyIgeDE9IjQ4MC40Mzc1IiB4Mj0iNDgwLjQzNzUiIHkxPSIzMCIgeTI9IjUwIi8+PHBvbHlnb24gZmlsbD0iIzE4MTgxOCIgcG9pbnRzPSI0NzYuNDM3NSw0MCw0ODAuNDM3NSw1MCw0ODQuNDM3NSw0MCw0ODAuNDM3NSw0NCIgc3R5bGU9InN0cm9rZTojMTgxODE4O3N0cm9rZS13aWR0aDoxOyIvPjxsaW5lIHN0eWxlPSJzdHJva2U6IzE4MTgxODtzdHJva2Utd2lkdGg6MTsiIHgxPSI0ODAuNDM3NSIgeDI9IjQ4MC40Mzc1IiB5MT0iODIuODQzOCIgeTI9IjEwMi44NDM4Ii8+PHBvbHlnb24gZmlsbD0iIzE4MTgxOCIgcG9pbnRzPSI0NzYuNDM3NSw5Mi44NDM4LDQ4MC40Mzc1LDEwMi44NDM4LDQ4NC40Mzc1LDkyLjg0MzgsNDgwLjQzNzUsOTYuODQzOCIgc3R5bGU9InN0cm9rZTojMTgxODE4O3N0cm9rZS13aWR0aDoxOyIvPjxsaW5lIHN0eWxlPSJzdHJva2U6IzE4MTgxODtzdHJva2Utd2lkdGg6MTsiIHgxPSIxNDEiIHgyPSIxNDEiIHkxPSIyMjIuNTMxMyIgeTI9IjI1Ny41MzEzIi8+PHBvbHlnb24gZmlsbD0iIzE4MTgxOCIgcG9pbnRzPSIxMzcsMjQ3LjUzMTMsMTQxLDI1Ny41MzEzLDE0NSwyNDcuNTMxMywxNDEsMjUxLjUzMTMiIHN0eWxlPSJzdHJva2U6IzE4MTgxODtzdHJva2Utd2lkdGg6MTsiLz48bGluZSBzdHlsZT0ic3Ryb2tlOiMxODE4MTg7c3Ryb2tlLXdpZHRoOjE7IiB4MT0iNTE2LjUiIHgyPSI1MTYuNSIgeTE9IjI5MC41MzEzIiB5Mj0iMzI1LjUzMTMiLz48cG9seWdvbiBmaWxsPSIjMTgxODE4IiBwb2ludHM9IjUxMi41LDMxNS41MzEzLDUxNi41LDMyNS41MzEzLDUyMC41LDMxNS41MzEzLDUxNi41LDMxOS41MzEzIiBzdHlsZT0ic3Ryb2tlOiMxODE4MTg7c3Ryb2tlLXdpZHRoOjE7Ii8+PGxpbmUgc3R5bGU9InN0cm9rZTojMTgxODE4O3N0cm9rZS13aWR0aDoxOyIgeDE9IjUxNi41IiB4Mj0iNTE2LjUiIHkxPSIzNTguMzc1IiB5Mj0iMzkzLjM3NSIvPjxwb2x5Z29uIGZpbGw9IiMxODE4MTgiIHBvaW50cz0iNTEyLjUsMzgzLjM3NSw1MTYuNSwzOTMuMzc1LDUyMC41LDM4My4zNzUsNTE2LjUsMzg3LjM3NSIgc3R5bGU9InN0cm9rZTojMTgxODE4O3N0cm9rZS13aWR0aDoxOyIvPjxsaW5lIHN0eWxlPSJzdHJva2U6IzE4MTgxODtzdHJva2Utd2lkdGg6MTsiIHgxPSI1MTYuNSIgeDI9IjUxNi41IiB5MT0iNDI2LjIxODgiIHkyPSI0NDYuMjE4OCIvPjxwb2x5Z29uIGZpbGw9IiMxODE4MTgiIHBvaW50cz0iNTEyLjUsNDM2LjIxODgsNTE2LjUsNDQ2LjIxODgsNTIwLjUsNDM2LjIxODgsNTE2LjUsNDQwLjIxODgiIHN0eWxlPSJzdHJva2U6IzE4MTgxODtzdHJva2Utd2lkdGg6MTsiLz48bGluZSBzdHlsZT0ic3Ryb2tlOiMxODE4MTg7c3Ryb2tlLXdpZHRoOjE7IiB4MT0iMzk2IiB4Mj0iMzk2IiB5MT0iNTY1LjkwNjMiIHkyPSI1ODUuOTA2MyIvPjxwb2x5Z29uIGZpbGw9IiMxODE4MTgiIHBvaW50cz0iMzkyLDU3NS45MDYzLDM5Niw1ODUuOTA2Myw0MDAsNTc1LjkwNjMsMzk2LDU3OS45MDYzIiBzdHlsZT0ic3Ryb2tlOiMxODE4MTg7c3Ryb2tlLXdpZHRoOjE7Ii8+PGxpbmUgc3R5bGU9InN0cm9rZTojMTgxODE4O3N0cm9rZS13aWR0aDoxOyIgeDE9IjM5NiIgeDI9IjM5NiIgeTE9IjYxOC43NSIgeTI9IjYzOC43NSIvPjxwb2x5Z29uIGZpbGw9IiMxODE4MTgiIHBvaW50cz0iMzkyLDYyOC43NSwzOTYsNjM4Ljc1LDQwMCw2MjguNzUsMzk2LDYzMi43NSIgc3R5bGU9InN0cm9rZTojMTgxODE4O3N0cm9rZS13aWR0aDoxOyIvPjxsaW5lIHN0eWxlPSJzdHJva2U6IzE4MTgxODtzdHJva2Utd2lkdGg6MTsiIHgxPSI2MzciIHgyPSI2MzciIHkxPSI1NjUuOTA2MyIgeTI9IjU4NS45MDYzIi8+PHBvbHlnb24gZmlsbD0iIzE4MTgxOCIgcG9pbnRzPSI2MzMsNTc1LjkwNjMsNjM3LDU4NS45MDYzLDY0MSw1NzUuOTA2Myw2MzcsNTc5LjkwNjMiIHN0eWxlPSJzdHJva2U6IzE4MTgxODtzdHJva2Utd2lkdGg6MTsiLz48bGluZSBzdHlsZT0ic3Ryb2tlOiMxODE4MTg7c3Ryb2tlLXdpZHRoOjE7IiB4MT0iNjM3IiB4Mj0iNjM3IiB5MT0iNjE4Ljc1IiB5Mj0iNjM4Ljc1Ii8+PHBvbHlnb24gZmlsbD0iIzE4MTgxOCIgcG9pbnRzPSI2MzMsNjI4Ljc1LDYzNyw2MzguNzUsNjQxLDYyOC43NSw2MzcsNjMyLjc1IiBzdHlsZT0ic3Ryb2tlOiMxODE4MTg7c3Ryb2tlLXdpZHRoOjE7Ii8+PGxpbmUgc3R5bGU9InN0cm9rZTojMTgxODE4O3N0cm9rZS13aWR0aDoxOyIgeDE9IjYzNyIgeDI9IjYzNyIgeTE9IjY3MS41OTM4IiB5Mj0iNjkxLjU5MzgiLz48cG9seWdvbiBmaWxsPSIjMTgxODE4IiBwb2ludHM9IjYzMyw2ODEuNTkzOCw2MzcsNjkxLjU5MzgsNjQxLDY4MS41OTM4LDYzNyw2ODUuNTkzOCIgc3R5bGU9InN0cm9rZTojMTgxODE4O3N0cm9rZS13aWR0aDoxOyIvPjxsaW5lIHN0eWxlPSJzdHJva2U6IzE4MTgxODtzdHJva2Utd2lkdGg6MTsiIHgxPSI2MzciIHgyPSI2MzciIHkxPSI3MjQuNDM3NSIgeTI9Ijc0NC40Mzc1Ii8+PHBvbHlnb24gZmlsbD0iIzE4MTgxOCIgcG9pbnRzPSI2MzMsNzM0LjQzNzUsNjM3LDc0NC40Mzc1LDY0MSw3MzQuNDM3NSw2MzcsNzM4LjQzNzUiIHN0eWxlPSJzdHJva2U6IzE4MTgxODtzdHJva2Utd2lkdGg6MTsiLz48bGluZSBzdHlsZT0ic3Ryb2tlOiMxODE4MTg7c3Ryb2tlLXdpZHRoOjE7IiB4MT0iNjM3IiB4Mj0iNjM3IiB5MT0iNzc3LjI4MTMiIHkyPSI3OTcuMjgxMyIvPjxwb2x5Z29uIGZpbGw9IiMxODE4MTgiIHBvaW50cz0iNjMzLDc4Ny4yODEzLDYzNyw3OTcuMjgxMyw2NDEsNzg3LjI4MTMsNjM3LDc5MS4yODEzIiBzdHlsZT0ic3Ryb2tlOiMxODE4MTg7c3Ryb2tlLXdpZHRoOjE7Ii8+PGxpbmUgc3R5bGU9InN0cm9rZTojMTgxODE4O3N0cm9rZS13aWR0aDoxOyIgeDE9IjYzNyIgeDI9IjYzNyIgeTE9IjgzMC4xMjUiIHkyPSI4NTAuMTI1Ii8+PHBvbHlnb24gZmlsbD0iIzE4MTgxOCIgcG9pbnRzPSI2MzMsODQwLjEyNSw2MzcsODUwLjEyNSw2NDEsODQwLjEyNSw2MzcsODQ0LjEyNSIgc3R5bGU9InN0cm9rZTojMTgxODE4O3N0cm9rZS13aWR0aDoxOyIvPjxsaW5lIHN0eWxlPSJzdHJva2U6IzE4MTgxODtzdHJva2Utd2lkdGg6MTsiIHgxPSI2MzciIHgyPSI2MzciIHkxPSI4ODIuOTY4OCIgeTI9IjkwMi45Njg4Ii8+PHBvbHlnb24gZmlsbD0iIzE4MTgxOCIgcG9pbnRzPSI2MzMsODkyLjk2ODgsNjM3LDkwMi45Njg4LDY0MSw4OTIuOTY4OCw2MzcsODk2Ljk2ODgiIHN0eWxlPSJzdHJva2U6IzE4MTgxODtzdHJva2Utd2lkdGg6MTsiLz48bGluZSBzdHlsZT0ic3Ryb2tlOiMxODE4MTg7c3Ryb2tlLXdpZHRoOjE7IiB4MT0iNDU3Ljc1IiB4Mj0iMzk2IiB5MT0iNTExLjA2MjUiIHkyPSI1MTEuMDYyNSIvPjxsaW5lIHN0eWxlPSJzdHJva2U6IzE4MTgxODtzdHJva2Utd2lkdGg6MTsiIHgxPSIzOTYiIHgyPSIzOTYiIHkxPSI1MTEuMDYyNSIgeTI9IjUzMy4wNjI1Ii8+PHBvbHlnb24gZmlsbD0iIzE4MTgxOCIgcG9pbnRzPSIzOTIsNTIzLjA2MjUsMzk2LDUzMy4wNjI1LDQwMCw1MjMuMDYyNSwzOTYsNTI3LjA2MjUiIHN0eWxlPSJzdHJva2U6IzE4MTgxODtzdHJva2Utd2lkdGg6MTsiLz48bGluZSBzdHlsZT0ic3Ryb2tlOiMxODE4MTg7c3Ryb2tlLXdpZHRoOjE7IiB4MT0iNTc1LjI1IiB4Mj0iNjM3IiB5MT0iNTExLjA2MjUiIHkyPSI1MTEuMDYyNSIvPjxsaW5lIHN0eWxlPSJzdHJva2U6IzE4MTgxODtzdHJva2Utd2lkdGg6MTsiIHgxPSI2MzciIHgyPSI2MzciIHkxPSI1MTEuMDYyNSIgeTI9IjUzMy4wNjI1Ii8+PHBvbHlnb24gZmlsbD0iIzE4MTgxOCIgcG9pbnRzPSI2MzMsNTIzLjA2MjUsNjM3LDUzMy4wNjI1LDY0MSw1MjMuMDYyNSw2MzcsNTI3LjA2MjUiIHN0eWxlPSJzdHJva2U6IzE4MTgxODtzdHJva2Utd2lkdGg6MTsiLz48bGluZSBzdHlsZT0ic3Ryb2tlOiMxODE4MTg7c3Ryb2tlLXdpZHRoOjE7IiB4MT0iNTE2LjUiIHgyPSI1MTYuNSIgeTE9IjQ3OS4wNjI1IiB5Mj0iNDk5LjA2MjUiLz48cG9seWdvbiBmaWxsPSIjMTgxODE4IiBwb2ludHM9IjUxMi41LDQ4OS4wNjI1LDUxNi41LDQ5OS4wNjI1LDUyMC41LDQ4OS4wNjI1LDUxNi41LDQ5My4wNjI1IiBzdHlsZT0ic3Ryb2tlOiMxODE4MTg7c3Ryb2tlLXdpZHRoOjE7Ii8+PGxpbmUgc3R5bGU9InN0cm9rZTojMTgxODE4O3N0cm9rZS13aWR0aDoxOyIgeDE9IjYyMy43NSIgeDI9IjUxNi41IiB5MT0iMjM1LjY4NzUiIHkyPSIyMzUuNjg3NSIvPjxsaW5lIHN0eWxlPSJzdHJva2U6IzE4MTgxODtzdHJva2Utd2lkdGg6MTsiIHgxPSI1MTYuNSIgeDI9IjUxNi41IiB5MT0iMjM1LjY4NzUiIHkyPSIyNTcuNjg3NSIvPjxwb2x5Z29uIGZpbGw9IiMxODE4MTgiIHBvaW50cz0iNTEyLjUsMjQ3LjY4NzUsNTE2LjUsMjU3LjY4NzUsNTIwLjUsMjQ3LjY4NzUsNTE2LjUsMjUxLjY4NzUiIHN0eWxlPSJzdHJva2U6IzE4MTgxODtzdHJva2Utd2lkdGg6MTsiLz48bGluZSBzdHlsZT0ic3Ryb2tlOiMxODE4MTg7c3Ryb2tlLXdpZHRoOjE7IiB4MT0iNzM1Ljc1IiB4Mj0iODI2Ljc1IiB5MT0iMjM1LjY4NzUiIHkyPSIyMzUuNjg3NSIvPjxsaW5lIHN0eWxlPSJzdHJva2U6IzE4MTgxODtzdHJva2Utd2lkdGg6MTsiIHgxPSI4MjYuNzUiIHgyPSI4MjYuNzUiIHkxPSIyMzUuNjg3NSIgeTI9IjI1Ny42ODc1Ii8+PHBvbHlnb24gZmlsbD0iIzE4MTgxOCIgcG9pbnRzPSI4MjIuNzUsMjQ3LjY4NzUsODI2Ljc1LDI1Ny42ODc1LDgzMC43NSwyNDcuNjg3NSw4MjYuNzUsMjUxLjY4NzUiIHN0eWxlPSJzdHJva2U6IzE4MTgxODtzdHJva2Utd2lkdGg6MTsiLz48bGluZSBzdHlsZT0ic3Ryb2tlOiMxODE4MTg7c3Ryb2tlLXdpZHRoOjE7IiB4MT0iODI2Ljc1IiB4Mj0iODI2Ljc1IiB5MT0iMjkwLjUzMTMiIHkyPSI5NDguOTY4OCIvPjxsaW5lIHN0eWxlPSJzdHJva2U6IzE4MTgxODtzdHJva2Utd2lkdGg6MTsiIHgxPSI4MjYuNzUiIHgyPSI0ODAuNDM3NSIgeTE9Ijk0OC45Njg4IiB5Mj0iOTQ4Ljk2ODgiLz48bGluZSBzdHlsZT0ic3Ryb2tlOiMxODE4MTg7c3Ryb2tlLXdpZHRoOjE7IiB4MT0iMTAxMi4xMjUiIHgyPSIxMDEyLjEyNSIgeTE9IjI1Ni41MzEzIiB5Mj0iMjkxLjUzMTMiLz48cG9seWdvbiBmaWxsPSIjMTgxODE4IiBwb2ludHM9IjEwMDguMTI1LDI4MS41MzEzLDEwMTIuMTI1LDI5MS41MzEzLDEwMTYuMTI1LDI4MS41MzEzLDEwMTIuMTI1LDI4NS41MzEzIiBzdHlsZT0ic3Ryb2tlOiMxODE4MTg7c3Ryb2tlLXdpZHRoOjE7Ii8+PGxpbmUgc3R5bGU9InN0cm9rZTojMTgxODE4O3N0cm9rZS13aWR0aDoxOyIgeDE9IjEwMTIuMTI1IiB4Mj0iMTAxMi4xMjUiIHkxPSIzMjQuMzc1IiB5Mj0iMzU5LjM3NSIvPjxwb2x5Z29uIGZpbGw9IiMxODE4MTgiIHBvaW50cz0iMTAwOC4xMjUsMzQ5LjM3NSwxMDEyLjEyNSwzNTkuMzc1LDEwMTYuMTI1LDM0OS4zNzUsMTAxMi4xMjUsMzUzLjM3NSIgc3R5bGU9InN0cm9rZTojMTgxODE4O3N0cm9rZS13aWR0aDoxOyIvPjxsaW5lIHN0eWxlPSJzdHJva2U6IzE4MTgxODtzdHJva2Utd2lkdGg6MTsiIHgxPSI3OTMuMTI1IiB4Mj0iNjc5Ljc1IiB5MT0iMjAxLjY4NzUiIHkyPSIyMDEuNjg3NSIvPjxsaW5lIHN0eWxlPSJzdHJva2U6IzE4MTgxODtzdHJva2Utd2lkdGg6MTsiIHgxPSI2NzkuNzUiIHgyPSI2NzkuNzUiIHkxPSIyMDEuNjg3NSIgeTI9IjIyMy42ODc1Ii8+PHBvbHlnb24gZmlsbD0iIzE4MTgxOCIgcG9pbnRzPSI2NzUuNzUsMjEzLjY4NzUsNjc5Ljc1LDIyMy42ODc1LDY4My43NSwyMTMuNjg3NSw2NzkuNzUsMjE3LjY4NzUiIHN0eWxlPSJzdHJva2U6IzE4MTgxODtzdHJva2Utd2lkdGg6MTsiLz48bGluZSBzdHlsZT0ic3Ryb2tlOiMxODE4MTg7c3Ryb2tlLXdpZHRoOjE7IiB4MT0iODk0LjEyNSIgeDI9IjEwMTIuMTI1IiB5MT0iMjAxLjY4NzUiIHkyPSIyMDEuNjg3NSIvPjxsaW5lIHN0eWxlPSJzdHJva2U6IzE4MTgxODtzdHJva2Utd2lkdGg6MTsiIHgxPSIxMDEyLjEyNSIgeDI9IjEwMTIuMTI1IiB5MT0iMjAxLjY4NzUiIHkyPSIyMjMuNjg3NSIvPjxwb2x5Z29uIGZpbGw9IiMxODE4MTgiIHBvaW50cz0iMTAwOC4xMjUsMjEzLjY4NzUsMTAxMi4xMjUsMjIzLjY4NzUsMTAxNi4xMjUsMjEzLjY4NzUsMTAxMi4xMjUsMjE3LjY4NzUiIHN0eWxlPSJzdHJva2U6IzE4MTgxODtzdHJva2Utd2lkdGg6MTsiLz48bGluZSBzdHlsZT0ic3Ryb2tlOiMxODE4MTg7c3Ryb2tlLXdpZHRoOjE7IiB4MT0iNDI5LjkzNzUiIHgyPSIxNDEiIHkxPSIxNjcuNjg3NSIgeTI9IjE2Ny42ODc1Ii8+PGxpbmUgc3R5bGU9InN0cm9rZTojMTgxODE4O3N0cm9rZS13aWR0aDoxOyIgeDE9IjE0MSIgeDI9IjE0MSIgeTE9IjE2Ny42ODc1IiB5Mj0iMTg5LjY4NzUiLz48cG9seWdvbiBmaWxsPSIjMTgxODE4IiBwb2ludHM9IjEzNywxNzkuNjg3NSwxNDEsMTg5LjY4NzUsMTQ1LDE3OS42ODc1LDE0MSwxODMuNjg3NSIgc3R5bGU9InN0cm9rZTojMTgxODE4O3N0cm9rZS13aWR0aDoxOyIvPjxsaW5lIHN0eWxlPSJzdHJva2U6IzE4MTgxODtzdHJva2Utd2lkdGg6MTsiIHgxPSI1MzAuOTM3NSIgeDI9Ijg0My42MjUiIHkxPSIxNjcuNjg3NSIgeTI9IjE2Ny42ODc1Ii8+PGxpbmUgc3R5bGU9InN0cm9rZTojMTgxODE4O3N0cm9rZS13aWR0aDoxOyIgeDE9Ijg0My42MjUiIHgyPSI4NDMuNjI1IiB5MT0iMTY3LjY4NzUiIHkyPSIxODkuNjg3NSIvPjxwb2x5Z29uIGZpbGw9IiMxODE4MTgiIHBvaW50cz0iODM5LjYyNSwxNzkuNjg3NSw4NDMuNjI1LDE4OS42ODc1LDg0Ny42MjUsMTc5LjY4NzUsODQzLjYyNSwxODMuNjg3NSIgc3R5bGU9InN0cm9rZTojMTgxODE4O3N0cm9rZS13aWR0aDoxOyIvPjxsaW5lIHN0eWxlPSJzdHJva2U6IzE4MTgxODtzdHJva2Utd2lkdGg6MTsiIHgxPSI0ODAuNDM3NSIgeDI9IjQ4MC40Mzc1IiB5MT0iMTM1LjY4NzUiIHkyPSIxNTUuNjg3NSIvPjxwb2x5Z29uIGZpbGw9IiMxODE4MTgiIHBvaW50cz0iNDc2LjQzNzUsMTQ1LjY4NzUsNDgwLjQzNzUsMTU1LjY4NzUsNDg0LjQzNzUsMTQ1LjY4NzUsNDgwLjQzNzUsMTQ5LjY4NzUiIHN0eWxlPSJzdHJva2U6IzE4MTgxODtzdHJva2Utd2lkdGg6MTsiLz48IS0tU1JDPVtoTEYxSmlDbTNCdHRBdHBpOTJKa0wwV1hHNldJQzNJdVMwb2ZzcU1xSU9hVDQ3LUZhd3BoRGVndXE0RUxEU19sRkp6eG5DZnBLUG5UUkwyX1dNYVc0N2VtMTlyaE13cDFzNGZrUnY3cFhOU1RMZU4wb1lNYjd0MXZWUnp5azVXMFJ6MTItVTBNMVNYcGppUlFVREdDeDhJM0dqQ09SVDBvM0VYeEdzSVNYSzZyR1hSWG42dWVpMkU0eVdLZktzbjVhWW9uUWZnVG8wd28xdGpTRkpzM25fVTBuRkYwUDJpc3FaWlZZd1NYQzQ3UDY0eUNMbEx1MGZ0UTdRRGdGYzZsSjdTMm15UFBONFdNSHRHTWxNODRuZHZtTmxhbFFPaGVxX2N3RWFHLVlOM0F3bm5NWnBWaG8tVkwtZldpWnEzU0dIczZwa1o4RV9ldUpKUEVhdWtaa1haMHpMWDBLWHppX05pMnNTcDZWRzl3QnI4ejRpYU9HQnN3bTlDbUxKLWhyY1poazBCTzZjOHZKRUZSVno4ZXpwX2FpT3dCU1RZbm54NTlLNWdCU3Z4SFpUNmJuaTY2X1pMMlJSclRuOXpPelA3dlBreGtOOWtiVDlJRDJyWlVvdlE2N1poeW02dW5Bb3JJTXNUSk1QZjV6S2tpNUJJTUpDVFdfcDU3TXZqYzZscnloNy1HUHV4dnljbl94LXp2aTIwSm5ueUlFenpQQXhzXzBHMDBdLS0+PC9nPjwvc3ZnPg==;" vertex="1" parent="1">
            <mxGeometry x="70" y="70" width="1120" height="960" as="geometry" />
          </mxCell>
        </UserObject>
      </root>
    </mxGraphModel>
  </diagram>
  <diagram id="XCEzmzwLgYpuY3kuFvBE" name="lofin-lv2-dfd">
    <mxGraphModel dx="9994" dy="6296" grid="1" gridSize="10" guides="1" tooltips="1" connect="1" arrows="1" fold="1" page="1" pageScale="1" pageWidth="827" pageHeight="1169" math="0" shadow="0">
      <root>
        <mxCell id="0" />
        <mxCell id="1" parent="0" />
        <mxCell id="PPTmTC8K_rMjFH4yc2pl-16" style="edgeStyle=orthogonalEdgeStyle;rounded=0;orthogonalLoop=1;jettySize=auto;html=1;strokeWidth=2;" edge="1" parent="1" source="PPTmTC8K_rMjFH4yc2pl-1" target="PPTmTC8K_rMjFH4yc2pl-2">
          <mxGeometry relative="1" as="geometry" />
        </mxCell>
        <mxCell id="PPTmTC8K_rMjFH4yc2pl-1" value="User" style="shape=umlActor;verticalLabelPosition=bottom;verticalAlign=top;html=1;outlineConnect=0;strokeWidth=2;" vertex="1" parent="1">
          <mxGeometry x="-160" y="-150" width="30" height="60" as="geometry" />
        </mxCell>
        <mxCell id="PPTmTC8K_rMjFH4yc2pl-17" style="edgeStyle=orthogonalEdgeStyle;rounded=0;orthogonalLoop=1;jettySize=auto;html=1;entryX=0.5;entryY=0;entryDx=0;entryDy=0;strokeWidth=2;" edge="1" parent="1" source="PPTmTC8K_rMjFH4yc2pl-2" target="PPTmTC8K_rMjFH4yc2pl-3">
          <mxGeometry relative="1" as="geometry" />
        </mxCell>
        <mxCell id="PPTmTC8K_rMjFH4yc2pl-2" value="2.1 Enter login credentials" style="rounded=0;whiteSpace=wrap;html=1;strokeWidth=2;" vertex="1" parent="1">
          <mxGeometry x="-250" y="80" width="210" height="60" as="geometry" />
        </mxCell>
        <mxCell id="PPTmTC8K_rMjFH4yc2pl-18" style="edgeStyle=orthogonalEdgeStyle;rounded=0;orthogonalLoop=1;jettySize=auto;html=1;strokeWidth=2;" edge="1" parent="1" source="PPTmTC8K_rMjFH4yc2pl-3" target="PPTmTC8K_rMjFH4yc2pl-4">
          <mxGeometry relative="1" as="geometry" />
        </mxCell>
        <mxCell id="PPTmTC8K_rMjFH4yc2pl-23" style="edgeStyle=orthogonalEdgeStyle;rounded=0;orthogonalLoop=1;jettySize=auto;html=1;entryX=1;entryY=0.75;entryDx=0;entryDy=0;strokeWidth=2;" edge="1" parent="1" source="PPTmTC8K_rMjFH4yc2pl-3" target="PPTmTC8K_rMjFH4yc2pl-8">
          <mxGeometry relative="1" as="geometry">
            <Array as="points">
              <mxPoint x="-100" y="510" />
              <mxPoint x="730" y="510" />
              <mxPoint x="730" y="1246" />
              <mxPoint x="580" y="1246" />
            </Array>
          </mxGeometry>
        </mxCell>
        <mxCell id="PPTmTC8K_rMjFH4yc2pl-3" value="2.2 Chcek Blocked status" style="rounded=0;whiteSpace=wrap;html=1;strokeWidth=2;" vertex="1" parent="1">
          <mxGeometry x="-249" y="280" width="210" height="60" as="geometry" />
        </mxCell>
        <mxCell id="PPTmTC8K_rMjFH4yc2pl-22" style="edgeStyle=orthogonalEdgeStyle;rounded=0;orthogonalLoop=1;jettySize=auto;html=1;strokeWidth=2;" edge="1" parent="1" source="PPTmTC8K_rMjFH4yc2pl-4" target="PPTmTC8K_rMjFH4yc2pl-12">
          <mxGeometry relative="1" as="geometry" />
        </mxCell>
        <mxCell id="PPTmTC8K_rMjFH4yc2pl-28" style="edgeStyle=orthogonalEdgeStyle;rounded=0;orthogonalLoop=1;jettySize=auto;html=1;entryX=0.5;entryY=0;entryDx=0;entryDy=0;strokeWidth=2;" edge="1" parent="1" source="PPTmTC8K_rMjFH4yc2pl-4" target="PPTmTC8K_rMjFH4yc2pl-5">
          <mxGeometry relative="1" as="geometry">
            <Array as="points">
              <mxPoint x="-145" y="640" />
              <mxPoint x="-145" y="640" />
            </Array>
          </mxGeometry>
        </mxCell>
        <mxCell id="PPTmTC8K_rMjFH4yc2pl-4" value="2.3 Validate Credentails" style="rounded=0;whiteSpace=wrap;html=1;strokeWidth=2;" vertex="1" parent="1">
          <mxGeometry x="-250" y="580" width="210" height="60" as="geometry" />
        </mxCell>
        <mxCell id="PPTmTC8K_rMjFH4yc2pl-29" style="rounded=0;orthogonalLoop=1;jettySize=auto;html=1;strokeWidth=2;edgeStyle=orthogonalEdgeStyle;entryX=1.003;entryY=0.669;entryDx=0;entryDy=0;entryPerimeter=0;" edge="1" parent="1" source="PPTmTC8K_rMjFH4yc2pl-5" target="PPTmTC8K_rMjFH4yc2pl-7">
          <mxGeometry relative="1" as="geometry">
            <mxPoint x="60" y="1570" as="targetPoint" />
            <Array as="points">
              <mxPoint x="200" y="840" />
              <mxPoint x="200" y="1570" />
            </Array>
          </mxGeometry>
        </mxCell>
        <mxCell id="PPTmTC8K_rMjFH4yc2pl-30" style="edgeStyle=orthogonalEdgeStyle;rounded=0;orthogonalLoop=1;jettySize=auto;html=1;entryX=0.723;entryY=-0.006;entryDx=0;entryDy=0;strokeWidth=2;entryPerimeter=0;exitX=0.847;exitY=-0.045;exitDx=0;exitDy=0;exitPerimeter=0;" edge="1" parent="1" source="PPTmTC8K_rMjFH4yc2pl-5" target="PPTmTC8K_rMjFH4yc2pl-8">
          <mxGeometry relative="1" as="geometry">
            <mxPoint x="-142" y="798" as="sourcePoint" />
            <mxPoint x="518.9499999999998" y="1377.6400000000003" as="targetPoint" />
            <Array as="points">
              <mxPoint x="-72" y="740" />
              <mxPoint x="522" y="740" />
            </Array>
          </mxGeometry>
        </mxCell>
        <mxCell id="PPTmTC8K_rMjFH4yc2pl-5" value="2.4 Generate Session&lt;span style=&quot;color: rgba(0, 0, 0, 0); font-family: monospace; font-size: 0px; text-align: start; text-wrap-mode: nowrap;&quot;&gt;%3CmxGraphModel%3E%3Croot%3E%3CmxCell%20id%3D%220%22%2F%3E%3CmxCell%20id%3D%221%22%20parent%3D%220%22%2F%3E%3CmxCell%20id%3D%222%22%20value%3D%222.1%20Enter%20login%20credentials%22%20style%3D%22rounded%3D0%3BwhiteSpace%3Dwrap%3Bhtml%3D1%3B%22%20vertex%3D%221%22%20parent%3D%221%22%3E%3CmxGeometry%20x%3D%221590%22%20y%3D%22320%22%20width%3D%22210%22%20height%3D%2260%22%20as%3D%22geometry%22%2F%3E%3C%2FmxCell%3E%3C%2Froot%3E%3C%2FmxGraphModel%3E&lt;/span&gt;" style="rounded=0;whiteSpace=wrap;html=1;strokeWidth=2;" vertex="1" parent="1">
          <mxGeometry x="-250" y="810" width="210" height="60" as="geometry" />
        </mxCell>
        <mxCell id="PPTmTC8K_rMjFH4yc2pl-37" style="rounded=0;orthogonalLoop=1;jettySize=auto;html=1;strokeWidth=2;edgeStyle=orthogonalEdgeStyle;entryX=0.478;entryY=-0.03;entryDx=0;entryDy=0;entryPerimeter=0;" edge="1" parent="1" source="PPTmTC8K_rMjFH4yc2pl-6" target="PPTmTC8K_rMjFH4yc2pl-7">
          <mxGeometry relative="1" as="geometry">
            <mxPoint x="-60" y="1520" as="targetPoint" />
            <Array as="points">
              <mxPoint x="-460" y="1480" />
              <mxPoint x="-60" y="1480" />
            </Array>
          </mxGeometry>
        </mxCell>
        <mxCell id="PPTmTC8K_rMjFH4yc2pl-38" style="rounded=0;orthogonalLoop=1;jettySize=auto;html=1;strokeWidth=2;edgeStyle=orthogonalEdgeStyle;" edge="1" parent="1" source="PPTmTC8K_rMjFH4yc2pl-6" target="PPTmTC8K_rMjFH4yc2pl-8">
          <mxGeometry relative="1" as="geometry">
            <Array as="points">
              <mxPoint x="-413" y="1420" />
            </Array>
          </mxGeometry>
        </mxCell>
        <mxCell id="PPTmTC8K_rMjFH4yc2pl-6" value="2.6 Lock Account If needed" style="rounded=0;whiteSpace=wrap;html=1;strokeWidth=2;" vertex="1" parent="1">
          <mxGeometry x="-518" y="1300" width="210" height="60" as="geometry" />
        </mxCell>
        <mxCell id="PPTmTC8K_rMjFH4yc2pl-7" value="2.7 log attempt&amp;nbsp;" style="rounded=0;whiteSpace=wrap;html=1;strokeWidth=2;" vertex="1" parent="1">
          <mxGeometry x="-160" y="1530" width="210" height="60" as="geometry" />
        </mxCell>
        <mxCell id="PPTmTC8K_rMjFH4yc2pl-8" value="2.8 Display Dashboard" style="rounded=0;whiteSpace=wrap;html=1;strokeWidth=2;" vertex="1" parent="1">
          <mxGeometry x="370" y="1390" width="210" height="60" as="geometry" />
        </mxCell>
        <mxCell id="PPTmTC8K_rMjFH4yc2pl-33" style="edgeStyle=orthogonalEdgeStyle;rounded=0;orthogonalLoop=1;jettySize=auto;html=1;entryX=0.75;entryY=0;entryDx=0;entryDy=0;strokeWidth=2;" edge="1" parent="1" source="PPTmTC8K_rMjFH4yc2pl-10" target="PPTmTC8K_rMjFH4yc2pl-6">
          <mxGeometry relative="1" as="geometry">
            <Array as="points">
              <mxPoint x="-290" y="1220" />
              <mxPoint x="-361" y="1220" />
            </Array>
          </mxGeometry>
        </mxCell>
        <mxCell id="PPTmTC8K_rMjFH4yc2pl-35" style="rounded=0;orthogonalLoop=1;jettySize=auto;html=1;entryX=0.36;entryY=0.071;entryDx=0;entryDy=0;strokeWidth=2;edgeStyle=orthogonalEdgeStyle;entryPerimeter=0;" edge="1" parent="1" source="PPTmTC8K_rMjFH4yc2pl-10" target="PPTmTC8K_rMjFH4yc2pl-8">
          <mxGeometry relative="1" as="geometry">
            <Array as="points">
              <mxPoint x="-160" y="1250" />
              <mxPoint x="446" y="1250" />
              <mxPoint x="446" y="1320" />
            </Array>
          </mxGeometry>
        </mxCell>
        <mxCell id="PPTmTC8K_rMjFH4yc2pl-10" value="2.5 INcrement Failed Attempts" style="rounded=0;whiteSpace=wrap;html=1;strokeWidth=2;" vertex="1" parent="1">
          <mxGeometry x="-330" y="1080" width="210" height="60" as="geometry" />
        </mxCell>
        <mxCell id="PPTmTC8K_rMjFH4yc2pl-11" value="D3: Login Logs" style="shape=cylinder3;whiteSpace=wrap;html=1;boundedLbl=1;backgroundOutline=1;size=15;strokeWidth=2;" vertex="1" parent="1">
          <mxGeometry x="-860" y="1110" width="120" height="80" as="geometry" />
        </mxCell>
        <mxCell id="PPTmTC8K_rMjFH4yc2pl-24" style="edgeStyle=orthogonalEdgeStyle;rounded=0;orthogonalLoop=1;jettySize=auto;html=1;strokeWidth=2;exitX=1;exitY=0;exitDx=0;exitDy=27.5;exitPerimeter=0;" edge="1" parent="1" source="PPTmTC8K_rMjFH4yc2pl-12">
          <mxGeometry relative="1" as="geometry">
            <mxPoint x="-700" y="940" as="sourcePoint" />
            <mxPoint x="-200" y="640" as="targetPoint" />
            <Array as="points">
              <mxPoint x="-730" y="940" />
              <mxPoint x="-410" y="940" />
              <mxPoint x="-410" y="690" />
              <mxPoint x="-200" y="690" />
            </Array>
          </mxGeometry>
        </mxCell>
        <mxCell id="PPTmTC8K_rMjFH4yc2pl-13" value="D2: Session Store" style="shape=cylinder3;whiteSpace=wrap;html=1;boundedLbl=1;backgroundOutline=1;size=15;strokeWidth=2;" vertex="1" parent="1">
          <mxGeometry x="-1180" y="980" width="120" height="80" as="geometry" />
        </mxCell>
        <mxCell id="PPTmTC8K_rMjFH4yc2pl-20" style="rounded=0;orthogonalLoop=1;jettySize=auto;html=1;exitX=0.96;exitY=0.7;exitDx=0;exitDy=0;exitPerimeter=0;entryX=0.25;entryY=1;entryDx=0;entryDy=0;strokeWidth=2;edgeStyle=orthogonalEdgeStyle;" edge="1" parent="1" source="PPTmTC8K_rMjFH4yc2pl-15" target="PPTmTC8K_rMjFH4yc2pl-3">
          <mxGeometry relative="1" as="geometry">
            <mxPoint x="360" y="530.0000000000002" as="targetPoint" />
          </mxGeometry>
        </mxCell>
        <mxCell id="PPTmTC8K_rMjFH4yc2pl-15" value="Redis Blocked User" style="ellipse;shape=cloud;whiteSpace=wrap;html=1;align=center;strokeWidth=2;" vertex="1" parent="1">
          <mxGeometry x="-1100" y="430" width="214" height="130" as="geometry" />
        </mxCell>
        <mxCell id="PPTmTC8K_rMjFH4yc2pl-19" style="edgeStyle=orthogonalEdgeStyle;rounded=0;orthogonalLoop=1;jettySize=auto;html=1;entryX=0.625;entryY=0.2;entryDx=0;entryDy=0;entryPerimeter=0;strokeWidth=2;" edge="1" parent="1" source="PPTmTC8K_rMjFH4yc2pl-3" target="PPTmTC8K_rMjFH4yc2pl-15">
          <mxGeometry relative="1" as="geometry" />
        </mxCell>
        <mxCell id="PPTmTC8K_rMjFH4yc2pl-21" style="edgeStyle=orthogonalEdgeStyle;rounded=0;orthogonalLoop=1;jettySize=auto;html=1;entryX=0.55;entryY=0.95;entryDx=0;entryDy=0;entryPerimeter=0;strokeWidth=2;" edge="1" parent="1" source="PPTmTC8K_rMjFH4yc2pl-12" target="PPTmTC8K_rMjFH4yc2pl-15">
          <mxGeometry relative="1" as="geometry" />
        </mxCell>
        <mxCell id="PPTmTC8K_rMjFH4yc2pl-27" style="rounded=0;orthogonalLoop=1;jettySize=auto;html=1;entryX=1;entryY=1;entryDx=0;entryDy=-15;entryPerimeter=0;strokeWidth=2;" edge="1" parent="1" source="PPTmTC8K_rMjFH4yc2pl-10" target="PPTmTC8K_rMjFH4yc2pl-12">
          <mxGeometry relative="1" as="geometry" />
        </mxCell>
        <mxCell id="PPTmTC8K_rMjFH4yc2pl-31" style="edgeStyle=orthogonalEdgeStyle;rounded=0;orthogonalLoop=1;jettySize=auto;html=1;entryX=0.756;entryY=0.077;entryDx=0;entryDy=0;entryPerimeter=0;strokeWidth=2;" edge="1" parent="1" source="PPTmTC8K_rMjFH4yc2pl-5" target="PPTmTC8K_rMjFH4yc2pl-13">
          <mxGeometry relative="1" as="geometry" />
        </mxCell>
        <mxCell id="PPTmTC8K_rMjFH4yc2pl-36" style="rounded=0;orthogonalLoop=1;jettySize=auto;html=1;entryX=0.5;entryY=1;entryDx=0;entryDy=0;entryPerimeter=0;strokeWidth=2;" edge="1" parent="1" source="PPTmTC8K_rMjFH4yc2pl-6" target="PPTmTC8K_rMjFH4yc2pl-12">
          <mxGeometry relative="1" as="geometry" />
        </mxCell>
        <mxCell id="PPTmTC8K_rMjFH4yc2pl-39" style="edgeStyle=orthogonalEdgeStyle;rounded=0;orthogonalLoop=1;jettySize=auto;html=1;exitX=0;exitY=0.5;exitDx=0;exitDy=0;entryX=0.5;entryY=1;entryDx=0;entryDy=0;entryPerimeter=0;strokeWidth=2;" edge="1" parent="1" source="PPTmTC8K_rMjFH4yc2pl-7" target="PPTmTC8K_rMjFH4yc2pl-11">
          <mxGeometry relative="1" as="geometry" />
        </mxCell>
        <mxCell id="PPTmTC8K_rMjFH4yc2pl-12" value="D1: User Database&lt;span style=&quot;color: rgba(0, 0, 0, 0); font-family: monospace; font-size: 0px; text-align: start; text-wrap-mode: nowrap;&quot;&gt;%3CmxGraphModel%3E%3Croot%3E%3CmxCell%20id%3D%220%22%2F%3E%3CmxCell%20id%3D%221%22%20parent%3D%220%22%2F%3E%3CmxCell%20id%3D%222%22%20value%3D%22D3%3A%20Login%20Logs%22%20style%3D%22shape%3Dcylinder3%3BwhiteSpace%3Dwrap%3Bhtml%3D1%3BboundedLbl%3D1%3BbackgroundOutline%3D1%3Bsize%3D15%3B%22%20vertex%3D%221%22%20parent%3D%221%22%3E%3CmxGeometry%20x%3D%22-860%22%20y%3D%221110%22%20width%3D%22120%22%20height%3D%2280%22%20as%3D%22geometry%22%2F%3E%3C%2FmxCell%3E%3C%2Froot%3E%3C%2FmxGraphModel%3E&lt;/span&gt;" style="shape=cylinder3;whiteSpace=wrap;html=1;boundedLbl=1;backgroundOutline=1;size=15;strokeWidth=2;" vertex="1" parent="1">
          <mxGeometry x="-850" y="910" width="120" height="80" as="geometry" />
        </mxCell>
        <mxCell id="PPTmTC8K_rMjFH4yc2pl-42" style="edgeStyle=orthogonalEdgeStyle;rounded=0;orthogonalLoop=1;jettySize=auto;html=1;entryX=0.81;entryY=0.023;entryDx=0;entryDy=0;entryPerimeter=0;strokeWidth=2;" edge="1" parent="1" source="PPTmTC8K_rMjFH4yc2pl-10" target="PPTmTC8K_rMjFH4yc2pl-7">
          <mxGeometry relative="1" as="geometry" />
        </mxCell>
        <mxCell id="PPTmTC8K_rMjFH4yc2pl-43" value="Enter username/password" style="text;html=1;align=center;verticalAlign=middle;whiteSpace=wrap;rounded=0;" vertex="1" parent="1">
          <mxGeometry x="-150" y="-30" width="240" height="30" as="geometry" />
        </mxCell>
        <mxCell id="PPTmTC8K_rMjFH4yc2pl-45" value="Send username" style="text;html=1;align=center;verticalAlign=middle;whiteSpace=wrap;rounded=0;" vertex="1" parent="1">
          <mxGeometry x="-150" y="180" width="240" height="30" as="geometry" />
        </mxCell>
        <mxCell id="PPTmTC8K_rMjFH4yc2pl-46" value="Create if user blocked" style="text;html=1;align=center;verticalAlign=middle;whiteSpace=wrap;rounded=0;" vertex="1" parent="1">
          <mxGeometry x="-940" y="340" width="240" height="30" as="geometry" />
        </mxCell>
        <mxCell id="PPTmTC8K_rMjFH4yc2pl-47" value="Blovked or not" style="text;html=1;align=center;verticalAlign=middle;whiteSpace=wrap;rounded=0;" vertex="1" parent="1">
          <mxGeometry x="-720" y="480" width="240" height="30" as="geometry" />
        </mxCell>
        <mxCell id="PPTmTC8K_rMjFH4yc2pl-48" value="If not blocked -&amp;gt; validate creadential" style="text;html=1;align=center;verticalAlign=middle;whiteSpace=wrap;rounded=0;rotation=90;" vertex="1" parent="1">
          <mxGeometry x="-287" y="430" width="240" height="30" as="geometry" />
        </mxCell>
        <mxCell id="PPTmTC8K_rMjFH4yc2pl-49" value="If blocked -. Error message" style="text;html=1;align=center;verticalAlign=middle;whiteSpace=wrap;rounded=0;" vertex="1" parent="1">
          <mxGeometry x="390" y="460" width="240" height="30" as="geometry" />
        </mxCell>
        <mxCell id="PPTmTC8K_rMjFH4yc2pl-50" value="Request stired credentials" style="text;html=1;align=center;verticalAlign=middle;whiteSpace=wrap;rounded=0;" vertex="1" parent="1">
          <mxGeometry x="-758" y="580" width="240" height="30" as="geometry" />
        </mxCell>
        <mxCell id="PPTmTC8K_rMjFH4yc2pl-51" value="Request user data" style="text;html=1;align=center;verticalAlign=middle;whiteSpace=wrap;rounded=0;" vertex="1" parent="1">
          <mxGeometry x="-470" y="660" width="240" height="30" as="geometry" />
        </mxCell>
        <mxCell id="PPTmTC8K_rMjFH4yc2pl-52" value="Invalid credential" style="text;html=1;align=center;verticalAlign=middle;whiteSpace=wrap;rounded=0;" vertex="1" parent="1">
          <mxGeometry x="-40" y="650" width="240" height="30" as="geometry" />
        </mxCell>
        <mxCell id="PPTmTC8K_rMjFH4yc2pl-53" value="Enter username/password" style="text;html=1;align=center;verticalAlign=middle;whiteSpace=wrap;rounded=0;" vertex="1" parent="1">
          <mxGeometry x="-264" y="700" width="240" height="30" as="geometry" />
        </mxCell>
        <mxCell id="PPTmTC8K_rMjFH4yc2pl-55" value="Send log" style="text;html=1;align=center;verticalAlign=middle;whiteSpace=wrap;rounded=0;" vertex="1" parent="1">
          <mxGeometry x="120" y="1020" width="240" height="30" as="geometry" />
        </mxCell>
        <mxCell id="PPTmTC8K_rMjFH4yc2pl-56" value="Success" style="text;html=1;align=center;verticalAlign=middle;whiteSpace=wrap;rounded=0;" vertex="1" parent="1">
          <mxGeometry x="380" y="1030" width="240" height="30" as="geometry" />
        </mxCell>
        <mxCell id="PPTmTC8K_rMjFH4yc2pl-57" value="Store session" style="text;html=1;align=center;verticalAlign=middle;whiteSpace=wrap;rounded=0;" vertex="1" parent="1">
          <mxGeometry x="-640" y="800" width="240" height="30" as="geometry" />
        </mxCell>
        <mxCell id="PPTmTC8K_rMjFH4yc2pl-59" value="Update failed login count" style="text;html=1;align=center;verticalAlign=middle;whiteSpace=wrap;rounded=0;" vertex="1" parent="1">
          <mxGeometry x="-1200" y="680" width="240" height="30" as="geometry" />
        </mxCell>
        <mxCell id="PPTmTC8K_rMjFH4yc2pl-61" value="Store log entry" style="text;html=1;align=center;verticalAlign=middle;whiteSpace=wrap;rounded=0;" vertex="1" parent="1">
          <mxGeometry x="-700" y="1500" width="240" height="30" as="geometry" />
        </mxCell>
        <mxCell id="PPTmTC8K_rMjFH4yc2pl-62" value="Check if attemps &amp;gt;= 5" style="text;html=1;align=center;verticalAlign=middle;whiteSpace=wrap;rounded=0;" vertex="1" parent="1">
          <mxGeometry x="-504" y="1170" width="240" height="30" as="geometry" />
        </mxCell>
        <mxCell id="PPTmTC8K_rMjFH4yc2pl-63" value="Send lock status" style="text;html=1;align=center;verticalAlign=middle;whiteSpace=wrap;rounded=0;" vertex="1" parent="1">
          <mxGeometry x="-265" y="1390" width="240" height="30" as="geometry" />
        </mxCell>
        <mxCell id="PPTmTC8K_rMjFH4yc2pl-64" value="Send error" style="text;html=1;align=center;verticalAlign=middle;whiteSpace=wrap;rounded=0;" vertex="1" parent="1">
          <mxGeometry x="-10" y="1210" width="240" height="30" as="geometry" />
        </mxCell>
        <mxCell id="PPTmTC8K_rMjFH4yc2pl-65" value="Log failure" style="text;html=1;align=center;verticalAlign=middle;whiteSpace=wrap;rounded=0;" vertex="1" parent="1">
          <mxGeometry x="-230" y="1300" width="240" height="30" as="geometry" />
        </mxCell>
        <mxCell id="PPTmTC8K_rMjFH4yc2pl-70" value="Text" style="text;html=1;align=center;verticalAlign=middle;resizable=0;points=[];autosize=1;strokeColor=none;fillColor=none;" vertex="1" parent="1">
          <mxGeometry x="505" y="1818" width="50" height="30" as="geometry" />
        </mxCell>
      </root>
    </mxGraphModel>
  </diagram>
  <diagram id="wE_jIwFF7Km4P0XcoK7Y" name="register-dfd">
    <mxGraphModel dx="2275" dy="1398" grid="1" gridSize="10" guides="1" tooltips="1" connect="1" arrows="1" fold="1" page="1" pageScale="1" pageWidth="827" pageHeight="1169" math="0" shadow="0">
      <root>
        <mxCell id="0" />
        <mxCell id="1" parent="0" />
        <mxCell id="qwJWliw-cDocvb4VjJWG-1" value="User" style="shape=umlActor;verticalLabelPosition=bottom;verticalAlign=top;html=1;outlineConnect=0;" vertex="1" parent="1">
          <mxGeometry x="1226" y="230" width="30" height="60" as="geometry" />
        </mxCell>
        <mxCell id="qwJWliw-cDocvb4VjJWG-2" value="2.1 Enter Registeration Detail" style="rounded=0;whiteSpace=wrap;html=1;" vertex="1" parent="1">
          <mxGeometry x="960" y="390" width="200" height="60" as="geometry" />
        </mxCell>
        <mxCell id="sJizzpQmO3nu3pFYRW2M-8" style="edgeStyle=orthogonalEdgeStyle;rounded=0;orthogonalLoop=1;jettySize=auto;html=1;entryX=0.5;entryY=0;entryDx=0;entryDy=0;" edge="1" parent="1" source="qwJWliw-cDocvb4VjJWG-3" target="sJizzpQmO3nu3pFYRW2M-7">
          <mxGeometry relative="1" as="geometry" />
        </mxCell>
        <mxCell id="sJizzpQmO3nu3pFYRW2M-11" style="edgeStyle=orthogonalEdgeStyle;rounded=0;orthogonalLoop=1;jettySize=auto;html=1;" edge="1" parent="1" source="qwJWliw-cDocvb4VjJWG-3" target="qwJWliw-cDocvb4VjJWG-4">
          <mxGeometry relative="1" as="geometry" />
        </mxCell>
        <mxCell id="qwJWliw-cDocvb4VjJWG-3" value="2.2 Validate Input data" style="rounded=0;whiteSpace=wrap;html=1;" vertex="1" parent="1">
          <mxGeometry x="960" y="525" width="200" height="60" as="geometry" />
        </mxCell>
        <mxCell id="qwJWliw-cDocvb4VjJWG-4" value="2.3 Create User Account" style="rounded=0;whiteSpace=wrap;html=1;" vertex="1" parent="1">
          <mxGeometry x="960" y="670" width="200" height="60" as="geometry" />
        </mxCell>
        <mxCell id="sJizzpQmO3nu3pFYRW2M-12" style="edgeStyle=orthogonalEdgeStyle;rounded=0;orthogonalLoop=1;jettySize=auto;html=1;entryX=0;entryY=0.5;entryDx=0;entryDy=0;" edge="1" parent="1" source="qwJWliw-cDocvb4VjJWG-5" target="sJizzpQmO3nu3pFYRW2M-7">
          <mxGeometry relative="1" as="geometry" />
        </mxCell>
        <mxCell id="qwJWliw-cDocvb4VjJWG-5" value="2.4 send confirmation email" style="rounded=0;whiteSpace=wrap;html=1;" vertex="1" parent="1">
          <mxGeometry x="850" y="810" width="200" height="60" as="geometry" />
        </mxCell>
        <mxCell id="sJizzpQmO3nu3pFYRW2M-1" value="D2: Mail Server" style="shape=cylinder3;whiteSpace=wrap;html=1;boundedLbl=1;backgroundOutline=1;size=15;strokeWidth=2;" vertex="1" parent="1">
          <mxGeometry x="650" y="890" width="120" height="80" as="geometry" />
        </mxCell>
        <mxCell id="sJizzpQmO3nu3pFYRW2M-3" value="D1:&amp;nbsp; User Database" style="shape=cylinder3;whiteSpace=wrap;html=1;boundedLbl=1;backgroundOutline=1;size=15;strokeWidth=2;" vertex="1" parent="1">
          <mxGeometry x="1160" y="930" width="120" height="80" as="geometry" />
        </mxCell>
        <mxCell id="sJizzpQmO3nu3pFYRW2M-4" style="edgeStyle=orthogonalEdgeStyle;rounded=0;orthogonalLoop=1;jettySize=auto;html=1;entryX=0.5;entryY=0;entryDx=0;entryDy=0;entryPerimeter=0;" edge="1" parent="1" source="qwJWliw-cDocvb4VjJWG-4" target="sJizzpQmO3nu3pFYRW2M-3">
          <mxGeometry relative="1" as="geometry">
            <Array as="points">
              <mxPoint x="1220" y="700" />
            </Array>
          </mxGeometry>
        </mxCell>
        <mxCell id="sJizzpQmO3nu3pFYRW2M-5" style="edgeStyle=orthogonalEdgeStyle;rounded=0;orthogonalLoop=1;jettySize=auto;html=1;entryX=0.391;entryY=0.03;entryDx=0;entryDy=0;entryPerimeter=0;" edge="1" parent="1" source="qwJWliw-cDocvb4VjJWG-4" target="qwJWliw-cDocvb4VjJWG-5">
          <mxGeometry relative="1" as="geometry" />
        </mxCell>
        <mxCell id="sJizzpQmO3nu3pFYRW2M-6" style="edgeStyle=orthogonalEdgeStyle;rounded=0;orthogonalLoop=1;jettySize=auto;html=1;entryX=0.626;entryY=0.028;entryDx=0;entryDy=0;entryPerimeter=0;" edge="1" parent="1" source="qwJWliw-cDocvb4VjJWG-5" target="sJizzpQmO3nu3pFYRW2M-1">
          <mxGeometry relative="1" as="geometry" />
        </mxCell>
        <mxCell id="sJizzpQmO3nu3pFYRW2M-13" style="edgeStyle=orthogonalEdgeStyle;rounded=0;orthogonalLoop=1;jettySize=auto;html=1;" edge="1" parent="1" source="sJizzpQmO3nu3pFYRW2M-7">
          <mxGeometry relative="1" as="geometry">
            <mxPoint x="1260" y="260" as="targetPoint" />
            <Array as="points">
              <mxPoint x="1560" y="840" />
              <mxPoint x="1560" y="260" />
            </Array>
          </mxGeometry>
        </mxCell>
        <mxCell id="sJizzpQmO3nu3pFYRW2M-7" value="2.5 Display success/ Error message" style="rounded=0;whiteSpace=wrap;html=1;" vertex="1" parent="1">
          <mxGeometry x="1320" y="810" width="200" height="60" as="geometry" />
        </mxCell>
        <mxCell id="sJizzpQmO3nu3pFYRW2M-9" style="edgeStyle=orthogonalEdgeStyle;rounded=0;orthogonalLoop=1;jettySize=auto;html=1;entryX=0.562;entryY=0.093;entryDx=0;entryDy=0;entryPerimeter=0;" edge="1" parent="1" source="qwJWliw-cDocvb4VjJWG-1" target="qwJWliw-cDocvb4VjJWG-2">
          <mxGeometry relative="1" as="geometry" />
        </mxCell>
        <mxCell id="sJizzpQmO3nu3pFYRW2M-10" style="edgeStyle=orthogonalEdgeStyle;rounded=0;orthogonalLoop=1;jettySize=auto;html=1;entryX=0.5;entryY=0;entryDx=0;entryDy=0;" edge="1" parent="1" source="qwJWliw-cDocvb4VjJWG-2" target="qwJWliw-cDocvb4VjJWG-3">
          <mxGeometry relative="1" as="geometry">
            <Array as="points">
              <mxPoint x="1060" y="500" />
              <mxPoint x="1060" y="500" />
            </Array>
          </mxGeometry>
        </mxCell>
        <mxCell id="sJizzpQmO3nu3pFYRW2M-15" value="Enter details&amp;nbsp;" style="text;html=1;align=center;verticalAlign=middle;whiteSpace=wrap;rounded=0;" vertex="1" parent="1">
          <mxGeometry x="940" y="290" width="200" height="30" as="geometry" />
        </mxCell>
        <mxCell id="sJizzpQmO3nu3pFYRW2M-16" value="Send entered details" style="text;html=1;align=center;verticalAlign=middle;whiteSpace=wrap;rounded=0;" vertex="1" parent="1">
          <mxGeometry x="1026" y="470" width="200" height="30" as="geometry" />
        </mxCell>
        <mxCell id="sJizzpQmO3nu3pFYRW2M-17" value="Valid input" style="text;html=1;align=center;verticalAlign=middle;whiteSpace=wrap;rounded=0;" vertex="1" parent="1">
          <mxGeometry x="1010" y="620" width="200" height="30" as="geometry" />
        </mxCell>
        <mxCell id="sJizzpQmO3nu3pFYRW2M-18" value="Store new user data" style="text;html=1;align=center;verticalAlign=middle;whiteSpace=wrap;rounded=0;" vertex="1" parent="1">
          <mxGeometry x="1144" y="740" width="200" height="30" as="geometry" />
        </mxCell>
        <mxCell id="sJizzpQmO3nu3pFYRW2M-19" value="After successful registration" style="text;html=1;align=center;verticalAlign=middle;whiteSpace=wrap;rounded=0;" vertex="1" parent="1">
          <mxGeometry x="830" y="740" width="200" height="30" as="geometry" />
        </mxCell>
        <mxCell id="sJizzpQmO3nu3pFYRW2M-20" value="Send confirmation email" style="text;html=1;align=center;verticalAlign=middle;whiteSpace=wrap;rounded=0;" vertex="1" parent="1">
          <mxGeometry x="560" y="800" width="200" height="30" as="geometry" />
        </mxCell>
        <mxCell id="sJizzpQmO3nu3pFYRW2M-21" value="Email sent" style="text;html=1;align=center;verticalAlign=middle;whiteSpace=wrap;rounded=0;" vertex="1" parent="1">
          <mxGeometry x="1050" y="800" width="200" height="30" as="geometry" />
        </mxCell>
        <mxCell id="sJizzpQmO3nu3pFYRW2M-22" value="Invalid input&amp;nbsp; -&amp;gt; error" style="text;html=1;align=center;verticalAlign=middle;whiteSpace=wrap;rounded=0;" vertex="1" parent="1">
          <mxGeometry x="1226" y="510" width="200" height="30" as="geometry" />
        </mxCell>
      </root>
    </mxGraphModel>
  </diagram>
  <diagram id="fWP-02giEUb6poa8JCeY" name="Page-5">
    <mxGraphModel grid="1" page="1" gridSize="10" guides="1" tooltips="1" connect="1" arrows="1" fold="1" pageScale="1" pageWidth="827" pageHeight="1169" math="0" shadow="0">
      <root>
        <mxCell id="0" />
        <mxCell id="1" parent="0" />
        <mxCell id="fbM_-Z5amjwGGvdpz4ER-1" value="" style="strokeWidth=2;html=1;shape=mxgraph.flowchart.start_1;whiteSpace=wrap;fillColor=#000000;fontSize=14;" vertex="1" parent="1">
          <mxGeometry x="291" y="22" width="60" height="30" as="geometry" />
        </mxCell>
        <mxCell id="fbM_-Z5amjwGGvdpz4ER-4" value="&lt;font&gt;Check if user is logged in&lt;/font&gt;" style="rounded=1;whiteSpace=wrap;html=1;arcSize=50;fontSize=14;" vertex="1" parent="1">
          <mxGeometry x="217" y="90" width="220" height="40" as="geometry" />
        </mxCell>
        <mxCell id="fbM_-Z5amjwGGvdpz4ER-5" value="Get form inputs (first name, last name, username, email, phone)" style="rounded=1;whiteSpace=wrap;html=1;arcSize=50;fontSize=14;" vertex="1" parent="1">
          <mxGeometry x="180" y="380" width="410" height="40" as="geometry" />
        </mxCell>
        <mxCell id="fbM_-Z5amjwGGvdpz4ER-6" value="" style="endArrow=classic;html=1;rounded=0;exitX=0.5;exitY=1;exitDx=0;exitDy=0;exitPerimeter=0;entryX=0.473;entryY=-0.05;entryDx=0;entryDy=0;entryPerimeter=0;fontSize=14;" edge="1" parent="1" source="fbM_-Z5amjwGGvdpz4ER-1" target="fbM_-Z5amjwGGvdpz4ER-4">
          <mxGeometry width="50" height="50" relative="1" as="geometry">
            <mxPoint x="260" y="320" as="sourcePoint" />
            <mxPoint x="320" y="80" as="targetPoint" />
          </mxGeometry>
        </mxCell>
        <mxCell id="fbM_-Z5amjwGGvdpz4ER-7" value="Get user role" style="rounded=1;whiteSpace=wrap;html=1;arcSize=50;fontSize=14;" vertex="1" parent="1">
          <mxGeometry x="240" y="160" width="160" height="40" as="geometry" />
        </mxCell>
        <mxCell id="fbM_-Z5amjwGGvdpz4ER-8" value="" style="endArrow=classic;html=1;rounded=0;exitX=0.473;exitY=1.015;exitDx=0;exitDy=0;entryX=0.5;entryY=0;entryDx=0;entryDy=0;exitPerimeter=0;fontSize=14;" edge="1" parent="1" source="fbM_-Z5amjwGGvdpz4ER-4" target="fbM_-Z5amjwGGvdpz4ER-7">
          <mxGeometry width="50" height="50" relative="1" as="geometry">
            <mxPoint x="330" y="60" as="sourcePoint" />
            <mxPoint x="331" y="98" as="targetPoint" />
          </mxGeometry>
        </mxCell>
        <mxCell id="fbM_-Z5amjwGGvdpz4ER-9" value="is role Admin?" style="shape=hexagon;perimeter=hexagonPerimeter2;whiteSpace=wrap;html=1;fixedSize=1;fontSize=14;" vertex="1" parent="1">
          <mxGeometry x="245" y="240" width="150" height="30" as="geometry" />
        </mxCell>
        <mxCell id="fbM_-Z5amjwGGvdpz4ER-10" value="" style="endArrow=classic;html=1;rounded=0;exitX=0.5;exitY=1;exitDx=0;exitDy=0;entryX=0.5;entryY=0;entryDx=0;entryDy=0;fontSize=14;" edge="1" parent="1" source="fbM_-Z5amjwGGvdpz4ER-7" target="fbM_-Z5amjwGGvdpz4ER-9">
          <mxGeometry width="50" height="50" relative="1" as="geometry">
            <mxPoint x="326.5" y="200" as="sourcePoint" />
            <mxPoint x="326.5" y="226" as="targetPoint" />
          </mxGeometry>
        </mxCell>
        <mxCell id="fbM_-Z5amjwGGvdpz4ER-11" value="" style="endArrow=classic;html=1;rounded=0;exitX=0;exitY=0.5;exitDx=0;exitDy=0;fontSize=14;" edge="1" parent="1" source="fbM_-Z5amjwGGvdpz4ER-9">
          <mxGeometry width="50" height="50" relative="1" as="geometry">
            <mxPoint x="300" y="240" as="sourcePoint" />
            <mxPoint x="110" y="270" as="targetPoint" />
            <Array as="points">
              <mxPoint x="110" y="255" />
            </Array>
          </mxGeometry>
        </mxCell>
        <mxCell id="fbM_-Z5amjwGGvdpz4ER-12" value="" style="endArrow=classic;html=1;rounded=0;exitX=1;exitY=0.5;exitDx=0;exitDy=0;entryX=0.5;entryY=0;entryDx=0;entryDy=0;fontSize=14;" edge="1" parent="1" source="fbM_-Z5amjwGGvdpz4ER-9" target="fbM_-Z5amjwGGvdpz4ER-18">
          <mxGeometry width="50" height="50" relative="1" as="geometry">
            <mxPoint x="255" y="265" as="sourcePoint" />
            <mxPoint x="700" y="255" as="targetPoint" />
            <Array as="points">
              <mxPoint x="699" y="250" />
            </Array>
          </mxGeometry>
        </mxCell>
        <mxCell id="fbM_-Z5amjwGGvdpz4ER-13" value="No" style="text;html=1;align=center;verticalAlign=middle;resizable=0;points=[];autosize=1;strokeColor=none;fillColor=none;fontSize=14;" vertex="1" parent="1">
          <mxGeometry x="220" y="231" width="40" height="30" as="geometry" />
        </mxCell>
        <mxCell id="fbM_-Z5amjwGGvdpz4ER-14" value="Yes" style="text;html=1;align=center;verticalAlign=middle;resizable=0;points=[];autosize=1;strokeColor=none;fillColor=none;fontSize=14;" vertex="1" parent="1">
          <mxGeometry x="375" y="231" width="50" height="30" as="geometry" />
        </mxCell>
        <mxCell id="fbM_-Z5amjwGGvdpz4ER-15" value="Redirect to insufficient permission page" style="rounded=1;whiteSpace=wrap;html=1;arcSize=50;fontSize=14;" vertex="1" parent="1">
          <mxGeometry x="-20" y="270" width="270" height="40" as="geometry" />
        </mxCell>
        <mxCell id="fbM_-Z5amjwGGvdpz4ER-16" value="" style="endArrow=classic;html=1;rounded=0;exitX=0.473;exitY=1.015;exitDx=0;exitDy=0;entryX=0.5;entryY=0;entryDx=0;entryDy=0;exitPerimeter=0;fontSize=14;" edge="1" parent="1">
          <mxGeometry width="50" height="50" relative="1" as="geometry">
            <mxPoint x="111" y="310" as="sourcePoint" />
            <mxPoint x="110" y="339" as="targetPoint" />
          </mxGeometry>
        </mxCell>
        <mxCell id="fbM_-Z5amjwGGvdpz4ER-17" value="" style="strokeWidth=2;html=1;shape=mxgraph.flowchart.start_2;whiteSpace=wrap;fillColor=#000000;fontSize=14;" vertex="1" parent="1">
          <mxGeometry x="90" y="340" width="40" height="40" as="geometry" />
        </mxCell>
        <mxCell id="fbM_-Z5amjwGGvdpz4ER-18" value="Is user staff?" style="shape=hexagon;perimeter=hexagonPerimeter2;whiteSpace=wrap;html=1;fixedSize=1;fontSize=14;" vertex="1" parent="1">
          <mxGeometry x="624" y="280" width="150" height="30" as="geometry" />
        </mxCell>
        <mxCell id="fbM_-Z5amjwGGvdpz4ER-19" value="" style="endArrow=classic;html=1;rounded=0;exitX=1;exitY=0.5;exitDx=0;exitDy=0;entryX=0.5;entryY=0;entryDx=0;entryDy=0;fontSize=14;" edge="1" parent="1" source="fbM_-Z5amjwGGvdpz4ER-18">
          <mxGeometry width="50" height="50" relative="1" as="geometry">
            <mxPoint x="610" y="295" as="sourcePoint" />
            <mxPoint x="914" y="320" as="targetPoint" />
            <Array as="points">
              <mxPoint x="914" y="295" />
            </Array>
          </mxGeometry>
        </mxCell>
        <mxCell id="fbM_-Z5amjwGGvdpz4ER-20" value="Show permission error message" style="rounded=1;whiteSpace=wrap;html=1;arcSize=50;fontSize=14;" vertex="1" parent="1">
          <mxGeometry x="800" y="320" width="220" height="40" as="geometry" />
        </mxCell>
        <mxCell id="fbM_-Z5amjwGGvdpz4ER-21" value="" style="endArrow=classic;html=1;rounded=0;exitX=0.5;exitY=1;exitDx=0;exitDy=0;entryX=0.5;entryY=0;entryDx=0;entryDy=0;fontSize=14;" edge="1" parent="1">
          <mxGeometry width="50" height="50" relative="1" as="geometry">
            <mxPoint x="916" y="360" as="sourcePoint" />
            <mxPoint x="916" y="400" as="targetPoint" />
          </mxGeometry>
        </mxCell>
        <mxCell id="fbM_-Z5amjwGGvdpz4ER-22" value="Render register page" style="rounded=1;whiteSpace=wrap;html=1;arcSize=50;fontSize=14;" vertex="1" parent="1">
          <mxGeometry x="839.5" y="400" width="151" height="40" as="geometry" />
        </mxCell>
        <mxCell id="fbM_-Z5amjwGGvdpz4ER-23" value="Is POST request?" style="shape=hexagon;perimeter=hexagonPerimeter2;whiteSpace=wrap;html=1;fixedSize=1;fontSize=14;" vertex="1" parent="1">
          <mxGeometry x="465" y="330" width="150" height="30" as="geometry" />
        </mxCell>
        <mxCell id="fbM_-Z5amjwGGvdpz4ER-24" value="" style="endArrow=classic;html=1;rounded=0;entryX=0.5;entryY=0;entryDx=0;entryDy=0;fontSize=14;" edge="1" parent="1" source="fbM_-Z5amjwGGvdpz4ER-18" target="fbM_-Z5amjwGGvdpz4ER-23">
          <mxGeometry width="50" height="50" relative="1" as="geometry">
            <mxPoint x="675" y="305" as="sourcePoint" />
            <mxPoint x="540" y="320" as="targetPoint" />
            <Array as="points">
              <mxPoint x="540" y="295" />
            </Array>
          </mxGeometry>
        </mxCell>
        <mxCell id="fbM_-Z5amjwGGvdpz4ER-25" value="Render register page" style="rounded=1;whiteSpace=wrap;html=1;arcSize=50;fontSize=14;" vertex="1" parent="1">
          <mxGeometry x="624" y="380" width="170" height="40" as="geometry" />
        </mxCell>
        <mxCell id="fbM_-Z5amjwGGvdpz4ER-26" value="" style="endArrow=classic;html=1;rounded=0;exitX=1;exitY=0.5;exitDx=0;exitDy=0;entryX=0.5;entryY=0;entryDx=0;entryDy=0;fontSize=14;" edge="1" parent="1" source="fbM_-Z5amjwGGvdpz4ER-23">
          <mxGeometry width="50" height="50" relative="1" as="geometry">
            <mxPoint x="570" y="355" as="sourcePoint" />
            <mxPoint x="710" y="380" as="targetPoint" />
            <Array as="points">
              <mxPoint x="710" y="340" />
            </Array>
          </mxGeometry>
        </mxCell>
        <mxCell id="fbM_-Z5amjwGGvdpz4ER-27" value="Generate temporary password" style="rounded=1;whiteSpace=wrap;html=1;arcSize=50;fontSize=14;" vertex="1" parent="1">
          <mxGeometry x="262.5" y="460" width="275" height="40" as="geometry" />
        </mxCell>
        <mxCell id="fbM_-Z5amjwGGvdpz4ER-28" value="set role = OPERATOR" style="rounded=1;whiteSpace=wrap;html=1;arcSize=50;fontSize=14;" vertex="1" parent="1">
          <mxGeometry x="320" y="536.5" width="170" height="40" as="geometry" />
        </mxCell>
        <mxCell id="fbM_-Z5amjwGGvdpz4ER-29" value="" style="endArrow=classic;html=1;rounded=0;entryX=0.5;entryY=0;entryDx=0;entryDy=0;fontSize=14;" edge="1" parent="1" target="fbM_-Z5amjwGGvdpz4ER-27">
          <mxGeometry width="50" height="50" relative="1" as="geometry">
            <mxPoint x="400" y="420" as="sourcePoint" />
            <mxPoint x="399.5" y="449" as="targetPoint" />
          </mxGeometry>
        </mxCell>
        <mxCell id="fbM_-Z5amjwGGvdpz4ER-30" value="" style="endArrow=classic;html=1;rounded=0;entryX=0.5;entryY=0;entryDx=0;entryDy=0;fontSize=14;" edge="1" parent="1">
          <mxGeometry width="50" height="50" relative="1" as="geometry">
            <mxPoint x="400" y="498.5" as="sourcePoint" />
            <mxPoint x="400" y="538.5" as="targetPoint" />
          </mxGeometry>
        </mxCell>
        <mxCell id="fbM_-Z5amjwGGvdpz4ER-31" value="" style="endArrow=classic;html=1;rounded=0;entryX=0.5;entryY=0;entryDx=0;entryDy=0;exitX=0;exitY=0.5;exitDx=0;exitDy=0;fontSize=14;" edge="1" parent="1" source="fbM_-Z5amjwGGvdpz4ER-23">
          <mxGeometry width="50" height="50" relative="1" as="geometry">
            <mxPoint x="484" y="342.5" as="sourcePoint" />
            <mxPoint x="400" y="377.5" as="targetPoint" />
            <Array as="points">
              <mxPoint x="400" y="342.5" />
            </Array>
          </mxGeometry>
        </mxCell>
        <mxCell id="fbM_-Z5amjwGGvdpz4ER-32" value="Check for duplicate&amp;nbsp; username/email/phone" style="rounded=1;whiteSpace=wrap;html=1;arcSize=50;fontSize=14;" vertex="1" parent="1">
          <mxGeometry x="240" y="610" width="320" height="40" as="geometry" />
        </mxCell>
        <mxCell id="fbM_-Z5amjwGGvdpz4ER-33" value="" style="endArrow=classic;html=1;rounded=0;entryX=0.5;entryY=0;entryDx=0;entryDy=0;fontSize=14;" edge="1" parent="1">
          <mxGeometry width="50" height="50" relative="1" as="geometry">
            <mxPoint x="400" y="580" as="sourcePoint" />
            <mxPoint x="400" y="610" as="targetPoint" />
          </mxGeometry>
        </mxCell>
        <mxCell id="fbM_-Z5amjwGGvdpz4ER-34" value="Duplicates found ?" style="shape=hexagon;perimeter=hexagonPerimeter2;whiteSpace=wrap;html=1;fixedSize=1;fontSize=14;" vertex="1" parent="1">
          <mxGeometry x="330" y="680" width="150" height="30" as="geometry" />
        </mxCell>
        <mxCell id="fbM_-Z5amjwGGvdpz4ER-35" value="" style="endArrow=classic;html=1;rounded=0;entryX=0.5;entryY=0;entryDx=0;entryDy=0;fontSize=14;" edge="1" parent="1">
          <mxGeometry width="50" height="50" relative="1" as="geometry">
            <mxPoint x="399.62" y="650" as="sourcePoint" />
            <mxPoint x="399.62" y="680" as="targetPoint" />
          </mxGeometry>
        </mxCell>
        <mxCell id="fbM_-Z5amjwGGvdpz4ER-36" value="" style="endArrow=classic;html=1;rounded=0;entryX=0.5;entryY=0;entryDx=0;entryDy=0;fontSize=14;" edge="1" parent="1">
          <mxGeometry width="50" height="50" relative="1" as="geometry">
            <mxPoint x="330" y="695" as="sourcePoint" />
            <mxPoint x="246" y="730" as="targetPoint" />
            <Array as="points">
              <mxPoint x="246" y="695" />
            </Array>
          </mxGeometry>
        </mxCell>
        <mxCell id="fbM_-Z5amjwGGvdpz4ER-37" value="" style="endArrow=classic;html=1;rounded=0;entryX=0.5;entryY=0;entryDx=0;entryDy=0;exitX=1;exitY=0.5;exitDx=0;exitDy=0;fontSize=14;" edge="1" parent="1" source="fbM_-Z5amjwGGvdpz4ER-34">
          <mxGeometry width="50" height="50" relative="1" as="geometry">
            <mxPoint x="644" y="690" as="sourcePoint" />
            <mxPoint x="560" y="725" as="targetPoint" />
            <Array as="points">
              <mxPoint x="560" y="695" />
            </Array>
          </mxGeometry>
        </mxCell>
        <mxCell id="fbM_-Z5amjwGGvdpz4ER-38" value="Show error message about duplicates" style="rounded=1;whiteSpace=wrap;html=1;arcSize=50;fontSize=14;" vertex="1" parent="1">
          <mxGeometry x="90" y="730" width="320" height="40" as="geometry" />
        </mxCell>
        <mxCell id="fbM_-Z5amjwGGvdpz4ER-39" value="Create user account" style="rounded=1;whiteSpace=wrap;html=1;arcSize=50;fontSize=14;" vertex="1" parent="1">
          <mxGeometry x="480" y="728" width="170" height="40" as="geometry" />
        </mxCell>
        <mxCell id="fbM_-Z5amjwGGvdpz4ER-40" value="Set phone number and role" style="rounded=1;whiteSpace=wrap;html=1;arcSize=50;fontSize=14;" vertex="1" parent="1">
          <mxGeometry x="465" y="800" width="200" height="40" as="geometry" />
        </mxCell>
        <mxCell id="fbM_-Z5amjwGGvdpz4ER-41" value="Save user" style="rounded=1;whiteSpace=wrap;html=1;arcSize=50;fontSize=14;" vertex="1" parent="1">
          <mxGeometry x="483" y="870" width="160" height="40" as="geometry" />
        </mxCell>
        <mxCell id="fbM_-Z5amjwGGvdpz4ER-42" value="Log user creation (medium level)" style="rounded=1;whiteSpace=wrap;html=1;arcSize=50;fontSize=14;" vertex="1" parent="1">
          <mxGeometry x="408" y="940" width="282" height="40" as="geometry" />
        </mxCell>
        <mxCell id="fbM_-Z5amjwGGvdpz4ER-43" value="Send account creation email&amp;nbsp;" style="rounded=1;whiteSpace=wrap;html=1;arcSize=50;fontSize=14;" vertex="1" parent="1">
          <mxGeometry x="475" y="1008" width="200" height="40" as="geometry" />
        </mxCell>
        <mxCell id="fbM_-Z5amjwGGvdpz4ER-44" value="Show success message" style="rounded=1;whiteSpace=wrap;html=1;arcSize=50;fontSize=14;" vertex="1" parent="1">
          <mxGeometry x="475" y="1075" width="200" height="40" as="geometry" />
        </mxCell>
        <mxCell id="fbM_-Z5amjwGGvdpz4ER-45" value="Render register page" style="rounded=1;whiteSpace=wrap;html=1;arcSize=50;fontSize=14;" vertex="1" parent="1">
          <mxGeometry x="475" y="1142" width="200" height="40" as="geometry" />
        </mxCell>
        <mxCell id="fbM_-Z5amjwGGvdpz4ER-46" value="" style="endArrow=classic;html=1;rounded=0;entryX=0.5;entryY=0;entryDx=0;entryDy=0;fontSize=14;" edge="1" parent="1">
          <mxGeometry width="50" height="50" relative="1" as="geometry">
            <mxPoint x="560" y="770" as="sourcePoint" />
            <mxPoint x="560" y="800" as="targetPoint" />
          </mxGeometry>
        </mxCell>
        <mxCell id="fbM_-Z5amjwGGvdpz4ER-47" value="" style="endArrow=classic;html=1;rounded=0;entryX=0.5;entryY=0;entryDx=0;entryDy=0;fontSize=14;" edge="1" parent="1">
          <mxGeometry width="50" height="50" relative="1" as="geometry">
            <mxPoint x="562.62" y="840" as="sourcePoint" />
            <mxPoint x="562.62" y="870" as="targetPoint" />
          </mxGeometry>
        </mxCell>
        <mxCell id="fbM_-Z5amjwGGvdpz4ER-48" value="" style="endArrow=classic;html=1;rounded=0;entryX=0.5;entryY=0;entryDx=0;entryDy=0;fontSize=14;" edge="1" parent="1">
          <mxGeometry width="50" height="50" relative="1" as="geometry">
            <mxPoint x="564.62" y="910" as="sourcePoint" />
            <mxPoint x="564.62" y="940" as="targetPoint" />
          </mxGeometry>
        </mxCell>
        <mxCell id="fbM_-Z5amjwGGvdpz4ER-49" value="" style="endArrow=classic;html=1;rounded=0;entryX=0.5;entryY=0;entryDx=0;entryDy=0;fontSize=14;" edge="1" parent="1">
          <mxGeometry width="50" height="50" relative="1" as="geometry">
            <mxPoint x="560.62" y="979" as="sourcePoint" />
            <mxPoint x="560.62" y="1009" as="targetPoint" />
          </mxGeometry>
        </mxCell>
        <mxCell id="fbM_-Z5amjwGGvdpz4ER-50" value="" style="endArrow=classic;html=1;rounded=0;entryX=0.5;entryY=0;entryDx=0;entryDy=0;fontSize=14;" edge="1" parent="1">
          <mxGeometry width="50" height="50" relative="1" as="geometry">
            <mxPoint x="561.62" y="1047" as="sourcePoint" />
            <mxPoint x="561.62" y="1077" as="targetPoint" />
          </mxGeometry>
        </mxCell>
        <mxCell id="fbM_-Z5amjwGGvdpz4ER-51" value="" style="endArrow=classic;html=1;rounded=0;entryX=0.5;entryY=0;entryDx=0;entryDy=0;fontSize=14;" edge="1" parent="1">
          <mxGeometry width="50" height="50" relative="1" as="geometry">
            <mxPoint x="560.62" y="1113" as="sourcePoint" />
            <mxPoint x="560.62" y="1143" as="targetPoint" />
          </mxGeometry>
        </mxCell>
        <mxCell id="fbM_-Z5amjwGGvdpz4ER-52" value="yes" style="text;html=1;align=center;verticalAlign=middle;resizable=0;points=[];autosize=1;strokeColor=none;fillColor=none;" vertex="1" parent="1">
          <mxGeometry x="300" y="670" width="40" height="30" as="geometry" />
        </mxCell>
        <mxCell id="fbM_-Z5amjwGGvdpz4ER-53" value="NO" style="text;html=1;align=center;verticalAlign=middle;resizable=0;points=[];autosize=1;strokeColor=none;fillColor=none;" vertex="1" parent="1">
          <mxGeometry x="470" y="671" width="40" height="30" as="geometry" />
        </mxCell>
        <mxCell id="fbM_-Z5amjwGGvdpz4ER-54" value="Render register page" style="rounded=1;whiteSpace=wrap;html=1;arcSize=50;fontSize=14;" vertex="1" parent="1">
          <mxGeometry x="133" y="800" width="200" height="40" as="geometry" />
        </mxCell>
        <mxCell id="fbM_-Z5amjwGGvdpz4ER-55" value="" style="endArrow=classic;html=1;rounded=0;entryX=0.5;entryY=0;entryDx=0;entryDy=0;fontSize=14;" edge="1" parent="1">
          <mxGeometry width="50" height="50" relative="1" as="geometry">
            <mxPoint x="239.63" y="770" as="sourcePoint" />
            <mxPoint x="239.63" y="800" as="targetPoint" />
          </mxGeometry>
        </mxCell>
        <mxCell id="fbM_-Z5amjwGGvdpz4ER-56" value="" style="endArrow=classic;html=1;rounded=0;entryX=0.5;entryY=0;entryDx=0;entryDy=0;fontSize=14;" edge="1" parent="1">
          <mxGeometry width="50" height="50" relative="1" as="geometry">
            <mxPoint x="240" y="840" as="sourcePoint" />
            <mxPoint x="240" y="870" as="targetPoint" />
          </mxGeometry>
        </mxCell>
        <mxCell id="fbM_-Z5amjwGGvdpz4ER-57" value="" style="strokeWidth=2;html=1;shape=mxgraph.flowchart.start_2;whiteSpace=wrap;fillColor=#000000;fontSize=14;" vertex="1" parent="1">
          <mxGeometry x="220" y="870" width="40" height="40" as="geometry" />
        </mxCell>
        <mxCell id="fbM_-Z5amjwGGvdpz4ER-58" value="Yes" style="text;html=1;align=center;verticalAlign=middle;resizable=0;points=[];autosize=1;strokeColor=none;fillColor=none;" vertex="1" parent="1">
          <mxGeometry x="435" y="320" width="40" height="30" as="geometry" />
        </mxCell>
        <mxCell id="fbM_-Z5amjwGGvdpz4ER-59" value="No" style="text;html=1;align=center;verticalAlign=middle;resizable=0;points=[];autosize=1;strokeColor=none;fillColor=none;" vertex="1" parent="1">
          <mxGeometry x="603" y="320" width="40" height="30" as="geometry" />
        </mxCell>
        <mxCell id="fbM_-Z5amjwGGvdpz4ER-60" value="" style="endArrow=classic;html=1;rounded=0;entryX=0.5;entryY=0;entryDx=0;entryDy=0;fontSize=14;" edge="1" parent="1">
          <mxGeometry width="50" height="50" relative="1" as="geometry">
            <mxPoint x="563" y="1182" as="sourcePoint" />
            <mxPoint x="563" y="1212" as="targetPoint" />
          </mxGeometry>
        </mxCell>
        <mxCell id="fbM_-Z5amjwGGvdpz4ER-61" value="" style="strokeWidth=2;html=1;shape=mxgraph.flowchart.start_2;whiteSpace=wrap;fillColor=#000000;fontSize=14;" vertex="1" parent="1">
          <mxGeometry x="543" y="1212" width="40" height="40" as="geometry" />
        </mxCell>
        <mxCell id="fbM_-Z5amjwGGvdpz4ER-62" value="NO" style="text;html=1;align=center;verticalAlign=middle;resizable=0;points=[];autosize=1;strokeColor=none;fillColor=none;" vertex="1" parent="1">
          <mxGeometry x="767" y="272" width="40" height="30" as="geometry" />
        </mxCell>
        <mxCell id="fbM_-Z5amjwGGvdpz4ER-63" value="Yes" style="text;html=1;align=center;verticalAlign=middle;resizable=0;points=[];autosize=1;strokeColor=none;fillColor=none;" vertex="1" parent="1">
          <mxGeometry x="590" y="270" width="40" height="30" as="geometry" />
        </mxCell>
        <mxCell id="fbM_-Z5amjwGGvdpz4ER-64" value="" style="endArrow=classic;html=1;rounded=0;entryX=0.5;entryY=0;entryDx=0;entryDy=0;fontSize=14;" edge="1" parent="1">
          <mxGeometry width="50" height="50" relative="1" as="geometry">
            <mxPoint x="915" y="440" as="sourcePoint" />
            <mxPoint x="915" y="470" as="targetPoint" />
          </mxGeometry>
        </mxCell>
        <mxCell id="fbM_-Z5amjwGGvdpz4ER-65" value="" style="strokeWidth=2;html=1;shape=mxgraph.flowchart.start_2;whiteSpace=wrap;fillColor=#000000;fontSize=14;" vertex="1" parent="1">
          <mxGeometry x="895" y="470" width="40" height="40" as="geometry" />
        </mxCell>
        <mxCell id="fbM_-Z5amjwGGvdpz4ER-66" value="" style="endArrow=none;html=1;rounded=0;entryX=0.5;entryY=1;entryDx=0;entryDy=0;" edge="1" parent="1" target="fbM_-Z5amjwGGvdpz4ER-25">
          <mxGeometry width="50" height="50" relative="1" as="geometry">
            <mxPoint x="400" y="1320" as="sourcePoint" />
            <mxPoint x="690" y="810" as="targetPoint" />
            <Array as="points">
              <mxPoint x="720" y="1320" />
            </Array>
          </mxGeometry>
        </mxCell>
      </root>
    </mxGraphModel>
  </diagram>
  <diagram id="evy0ZckkEHq--wn4PvEX" name="Flowchart Login">
    <mxGraphModel dx="3437" dy="971" grid="1" gridSize="10" guides="1" tooltips="1" connect="1" arrows="1" fold="1" page="1" pageScale="1" pageWidth="827" pageHeight="1169" math="0" shadow="0">
      <root>
        <mxCell id="0" />
        <mxCell id="1" parent="0" />
        <mxCell id="KTOe_q9tkBcro1_vuGf5-65" value="" style="strokeWidth=2;html=1;shape=mxgraph.flowchart.start_1;whiteSpace=wrap;fillColor=#000000;fontSize=14;" parent="1" vertex="1">
          <mxGeometry x="-753" y="52" width="60" height="30" as="geometry" />
        </mxCell>
        <mxCell id="KTOe_q9tkBcro1_vuGf5-66" value="&lt;font&gt;Check if user is logged in&lt;/font&gt;" style="rounded=1;whiteSpace=wrap;html=1;arcSize=50;fontSize=14;" parent="1" vertex="1">
          <mxGeometry x="-860" y="120" width="290" height="40" as="geometry" />
        </mxCell>
        <mxCell id="KTOe_q9tkBcro1_vuGf5-67" value="" style="endArrow=classic;html=1;rounded=0;exitX=0.5;exitY=1;exitDx=0;exitDy=0;exitPerimeter=0;entryX=0.473;entryY=-0.05;entryDx=0;entryDy=0;entryPerimeter=0;fontSize=14;" parent="1" source="KTOe_q9tkBcro1_vuGf5-65" target="KTOe_q9tkBcro1_vuGf5-66" edge="1">
          <mxGeometry width="50" height="50" relative="1" as="geometry">
            <mxPoint x="-784" y="350" as="sourcePoint" />
            <mxPoint x="-724" y="110" as="targetPoint" />
          </mxGeometry>
        </mxCell>
        <mxCell id="KTOe_q9tkBcro1_vuGf5-69" value="" style="endArrow=classic;html=1;rounded=0;exitX=0.473;exitY=1.015;exitDx=0;exitDy=0;entryX=0.5;entryY=0;entryDx=0;entryDy=0;exitPerimeter=0;fontSize=14;" parent="1" source="KTOe_q9tkBcro1_vuGf5-66" edge="1">
          <mxGeometry width="50" height="50" relative="1" as="geometry">
            <mxPoint x="-714" y="90" as="sourcePoint" />
            <mxPoint x="-723.9999999999998" y="190" as="targetPoint" />
          </mxGeometry>
        </mxCell>
        <mxCell id="KTOe_q9tkBcro1_vuGf5-70" value="is role Admin?" style="shape=hexagon;perimeter=hexagonPerimeter2;whiteSpace=wrap;html=1;fixedSize=1;fontSize=14;" parent="1" vertex="1">
          <mxGeometry x="-798" y="190" width="150" height="30" as="geometry" />
        </mxCell>
        <mxCell id="KTOe_q9tkBcro1_vuGf5-72" value="No" style="text;html=1;align=center;verticalAlign=middle;resizable=0;points=[];autosize=1;strokeColor=none;fillColor=none;fontSize=14;" parent="1" vertex="1">
          <mxGeometry x="-659" y="178" width="40" height="30" as="geometry" />
        </mxCell>
        <mxCell id="KTOe_q9tkBcro1_vuGf5-73" value="Yes" style="text;html=1;align=center;verticalAlign=middle;resizable=0;points=[];autosize=1;strokeColor=none;fillColor=none;fontSize=14;" parent="1" vertex="1">
          <mxGeometry x="-831" y="175" width="50" height="30" as="geometry" />
        </mxCell>
        <mxCell id="KTOe_q9tkBcro1_vuGf5-74" value="" style="endArrow=classic;html=1;rounded=0;entryX=0.5;entryY=0;entryDx=0;entryDy=0;fontSize=14;" parent="1" edge="1">
          <mxGeometry width="50" height="50" relative="1" as="geometry">
            <mxPoint x="-650" y="206" as="sourcePoint" />
            <mxPoint x="-575" y="231" as="targetPoint" />
            <Array as="points">
              <mxPoint x="-575" y="206" />
            </Array>
          </mxGeometry>
        </mxCell>
        <mxCell id="KTOe_q9tkBcro1_vuGf5-75" value="&lt;font&gt;Check if user is logged in&lt;/font&gt;" style="rounded=1;whiteSpace=wrap;html=1;arcSize=50;fontSize=14;" parent="1" vertex="1">
          <mxGeometry x="-693" y="232" width="220" height="40" as="geometry" />
        </mxCell>
        <mxCell id="KTOe_q9tkBcro1_vuGf5-76" value="" style="endArrow=classic;html=1;rounded=0;exitX=0.66;exitY=1;exitDx=0;exitDy=0;fontSize=14;exitPerimeter=0;" parent="1" edge="1">
          <mxGeometry width="50" height="50" relative="1" as="geometry">
            <mxPoint x="-798" y="205.00000000000006" as="sourcePoint" />
            <mxPoint x="-870" y="230" as="targetPoint" />
            <Array as="points">
              <mxPoint x="-870" y="205" />
            </Array>
          </mxGeometry>
        </mxCell>
        <mxCell id="KTOe_q9tkBcro1_vuGf5-77" value="&lt;font&gt;Check if user is logged in&lt;/font&gt;" style="rounded=1;whiteSpace=wrap;html=1;arcSize=50;fontSize=14;" parent="1" vertex="1">
          <mxGeometry x="-976" y="231" width="220" height="40" as="geometry" />
        </mxCell>
        <mxCell id="KTOe_q9tkBcro1_vuGf5-78" value="" style="strokeWidth=2;html=1;shape=mxgraph.flowchart.decision;whiteSpace=wrap;" parent="1" vertex="1">
          <mxGeometry x="-765" y="270" width="65" height="60" as="geometry" />
        </mxCell>
        <mxCell id="KTOe_q9tkBcro1_vuGf5-79" value="" style="endArrow=classic;html=1;rounded=0;entryX=1.059;entryY=0.508;entryDx=0;entryDy=0;fontSize=14;exitX=0.569;exitY=1.046;exitDx=0;exitDy=0;exitPerimeter=0;entryPerimeter=0;" parent="1" source="KTOe_q9tkBcro1_vuGf5-75" target="KTOe_q9tkBcro1_vuGf5-78" edge="1">
          <mxGeometry width="50" height="50" relative="1" as="geometry">
            <mxPoint x="-565" y="327" as="sourcePoint" />
            <mxPoint x="-640" y="302" as="targetPoint" />
            <Array as="points">
              <mxPoint x="-570" y="302" />
            </Array>
          </mxGeometry>
        </mxCell>
        <mxCell id="KTOe_q9tkBcro1_vuGf5-80" value="" style="endArrow=classic;html=1;rounded=0;exitX=0.438;exitY=1.031;exitDx=0;exitDy=0;fontSize=14;exitPerimeter=0;" parent="1" source="KTOe_q9tkBcro1_vuGf5-77" edge="1">
          <mxGeometry width="50" height="50" relative="1" as="geometry">
            <mxPoint x="-837" y="325" as="sourcePoint" />
            <mxPoint x="-765" y="300.00000000000006" as="targetPoint" />
            <Array as="points">
              <mxPoint x="-880" y="300" />
            </Array>
          </mxGeometry>
        </mxCell>
        <mxCell id="KTOe_q9tkBcro1_vuGf5-81" value="" style="endArrow=classic;html=1;rounded=0;entryX=0.5;entryY=0;entryDx=0;entryDy=0;fontSize=14;" parent="1" edge="1">
          <mxGeometry width="50" height="50" relative="1" as="geometry">
            <mxPoint x="-732" y="330" as="sourcePoint" />
            <mxPoint x="-732.9999999999998" y="354.5" as="targetPoint" />
          </mxGeometry>
        </mxCell>
        <mxCell id="KTOe_q9tkBcro1_vuGf5-82" value="is role Admin?" style="shape=hexagon;perimeter=hexagonPerimeter2;whiteSpace=wrap;html=1;fixedSize=1;fontSize=14;" parent="1" vertex="1">
          <mxGeometry x="-814" y="355" width="170" height="30" as="geometry" />
        </mxCell>
        <mxCell id="KTOe_q9tkBcro1_vuGf5-83" value="" style="endArrow=classic;html=1;rounded=0;exitX=0;exitY=0.5;exitDx=0;exitDy=0;fontSize=14;" parent="1" source="KTOe_q9tkBcro1_vuGf5-82" edge="1">
          <mxGeometry width="50" height="50" relative="1" as="geometry">
            <mxPoint x="-888" y="370.00000000000006" as="sourcePoint" />
            <mxPoint x="-960" y="395" as="targetPoint" />
            <Array as="points">
              <mxPoint x="-960" y="370" />
            </Array>
          </mxGeometry>
        </mxCell>
        <mxCell id="KTOe_q9tkBcro1_vuGf5-84" value="" style="endArrow=classic;html=1;rounded=0;entryX=0.5;entryY=0;entryDx=0;entryDy=0;fontSize=14;exitX=1;exitY=0.5;exitDx=0;exitDy=0;" parent="1" source="KTOe_q9tkBcro1_vuGf5-82" edge="1">
          <mxGeometry width="50" height="50" relative="1" as="geometry">
            <mxPoint x="-548" y="370" as="sourcePoint" />
            <mxPoint x="-473" y="395" as="targetPoint" />
            <Array as="points">
              <mxPoint x="-473" y="370" />
            </Array>
          </mxGeometry>
        </mxCell>
        <mxCell id="KTOe_q9tkBcro1_vuGf5-85" value="Send account creation email&amp;nbsp;" style="rounded=1;whiteSpace=wrap;html=1;arcSize=50;fontSize=14;" parent="1" vertex="1">
          <mxGeometry x="-1050" y="398" width="200" height="40" as="geometry" />
        </mxCell>
        <mxCell id="KTOe_q9tkBcro1_vuGf5-86" value="Show success message" style="rounded=1;whiteSpace=wrap;html=1;arcSize=50;fontSize=14;" parent="1" vertex="1">
          <mxGeometry x="-1050" y="465" width="200" height="40" as="geometry" />
        </mxCell>
        <mxCell id="KTOe_q9tkBcro1_vuGf5-87" value="Render register page" style="rounded=1;whiteSpace=wrap;html=1;arcSize=50;fontSize=14;" parent="1" vertex="1">
          <mxGeometry x="-1050" y="532" width="200" height="40" as="geometry" />
        </mxCell>
        <mxCell id="KTOe_q9tkBcro1_vuGf5-88" value="" style="endArrow=classic;html=1;rounded=0;entryX=0.5;entryY=0;entryDx=0;entryDy=0;fontSize=14;" parent="1" edge="1">
          <mxGeometry width="50" height="50" relative="1" as="geometry">
            <mxPoint x="-963.38" y="437" as="sourcePoint" />
            <mxPoint x="-963.38" y="467" as="targetPoint" />
          </mxGeometry>
        </mxCell>
        <mxCell id="KTOe_q9tkBcro1_vuGf5-89" value="" style="endArrow=classic;html=1;rounded=0;entryX=0.5;entryY=0;entryDx=0;entryDy=0;fontSize=14;" parent="1" edge="1">
          <mxGeometry width="50" height="50" relative="1" as="geometry">
            <mxPoint x="-964.38" y="503" as="sourcePoint" />
            <mxPoint x="-964.38" y="533" as="targetPoint" />
          </mxGeometry>
        </mxCell>
        <mxCell id="KTOe_q9tkBcro1_vuGf5-90" value="" style="endArrow=classic;html=1;rounded=0;entryX=0.5;entryY=0;entryDx=0;entryDy=0;fontSize=14;" parent="1" edge="1">
          <mxGeometry width="50" height="50" relative="1" as="geometry">
            <mxPoint x="-962" y="572" as="sourcePoint" />
            <mxPoint x="-962" y="602" as="targetPoint" />
          </mxGeometry>
        </mxCell>
        <mxCell id="KTOe_q9tkBcro1_vuGf5-91" value="" style="strokeWidth=2;html=1;shape=mxgraph.flowchart.start_2;whiteSpace=wrap;fillColor=#000000;fontSize=14;" parent="1" vertex="1">
          <mxGeometry x="-982" y="602" width="40" height="40" as="geometry" />
        </mxCell>
        <mxCell id="KTOe_q9tkBcro1_vuGf5-92" value="&lt;font&gt;Check if user is logged in&lt;/font&gt;" style="rounded=1;whiteSpace=wrap;html=1;arcSize=50;fontSize=14;" parent="1" vertex="1">
          <mxGeometry x="-585" y="400" width="220" height="40" as="geometry" />
        </mxCell>
        <mxCell id="KTOe_q9tkBcro1_vuGf5-93" value="is role Admin?" style="shape=hexagon;perimeter=hexagonPerimeter2;whiteSpace=wrap;html=1;fixedSize=1;fontSize=14;" parent="1" vertex="1">
          <mxGeometry x="-551" y="463" width="170" height="30" as="geometry" />
        </mxCell>
        <mxCell id="KTOe_q9tkBcro1_vuGf5-94" value="" style="endArrow=classic;html=1;rounded=0;entryX=0.5;entryY=0;entryDx=0;entryDy=0;fontSize=14;" parent="1" edge="1">
          <mxGeometry width="50" height="50" relative="1" as="geometry">
            <mxPoint x="-472" y="438" as="sourcePoint" />
            <mxPoint x="-472.9999999999998" y="462.5" as="targetPoint" />
          </mxGeometry>
        </mxCell>
        <mxCell id="KTOe_q9tkBcro1_vuGf5-95" value="" style="endArrow=classic;html=1;rounded=0;exitX=0;exitY=0.5;exitDx=0;exitDy=0;fontSize=14;" parent="1" edge="1">
          <mxGeometry width="50" height="50" relative="1" as="geometry">
            <mxPoint x="-551" y="479" as="sourcePoint" />
            <mxPoint x="-697" y="504" as="targetPoint" />
            <Array as="points">
              <mxPoint x="-697" y="479" />
            </Array>
          </mxGeometry>
        </mxCell>
        <mxCell id="KTOe_q9tkBcro1_vuGf5-96" value="Send account creation email&amp;nbsp;" style="rounded=1;whiteSpace=wrap;html=1;arcSize=50;fontSize=14;" parent="1" vertex="1">
          <mxGeometry x="-787" y="507" width="200" height="40" as="geometry" />
        </mxCell>
        <mxCell id="KTOe_q9tkBcro1_vuGf5-97" value="Show success message" style="rounded=1;whiteSpace=wrap;html=1;arcSize=50;fontSize=14;" parent="1" vertex="1">
          <mxGeometry x="-787" y="574" width="200" height="40" as="geometry" />
        </mxCell>
        <mxCell id="KTOe_q9tkBcro1_vuGf5-98" value="Render register page" style="rounded=1;whiteSpace=wrap;html=1;arcSize=50;fontSize=14;" parent="1" vertex="1">
          <mxGeometry x="-787" y="641" width="200" height="40" as="geometry" />
        </mxCell>
        <mxCell id="KTOe_q9tkBcro1_vuGf5-99" value="" style="endArrow=classic;html=1;rounded=0;entryX=0.5;entryY=0;entryDx=0;entryDy=0;fontSize=14;" parent="1" edge="1">
          <mxGeometry width="50" height="50" relative="1" as="geometry">
            <mxPoint x="-700.38" y="546" as="sourcePoint" />
            <mxPoint x="-700.38" y="576" as="targetPoint" />
          </mxGeometry>
        </mxCell>
        <mxCell id="KTOe_q9tkBcro1_vuGf5-100" value="" style="endArrow=classic;html=1;rounded=0;entryX=0.5;entryY=0;entryDx=0;entryDy=0;fontSize=14;" parent="1" edge="1">
          <mxGeometry width="50" height="50" relative="1" as="geometry">
            <mxPoint x="-701.38" y="612" as="sourcePoint" />
            <mxPoint x="-701.38" y="642" as="targetPoint" />
          </mxGeometry>
        </mxCell>
        <mxCell id="KTOe_q9tkBcro1_vuGf5-101" value="" style="endArrow=classic;html=1;rounded=0;entryX=0.5;entryY=0;entryDx=0;entryDy=0;fontSize=14;" parent="1" edge="1">
          <mxGeometry width="50" height="50" relative="1" as="geometry">
            <mxPoint x="-699" y="681" as="sourcePoint" />
            <mxPoint x="-699" y="711" as="targetPoint" />
          </mxGeometry>
        </mxCell>
        <mxCell id="KTOe_q9tkBcro1_vuGf5-102" value="" style="strokeWidth=2;html=1;shape=mxgraph.flowchart.start_2;whiteSpace=wrap;fillColor=#000000;fontSize=14;" parent="1" vertex="1">
          <mxGeometry x="-719" y="711" width="40" height="40" as="geometry" />
        </mxCell>
        <mxCell id="KTOe_q9tkBcro1_vuGf5-103" value="" style="endArrow=classic;html=1;rounded=0;exitX=1;exitY=0.5;exitDx=0;exitDy=0;entryX=0.5;entryY=0;entryDx=0;entryDy=0;fontSize=14;" parent="1" edge="1">
          <mxGeometry width="50" height="50" relative="1" as="geometry">
            <mxPoint x="-380" y="478" as="sourcePoint" />
            <mxPoint x="-76" y="503" as="targetPoint" />
            <Array as="points">
              <mxPoint x="-76" y="473" />
            </Array>
          </mxGeometry>
        </mxCell>
        <mxCell id="KTOe_q9tkBcro1_vuGf5-104" value="is role Admin?" style="shape=hexagon;perimeter=hexagonPerimeter2;whiteSpace=wrap;html=1;fixedSize=1;fontSize=14;" parent="1" vertex="1">
          <mxGeometry x="-161" y="505" width="170" height="30" as="geometry" />
        </mxCell>
        <mxCell id="KTOe_q9tkBcro1_vuGf5-105" value="Send account creation email&amp;nbsp;" style="rounded=1;whiteSpace=wrap;html=1;arcSize=50;fontSize=14;" parent="1" vertex="1">
          <mxGeometry x="-410" y="545" width="200" height="40" as="geometry" />
        </mxCell>
        <mxCell id="KTOe_q9tkBcro1_vuGf5-106" value="Show success message" style="rounded=1;whiteSpace=wrap;html=1;arcSize=50;fontSize=14;" parent="1" vertex="1">
          <mxGeometry x="-410" y="612" width="200" height="40" as="geometry" />
        </mxCell>
        <mxCell id="KTOe_q9tkBcro1_vuGf5-107" value="" style="endArrow=classic;html=1;rounded=0;entryX=0.5;entryY=0;entryDx=0;entryDy=0;fontSize=14;" parent="1" edge="1">
          <mxGeometry width="50" height="50" relative="1" as="geometry">
            <mxPoint x="-323.38" y="584" as="sourcePoint" />
            <mxPoint x="-323.38" y="614" as="targetPoint" />
          </mxGeometry>
        </mxCell>
        <mxCell id="KTOe_q9tkBcro1_vuGf5-108" value="" style="endArrow=classic;html=1;rounded=0;entryX=0.5;entryY=0;entryDx=0;entryDy=0;fontSize=14;" parent="1" edge="1">
          <mxGeometry width="50" height="50" relative="1" as="geometry">
            <mxPoint x="-324.38" y="650" as="sourcePoint" />
            <mxPoint x="-324.38" y="680" as="targetPoint" />
          </mxGeometry>
        </mxCell>
        <mxCell id="KTOe_q9tkBcro1_vuGf5-109" value="" style="endArrow=classic;html=1;rounded=0;exitX=0;exitY=0.5;exitDx=0;exitDy=0;fontSize=14;" parent="1" edge="1">
          <mxGeometry width="50" height="50" relative="1" as="geometry">
            <mxPoint x="-161" y="521" as="sourcePoint" />
            <mxPoint x="-307" y="546" as="targetPoint" />
            <Array as="points">
              <mxPoint x="-307" y="521" />
            </Array>
          </mxGeometry>
        </mxCell>
        <mxCell id="KTOe_q9tkBcro1_vuGf5-110" value="is role Admin?" style="shape=hexagon;perimeter=hexagonPerimeter2;whiteSpace=wrap;html=1;fixedSize=1;fontSize=14;" parent="1" vertex="1">
          <mxGeometry x="-406" y="680" width="170" height="30" as="geometry" />
        </mxCell>
        <mxCell id="KTOe_q9tkBcro1_vuGf5-111" value="is role Admin?" style="shape=hexagon;perimeter=hexagonPerimeter2;whiteSpace=wrap;html=1;fixedSize=1;fontSize=14;" parent="1" vertex="1">
          <mxGeometry x="-600" y="748" width="170" height="30" as="geometry" />
        </mxCell>
        <mxCell id="KTOe_q9tkBcro1_vuGf5-112" value="" style="endArrow=classic;html=1;rounded=0;exitX=0;exitY=0.5;exitDx=0;exitDy=0;fontSize=14;entryX=0.5;entryY=0;entryDx=0;entryDy=0;" parent="1" source="KTOe_q9tkBcro1_vuGf5-110" target="KTOe_q9tkBcro1_vuGf5-111" edge="1">
          <mxGeometry width="50" height="50" relative="1" as="geometry">
            <mxPoint x="-402" y="700" as="sourcePoint" />
            <mxPoint x="-548" y="725" as="targetPoint" />
            <Array as="points">
              <mxPoint x="-520" y="695" />
            </Array>
          </mxGeometry>
        </mxCell>
        <mxCell id="KTOe_q9tkBcro1_vuGf5-113" value="Send account creation email&amp;nbsp;" style="rounded=1;whiteSpace=wrap;html=1;arcSize=50;fontSize=14;" parent="1" vertex="1">
          <mxGeometry x="-756" y="809" width="200" height="40" as="geometry" />
        </mxCell>
        <mxCell id="KTOe_q9tkBcro1_vuGf5-114" value="Show success message" style="rounded=1;whiteSpace=wrap;html=1;arcSize=50;fontSize=14;" parent="1" vertex="1">
          <mxGeometry x="-756" y="876" width="200" height="40" as="geometry" />
        </mxCell>
        <mxCell id="KTOe_q9tkBcro1_vuGf5-115" value="Render register page" style="rounded=1;whiteSpace=wrap;html=1;arcSize=50;fontSize=14;" parent="1" vertex="1">
          <mxGeometry x="-756" y="943" width="200" height="40" as="geometry" />
        </mxCell>
        <mxCell id="KTOe_q9tkBcro1_vuGf5-116" value="" style="endArrow=classic;html=1;rounded=0;entryX=0.5;entryY=0;entryDx=0;entryDy=0;fontSize=14;" parent="1" edge="1">
          <mxGeometry width="50" height="50" relative="1" as="geometry">
            <mxPoint x="-669.38" y="848" as="sourcePoint" />
            <mxPoint x="-669.38" y="878" as="targetPoint" />
          </mxGeometry>
        </mxCell>
        <mxCell id="KTOe_q9tkBcro1_vuGf5-117" value="" style="endArrow=classic;html=1;rounded=0;entryX=0.5;entryY=0;entryDx=0;entryDy=0;fontSize=14;" parent="1" edge="1">
          <mxGeometry width="50" height="50" relative="1" as="geometry">
            <mxPoint x="-670.38" y="914" as="sourcePoint" />
            <mxPoint x="-670.38" y="944" as="targetPoint" />
          </mxGeometry>
        </mxCell>
        <mxCell id="KTOe_q9tkBcro1_vuGf5-118" value="" style="endArrow=classic;html=1;rounded=0;entryX=0.5;entryY=0;entryDx=0;entryDy=0;fontSize=14;" parent="1" edge="1">
          <mxGeometry width="50" height="50" relative="1" as="geometry">
            <mxPoint x="-668" y="983" as="sourcePoint" />
            <mxPoint x="-668" y="1013" as="targetPoint" />
          </mxGeometry>
        </mxCell>
        <mxCell id="KTOe_q9tkBcro1_vuGf5-119" value="" style="strokeWidth=2;html=1;shape=mxgraph.flowchart.start_2;whiteSpace=wrap;fillColor=#000000;fontSize=14;" parent="1" vertex="1">
          <mxGeometry x="-688" y="1013" width="40" height="40" as="geometry" />
        </mxCell>
        <mxCell id="KTOe_q9tkBcro1_vuGf5-120" value="Send account creation email&amp;nbsp;" style="rounded=1;whiteSpace=wrap;html=1;arcSize=50;fontSize=14;" parent="1" vertex="1">
          <mxGeometry x="-490" y="809" width="200" height="40" as="geometry" />
        </mxCell>
        <mxCell id="KTOe_q9tkBcro1_vuGf5-121" value="Show success message" style="rounded=1;whiteSpace=wrap;html=1;arcSize=50;fontSize=14;" parent="1" vertex="1">
          <mxGeometry x="-490" y="876" width="200" height="40" as="geometry" />
        </mxCell>
        <mxCell id="KTOe_q9tkBcro1_vuGf5-122" value="Render register page" style="rounded=1;whiteSpace=wrap;html=1;arcSize=50;fontSize=14;" parent="1" vertex="1">
          <mxGeometry x="-490" y="943" width="200" height="40" as="geometry" />
        </mxCell>
        <mxCell id="KTOe_q9tkBcro1_vuGf5-123" value="" style="endArrow=classic;html=1;rounded=0;entryX=0.5;entryY=0;entryDx=0;entryDy=0;fontSize=14;" parent="1" edge="1">
          <mxGeometry width="50" height="50" relative="1" as="geometry">
            <mxPoint x="-403.38" y="848" as="sourcePoint" />
            <mxPoint x="-403.38" y="878" as="targetPoint" />
          </mxGeometry>
        </mxCell>
        <mxCell id="KTOe_q9tkBcro1_vuGf5-124" value="" style="endArrow=classic;html=1;rounded=0;entryX=0.5;entryY=0;entryDx=0;entryDy=0;fontSize=14;" parent="1" edge="1">
          <mxGeometry width="50" height="50" relative="1" as="geometry">
            <mxPoint x="-404.38" y="914" as="sourcePoint" />
            <mxPoint x="-404.38" y="944" as="targetPoint" />
          </mxGeometry>
        </mxCell>
        <mxCell id="KTOe_q9tkBcro1_vuGf5-125" value="" style="endArrow=classic;html=1;rounded=0;entryX=0.5;entryY=0;entryDx=0;entryDy=0;fontSize=14;" parent="1" edge="1">
          <mxGeometry width="50" height="50" relative="1" as="geometry">
            <mxPoint x="-402" y="983" as="sourcePoint" />
            <mxPoint x="-402" y="1013" as="targetPoint" />
          </mxGeometry>
        </mxCell>
        <mxCell id="KTOe_q9tkBcro1_vuGf5-126" value="" style="strokeWidth=2;html=1;shape=mxgraph.flowchart.start_2;whiteSpace=wrap;fillColor=#000000;fontSize=14;" parent="1" vertex="1">
          <mxGeometry x="-422" y="1013" width="40" height="40" as="geometry" />
        </mxCell>
        <mxCell id="KTOe_q9tkBcro1_vuGf5-127" value="" style="endArrow=classic;html=1;rounded=0;exitX=0;exitY=0.5;exitDx=0;exitDy=0;fontSize=14;" parent="1" source="KTOe_q9tkBcro1_vuGf5-111" edge="1">
          <mxGeometry width="50" height="50" relative="1" as="geometry">
            <mxPoint x="-524" y="784" as="sourcePoint" />
            <mxPoint x="-670" y="809" as="targetPoint" />
            <Array as="points">
              <mxPoint x="-670" y="760" />
            </Array>
          </mxGeometry>
        </mxCell>
        <mxCell id="KTOe_q9tkBcro1_vuGf5-128" value="" style="endArrow=classic;html=1;rounded=0;exitX=1;exitY=0.5;exitDx=0;exitDy=0;entryX=0.5;entryY=0;entryDx=0;entryDy=0;fontSize=14;" parent="1" source="KTOe_q9tkBcro1_vuGf5-111" edge="1">
          <mxGeometry width="50" height="50" relative="1" as="geometry">
            <mxPoint x="-700" y="784" as="sourcePoint" />
            <mxPoint x="-396" y="809" as="targetPoint" />
            <Array as="points">
              <mxPoint x="-396" y="760" />
            </Array>
          </mxGeometry>
        </mxCell>
        <mxCell id="KTOe_q9tkBcro1_vuGf5-129" value="Send account creation email&amp;nbsp;" style="rounded=1;whiteSpace=wrap;html=1;arcSize=50;fontSize=14;" parent="1" vertex="1">
          <mxGeometry x="-161" y="713" width="200" height="40" as="geometry" />
        </mxCell>
        <mxCell id="KTOe_q9tkBcro1_vuGf5-130" value="Show success message" style="rounded=1;whiteSpace=wrap;html=1;arcSize=50;fontSize=14;" parent="1" vertex="1">
          <mxGeometry x="-161" y="780" width="200" height="40" as="geometry" />
        </mxCell>
        <mxCell id="KTOe_q9tkBcro1_vuGf5-131" value="" style="endArrow=classic;html=1;rounded=0;entryX=0.5;entryY=0;entryDx=0;entryDy=0;fontSize=14;" parent="1" edge="1">
          <mxGeometry width="50" height="50" relative="1" as="geometry">
            <mxPoint x="-74.38" y="752" as="sourcePoint" />
            <mxPoint x="-74.38" y="782" as="targetPoint" />
          </mxGeometry>
        </mxCell>
        <mxCell id="KTOe_q9tkBcro1_vuGf5-132" value="" style="endArrow=classic;html=1;rounded=0;entryX=0.5;entryY=0;entryDx=0;entryDy=0;fontSize=14;" parent="1" edge="1">
          <mxGeometry width="50" height="50" relative="1" as="geometry">
            <mxPoint x="-75.38" y="818" as="sourcePoint" />
            <mxPoint x="-75.38" y="848" as="targetPoint" />
          </mxGeometry>
        </mxCell>
        <mxCell id="KTOe_q9tkBcro1_vuGf5-133" value="is role Admin?" style="shape=hexagon;perimeter=hexagonPerimeter2;whiteSpace=wrap;html=1;fixedSize=1;fontSize=14;" parent="1" vertex="1">
          <mxGeometry x="-157" y="848" width="170" height="30" as="geometry" />
        </mxCell>
        <mxCell id="KTOe_q9tkBcro1_vuGf5-134" value="" style="endArrow=classic;html=1;rounded=0;entryX=0.5;entryY=0;entryDx=0;entryDy=0;fontSize=14;exitX=1;exitY=0.5;exitDx=0;exitDy=0;" parent="1" source="KTOe_q9tkBcro1_vuGf5-110" edge="1">
          <mxGeometry width="50" height="50" relative="1" as="geometry">
            <mxPoint x="-240" y="690" as="sourcePoint" />
            <mxPoint x="-69" y="715" as="targetPoint" />
            <Array as="points">
              <mxPoint x="-69" y="690" />
            </Array>
          </mxGeometry>
        </mxCell>
        <mxCell id="KTOe_q9tkBcro1_vuGf5-135" value="Send account creation email&amp;nbsp;" style="rounded=1;whiteSpace=wrap;html=1;arcSize=50;fontSize=14;" parent="1" vertex="1">
          <mxGeometry x="-270" y="960" width="200" height="40" as="geometry" />
        </mxCell>
        <mxCell id="KTOe_q9tkBcro1_vuGf5-136" value="Show success message" style="rounded=1;whiteSpace=wrap;html=1;arcSize=50;fontSize=14;" parent="1" vertex="1">
          <mxGeometry x="-270" y="1027" width="200" height="40" as="geometry" />
        </mxCell>
        <mxCell id="KTOe_q9tkBcro1_vuGf5-137" value="Render register page" style="rounded=1;whiteSpace=wrap;html=1;arcSize=50;fontSize=14;" parent="1" vertex="1">
          <mxGeometry x="-270" y="1094" width="200" height="40" as="geometry" />
        </mxCell>
        <mxCell id="KTOe_q9tkBcro1_vuGf5-138" value="" style="endArrow=classic;html=1;rounded=0;entryX=0.5;entryY=0;entryDx=0;entryDy=0;fontSize=14;" parent="1" edge="1">
          <mxGeometry width="50" height="50" relative="1" as="geometry">
            <mxPoint x="-183.38" y="999" as="sourcePoint" />
            <mxPoint x="-183.38" y="1029" as="targetPoint" />
          </mxGeometry>
        </mxCell>
        <mxCell id="KTOe_q9tkBcro1_vuGf5-139" value="" style="endArrow=classic;html=1;rounded=0;entryX=0.5;entryY=0;entryDx=0;entryDy=0;fontSize=14;" parent="1" edge="1">
          <mxGeometry width="50" height="50" relative="1" as="geometry">
            <mxPoint x="-184.38" y="1065" as="sourcePoint" />
            <mxPoint x="-184.38" y="1095" as="targetPoint" />
          </mxGeometry>
        </mxCell>
        <mxCell id="KTOe_q9tkBcro1_vuGf5-140" value="" style="endArrow=classic;html=1;rounded=0;entryX=0.5;entryY=0;entryDx=0;entryDy=0;fontSize=14;" parent="1" edge="1">
          <mxGeometry width="50" height="50" relative="1" as="geometry">
            <mxPoint x="-182" y="1134" as="sourcePoint" />
            <mxPoint x="-182" y="1164" as="targetPoint" />
          </mxGeometry>
        </mxCell>
        <mxCell id="KTOe_q9tkBcro1_vuGf5-141" value="" style="strokeWidth=2;html=1;shape=mxgraph.flowchart.start_2;whiteSpace=wrap;fillColor=#000000;fontSize=14;" parent="1" vertex="1">
          <mxGeometry x="-202" y="1164" width="40" height="40" as="geometry" />
        </mxCell>
        <mxCell id="KTOe_q9tkBcro1_vuGf5-142" value="Render register page" style="rounded=1;whiteSpace=wrap;html=1;arcSize=50;fontSize=14;" parent="1" vertex="1">
          <mxGeometry x="-282" y="903" width="200" height="40" as="geometry" />
        </mxCell>
        <mxCell id="KTOe_q9tkBcro1_vuGf5-143" value="" style="endArrow=classic;html=1;rounded=0;exitX=0;exitY=0.5;exitDx=0;exitDy=0;fontSize=14;" parent="1" source="KTOe_q9tkBcro1_vuGf5-133" edge="1">
          <mxGeometry width="50" height="50" relative="1" as="geometry">
            <mxPoint x="-54" y="878" as="sourcePoint" />
            <mxPoint x="-200" y="903" as="targetPoint" />
            <Array as="points">
              <mxPoint x="-200" y="860" />
            </Array>
          </mxGeometry>
        </mxCell>
        <mxCell id="KTOe_q9tkBcro1_vuGf5-144" value="" style="endArrow=classic;html=1;rounded=0;entryX=0.5;entryY=0;entryDx=0;entryDy=0;fontSize=14;" parent="1" edge="1">
          <mxGeometry width="50" height="50" relative="1" as="geometry">
            <mxPoint x="-640" y="216" as="sourcePoint" />
            <mxPoint x="-565" y="241" as="targetPoint" />
            <Array as="points">
              <mxPoint x="-565" y="216" />
            </Array>
          </mxGeometry>
        </mxCell>
      </root>
    </mxGraphModel>
  </diagram>
  <diagram id="Uo-kbsvQGIqD6GAoBHXQ" name="Flowchart-AddUser">
    <mxGraphModel dx="1210" dy="2279" grid="1" gridSize="10" guides="1" tooltips="1" connect="1" arrows="1" fold="1" page="1" pageScale="1" pageWidth="827" pageHeight="1169" math="0" shadow="0">
      <root>
        <mxCell id="0" />
        <mxCell id="1" parent="0" />
        <mxCell id="wNs__B0eNk2y5WzHHpU0-1" value="" style="strokeWidth=2;html=1;shape=mxgraph.flowchart.start_1;whiteSpace=wrap;fillColor=#000000;fontSize=14;" vertex="1" parent="1">
          <mxGeometry x="1611" y="-40" width="60" height="30" as="geometry" />
        </mxCell>
        <mxCell id="wNs__B0eNk2y5WzHHpU0-2" value="&lt;font&gt;Check if user is logged in&lt;/font&gt;" style="rounded=1;whiteSpace=wrap;html=1;arcSize=50;fontSize=14;" vertex="1" parent="1">
          <mxGeometry x="1537" y="28" width="220" height="40" as="geometry" />
        </mxCell>
        <mxCell id="wNs__B0eNk2y5WzHHpU0-3" value="Get form inputs (first name, last name, username, email, phone)" style="rounded=1;whiteSpace=wrap;html=1;arcSize=50;fontSize=14;" vertex="1" parent="1">
          <mxGeometry x="1500" y="318" width="410" height="40" as="geometry" />
        </mxCell>
        <mxCell id="wNs__B0eNk2y5WzHHpU0-4" value="" style="endArrow=classic;html=1;rounded=0;exitX=0.5;exitY=1;exitDx=0;exitDy=0;exitPerimeter=0;entryX=0.473;entryY=-0.05;entryDx=0;entryDy=0;entryPerimeter=0;fontSize=14;" edge="1" parent="1" source="wNs__B0eNk2y5WzHHpU0-1" target="wNs__B0eNk2y5WzHHpU0-2">
          <mxGeometry width="50" height="50" relative="1" as="geometry">
            <mxPoint x="1580" y="258" as="sourcePoint" />
            <mxPoint x="1640" y="18" as="targetPoint" />
          </mxGeometry>
        </mxCell>
        <mxCell id="wNs__B0eNk2y5WzHHpU0-5" value="Get user role" style="rounded=1;whiteSpace=wrap;html=1;arcSize=50;fontSize=14;" vertex="1" parent="1">
          <mxGeometry x="1560" y="98" width="160" height="40" as="geometry" />
        </mxCell>
        <mxCell id="wNs__B0eNk2y5WzHHpU0-6" value="" style="endArrow=classic;html=1;rounded=0;exitX=0.473;exitY=1.015;exitDx=0;exitDy=0;entryX=0.5;entryY=0;entryDx=0;entryDy=0;exitPerimeter=0;fontSize=14;" edge="1" parent="1" source="wNs__B0eNk2y5WzHHpU0-2" target="wNs__B0eNk2y5WzHHpU0-5">
          <mxGeometry width="50" height="50" relative="1" as="geometry">
            <mxPoint x="1650" y="-2" as="sourcePoint" />
            <mxPoint x="1651" y="36" as="targetPoint" />
          </mxGeometry>
        </mxCell>
        <mxCell id="wNs__B0eNk2y5WzHHpU0-7" value="is role Admin?" style="shape=hexagon;perimeter=hexagonPerimeter2;whiteSpace=wrap;html=1;fixedSize=1;fontSize=14;" vertex="1" parent="1">
          <mxGeometry x="1565" y="178" width="150" height="30" as="geometry" />
        </mxCell>
        <mxCell id="wNs__B0eNk2y5WzHHpU0-8" value="" style="endArrow=classic;html=1;rounded=0;exitX=0.5;exitY=1;exitDx=0;exitDy=0;entryX=0.5;entryY=0;entryDx=0;entryDy=0;fontSize=14;" edge="1" parent="1" source="wNs__B0eNk2y5WzHHpU0-5" target="wNs__B0eNk2y5WzHHpU0-7">
          <mxGeometry width="50" height="50" relative="1" as="geometry">
            <mxPoint x="1646.5" y="138" as="sourcePoint" />
            <mxPoint x="1646.5" y="164" as="targetPoint" />
          </mxGeometry>
        </mxCell>
        <mxCell id="wNs__B0eNk2y5WzHHpU0-9" value="" style="endArrow=classic;html=1;rounded=0;exitX=0;exitY=0.5;exitDx=0;exitDy=0;fontSize=14;" edge="1" parent="1" source="wNs__B0eNk2y5WzHHpU0-7">
          <mxGeometry width="50" height="50" relative="1" as="geometry">
            <mxPoint x="1620" y="178" as="sourcePoint" />
            <mxPoint x="1430" y="208" as="targetPoint" />
            <Array as="points">
              <mxPoint x="1430" y="193" />
            </Array>
          </mxGeometry>
        </mxCell>
        <mxCell id="wNs__B0eNk2y5WzHHpU0-10" value="" style="endArrow=classic;html=1;rounded=0;exitX=1;exitY=0.5;exitDx=0;exitDy=0;entryX=0.5;entryY=0;entryDx=0;entryDy=0;fontSize=14;" edge="1" parent="1" source="wNs__B0eNk2y5WzHHpU0-7" target="wNs__B0eNk2y5WzHHpU0-16">
          <mxGeometry width="50" height="50" relative="1" as="geometry">
            <mxPoint x="1575" y="203" as="sourcePoint" />
            <mxPoint x="2020" y="193" as="targetPoint" />
            <Array as="points">
              <mxPoint x="2019" y="188" />
            </Array>
          </mxGeometry>
        </mxCell>
        <mxCell id="wNs__B0eNk2y5WzHHpU0-11" value="No" style="text;html=1;align=center;verticalAlign=middle;resizable=0;points=[];autosize=1;strokeColor=none;fillColor=none;fontSize=14;" vertex="1" parent="1">
          <mxGeometry x="1540" y="169" width="40" height="30" as="geometry" />
        </mxCell>
        <mxCell id="wNs__B0eNk2y5WzHHpU0-12" value="Yes" style="text;html=1;align=center;verticalAlign=middle;resizable=0;points=[];autosize=1;strokeColor=none;fillColor=none;fontSize=14;" vertex="1" parent="1">
          <mxGeometry x="1695" y="169" width="50" height="30" as="geometry" />
        </mxCell>
        <mxCell id="wNs__B0eNk2y5WzHHpU0-13" value="Redirect to insufficient permission page" style="rounded=1;whiteSpace=wrap;html=1;arcSize=50;fontSize=14;" vertex="1" parent="1">
          <mxGeometry x="1300" y="208" width="270" height="40" as="geometry" />
        </mxCell>
        <mxCell id="wNs__B0eNk2y5WzHHpU0-14" value="" style="endArrow=classic;html=1;rounded=0;exitX=0.473;exitY=1.015;exitDx=0;exitDy=0;entryX=0.5;entryY=0;entryDx=0;entryDy=0;exitPerimeter=0;fontSize=14;" edge="1" parent="1">
          <mxGeometry width="50" height="50" relative="1" as="geometry">
            <mxPoint x="1431" y="248" as="sourcePoint" />
            <mxPoint x="1430" y="277" as="targetPoint" />
          </mxGeometry>
        </mxCell>
        <mxCell id="wNs__B0eNk2y5WzHHpU0-15" value="" style="strokeWidth=2;html=1;shape=mxgraph.flowchart.start_2;whiteSpace=wrap;fillColor=#000000;fontSize=14;" vertex="1" parent="1">
          <mxGeometry x="1410" y="278" width="40" height="40" as="geometry" />
        </mxCell>
        <mxCell id="wNs__B0eNk2y5WzHHpU0-16" value="Is user staff?" style="shape=hexagon;perimeter=hexagonPerimeter2;whiteSpace=wrap;html=1;fixedSize=1;fontSize=14;" vertex="1" parent="1">
          <mxGeometry x="1944" y="218" width="150" height="30" as="geometry" />
        </mxCell>
        <mxCell id="wNs__B0eNk2y5WzHHpU0-17" value="" style="endArrow=classic;html=1;rounded=0;exitX=1;exitY=0.5;exitDx=0;exitDy=0;entryX=0.5;entryY=0;entryDx=0;entryDy=0;fontSize=14;" edge="1" parent="1" source="wNs__B0eNk2y5WzHHpU0-16">
          <mxGeometry width="50" height="50" relative="1" as="geometry">
            <mxPoint x="1930" y="233" as="sourcePoint" />
            <mxPoint x="2234" y="258" as="targetPoint" />
            <Array as="points">
              <mxPoint x="2234" y="233" />
            </Array>
          </mxGeometry>
        </mxCell>
        <mxCell id="wNs__B0eNk2y5WzHHpU0-18" value="Show permission error message" style="rounded=1;whiteSpace=wrap;html=1;arcSize=50;fontSize=14;" vertex="1" parent="1">
          <mxGeometry x="2120" y="258" width="220" height="40" as="geometry" />
        </mxCell>
        <mxCell id="wNs__B0eNk2y5WzHHpU0-19" value="" style="endArrow=classic;html=1;rounded=0;exitX=0.5;exitY=1;exitDx=0;exitDy=0;entryX=0.5;entryY=0;entryDx=0;entryDy=0;fontSize=14;" edge="1" parent="1">
          <mxGeometry width="50" height="50" relative="1" as="geometry">
            <mxPoint x="2236" y="298" as="sourcePoint" />
            <mxPoint x="2236" y="338" as="targetPoint" />
          </mxGeometry>
        </mxCell>
        <mxCell id="wNs__B0eNk2y5WzHHpU0-20" value="Render register page" style="rounded=1;whiteSpace=wrap;html=1;arcSize=50;fontSize=14;" vertex="1" parent="1">
          <mxGeometry x="2159.5" y="338" width="151" height="40" as="geometry" />
        </mxCell>
        <mxCell id="wNs__B0eNk2y5WzHHpU0-21" value="Is POST request?" style="shape=hexagon;perimeter=hexagonPerimeter2;whiteSpace=wrap;html=1;fixedSize=1;fontSize=14;" vertex="1" parent="1">
          <mxGeometry x="1785" y="268" width="150" height="30" as="geometry" />
        </mxCell>
        <mxCell id="wNs__B0eNk2y5WzHHpU0-22" value="" style="endArrow=classic;html=1;rounded=0;entryX=0.5;entryY=0;entryDx=0;entryDy=0;fontSize=14;" edge="1" parent="1" source="wNs__B0eNk2y5WzHHpU0-16" target="wNs__B0eNk2y5WzHHpU0-21">
          <mxGeometry width="50" height="50" relative="1" as="geometry">
            <mxPoint x="1995" y="243" as="sourcePoint" />
            <mxPoint x="1860" y="258" as="targetPoint" />
            <Array as="points">
              <mxPoint x="1860" y="233" />
            </Array>
          </mxGeometry>
        </mxCell>
        <mxCell id="wNs__B0eNk2y5WzHHpU0-23" value="Render register page" style="rounded=1;whiteSpace=wrap;html=1;arcSize=50;fontSize=14;" vertex="1" parent="1">
          <mxGeometry x="1944" y="318" width="170" height="40" as="geometry" />
        </mxCell>
        <mxCell id="wNs__B0eNk2y5WzHHpU0-24" value="" style="endArrow=classic;html=1;rounded=0;exitX=1;exitY=0.5;exitDx=0;exitDy=0;entryX=0.5;entryY=0;entryDx=0;entryDy=0;fontSize=14;" edge="1" parent="1" source="wNs__B0eNk2y5WzHHpU0-21">
          <mxGeometry width="50" height="50" relative="1" as="geometry">
            <mxPoint x="1890" y="293" as="sourcePoint" />
            <mxPoint x="2030" y="318" as="targetPoint" />
            <Array as="points">
              <mxPoint x="2030" y="278" />
            </Array>
          </mxGeometry>
        </mxCell>
        <mxCell id="wNs__B0eNk2y5WzHHpU0-25" value="Generate temporary password" style="rounded=1;whiteSpace=wrap;html=1;arcSize=50;fontSize=14;" vertex="1" parent="1">
          <mxGeometry x="1582.5" y="398" width="275" height="40" as="geometry" />
        </mxCell>
        <mxCell id="wNs__B0eNk2y5WzHHpU0-26" value="set role = OPERATOR" style="rounded=1;whiteSpace=wrap;html=1;arcSize=50;fontSize=14;" vertex="1" parent="1">
          <mxGeometry x="1640" y="474.5" width="170" height="40" as="geometry" />
        </mxCell>
        <mxCell id="wNs__B0eNk2y5WzHHpU0-27" value="" style="endArrow=classic;html=1;rounded=0;entryX=0.5;entryY=0;entryDx=0;entryDy=0;fontSize=14;" edge="1" parent="1" target="wNs__B0eNk2y5WzHHpU0-25">
          <mxGeometry width="50" height="50" relative="1" as="geometry">
            <mxPoint x="1720" y="358" as="sourcePoint" />
            <mxPoint x="1719.5" y="387" as="targetPoint" />
          </mxGeometry>
        </mxCell>
        <mxCell id="wNs__B0eNk2y5WzHHpU0-28" value="" style="endArrow=classic;html=1;rounded=0;entryX=0.5;entryY=0;entryDx=0;entryDy=0;fontSize=14;" edge="1" parent="1">
          <mxGeometry width="50" height="50" relative="1" as="geometry">
            <mxPoint x="1720" y="436.5" as="sourcePoint" />
            <mxPoint x="1720" y="476.5" as="targetPoint" />
          </mxGeometry>
        </mxCell>
        <mxCell id="wNs__B0eNk2y5WzHHpU0-29" value="" style="endArrow=classic;html=1;rounded=0;entryX=0.5;entryY=0;entryDx=0;entryDy=0;exitX=0;exitY=0.5;exitDx=0;exitDy=0;fontSize=14;" edge="1" parent="1" source="wNs__B0eNk2y5WzHHpU0-21">
          <mxGeometry width="50" height="50" relative="1" as="geometry">
            <mxPoint x="1804" y="280.5" as="sourcePoint" />
            <mxPoint x="1720" y="315.5" as="targetPoint" />
            <Array as="points">
              <mxPoint x="1720" y="280.5" />
            </Array>
          </mxGeometry>
        </mxCell>
        <mxCell id="wNs__B0eNk2y5WzHHpU0-30" value="Check for duplicate&amp;nbsp; username/email/phone" style="rounded=1;whiteSpace=wrap;html=1;arcSize=50;fontSize=14;" vertex="1" parent="1">
          <mxGeometry x="1560" y="548" width="320" height="40" as="geometry" />
        </mxCell>
        <mxCell id="wNs__B0eNk2y5WzHHpU0-31" value="" style="endArrow=classic;html=1;rounded=0;entryX=0.5;entryY=0;entryDx=0;entryDy=0;fontSize=14;" edge="1" parent="1">
          <mxGeometry width="50" height="50" relative="1" as="geometry">
            <mxPoint x="1720" y="518" as="sourcePoint" />
            <mxPoint x="1720" y="548" as="targetPoint" />
          </mxGeometry>
        </mxCell>
        <mxCell id="wNs__B0eNk2y5WzHHpU0-32" value="Duplicates found ?" style="shape=hexagon;perimeter=hexagonPerimeter2;whiteSpace=wrap;html=1;fixedSize=1;fontSize=14;" vertex="1" parent="1">
          <mxGeometry x="1650" y="618" width="150" height="30" as="geometry" />
        </mxCell>
        <mxCell id="wNs__B0eNk2y5WzHHpU0-33" value="" style="endArrow=classic;html=1;rounded=0;entryX=0.5;entryY=0;entryDx=0;entryDy=0;fontSize=14;" edge="1" parent="1">
          <mxGeometry width="50" height="50" relative="1" as="geometry">
            <mxPoint x="1719.62" y="588" as="sourcePoint" />
            <mxPoint x="1719.62" y="618" as="targetPoint" />
          </mxGeometry>
        </mxCell>
        <mxCell id="wNs__B0eNk2y5WzHHpU0-34" value="" style="endArrow=classic;html=1;rounded=0;entryX=0.5;entryY=0;entryDx=0;entryDy=0;fontSize=14;" edge="1" parent="1">
          <mxGeometry width="50" height="50" relative="1" as="geometry">
            <mxPoint x="1650" y="633" as="sourcePoint" />
            <mxPoint x="1566" y="668" as="targetPoint" />
            <Array as="points">
              <mxPoint x="1566" y="633" />
            </Array>
          </mxGeometry>
        </mxCell>
        <mxCell id="wNs__B0eNk2y5WzHHpU0-35" value="" style="endArrow=classic;html=1;rounded=0;entryX=0.5;entryY=0;entryDx=0;entryDy=0;exitX=1;exitY=0.5;exitDx=0;exitDy=0;fontSize=14;" edge="1" parent="1" source="wNs__B0eNk2y5WzHHpU0-32">
          <mxGeometry width="50" height="50" relative="1" as="geometry">
            <mxPoint x="1964" y="628" as="sourcePoint" />
            <mxPoint x="1880" y="663" as="targetPoint" />
            <Array as="points">
              <mxPoint x="1880" y="633" />
            </Array>
          </mxGeometry>
        </mxCell>
        <mxCell id="wNs__B0eNk2y5WzHHpU0-36" value="Show error message about duplicates" style="rounded=1;whiteSpace=wrap;html=1;arcSize=50;fontSize=14;" vertex="1" parent="1">
          <mxGeometry x="1410" y="668" width="320" height="40" as="geometry" />
        </mxCell>
        <mxCell id="wNs__B0eNk2y5WzHHpU0-37" value="Create user account" style="rounded=1;whiteSpace=wrap;html=1;arcSize=50;fontSize=14;" vertex="1" parent="1">
          <mxGeometry x="1800" y="666" width="170" height="40" as="geometry" />
        </mxCell>
        <mxCell id="wNs__B0eNk2y5WzHHpU0-38" value="Set phone number and role" style="rounded=1;whiteSpace=wrap;html=1;arcSize=50;fontSize=14;" vertex="1" parent="1">
          <mxGeometry x="1785" y="738" width="200" height="40" as="geometry" />
        </mxCell>
        <mxCell id="wNs__B0eNk2y5WzHHpU0-39" value="Save user" style="rounded=1;whiteSpace=wrap;html=1;arcSize=50;fontSize=14;" vertex="1" parent="1">
          <mxGeometry x="1803" y="808" width="160" height="40" as="geometry" />
        </mxCell>
        <mxCell id="wNs__B0eNk2y5WzHHpU0-40" value="Log user creation (medium level)" style="rounded=1;whiteSpace=wrap;html=1;arcSize=50;fontSize=14;" vertex="1" parent="1">
          <mxGeometry x="1728" y="878" width="282" height="40" as="geometry" />
        </mxCell>
        <mxCell id="wNs__B0eNk2y5WzHHpU0-41" value="Send account creation email&amp;nbsp;" style="rounded=1;whiteSpace=wrap;html=1;arcSize=50;fontSize=14;" vertex="1" parent="1">
          <mxGeometry x="1795" y="946" width="200" height="40" as="geometry" />
        </mxCell>
        <mxCell id="wNs__B0eNk2y5WzHHpU0-42" value="Show success message" style="rounded=1;whiteSpace=wrap;html=1;arcSize=50;fontSize=14;" vertex="1" parent="1">
          <mxGeometry x="1795" y="1013" width="200" height="40" as="geometry" />
        </mxCell>
        <mxCell id="wNs__B0eNk2y5WzHHpU0-43" value="Render register page" style="rounded=1;whiteSpace=wrap;html=1;arcSize=50;fontSize=14;" vertex="1" parent="1">
          <mxGeometry x="1795" y="1080" width="200" height="40" as="geometry" />
        </mxCell>
        <mxCell id="wNs__B0eNk2y5WzHHpU0-44" value="" style="endArrow=classic;html=1;rounded=0;entryX=0.5;entryY=0;entryDx=0;entryDy=0;fontSize=14;" edge="1" parent="1">
          <mxGeometry width="50" height="50" relative="1" as="geometry">
            <mxPoint x="1880" y="708" as="sourcePoint" />
            <mxPoint x="1880" y="738" as="targetPoint" />
          </mxGeometry>
        </mxCell>
        <mxCell id="wNs__B0eNk2y5WzHHpU0-45" value="" style="endArrow=classic;html=1;rounded=0;entryX=0.5;entryY=0;entryDx=0;entryDy=0;fontSize=14;" edge="1" parent="1">
          <mxGeometry width="50" height="50" relative="1" as="geometry">
            <mxPoint x="1882.62" y="778" as="sourcePoint" />
            <mxPoint x="1882.62" y="808" as="targetPoint" />
          </mxGeometry>
        </mxCell>
        <mxCell id="wNs__B0eNk2y5WzHHpU0-46" value="" style="endArrow=classic;html=1;rounded=0;entryX=0.5;entryY=0;entryDx=0;entryDy=0;fontSize=14;" edge="1" parent="1">
          <mxGeometry width="50" height="50" relative="1" as="geometry">
            <mxPoint x="1884.62" y="848" as="sourcePoint" />
            <mxPoint x="1884.62" y="878" as="targetPoint" />
          </mxGeometry>
        </mxCell>
        <mxCell id="wNs__B0eNk2y5WzHHpU0-47" value="" style="endArrow=classic;html=1;rounded=0;entryX=0.5;entryY=0;entryDx=0;entryDy=0;fontSize=14;" edge="1" parent="1">
          <mxGeometry width="50" height="50" relative="1" as="geometry">
            <mxPoint x="1880.62" y="917" as="sourcePoint" />
            <mxPoint x="1880.62" y="947" as="targetPoint" />
          </mxGeometry>
        </mxCell>
        <mxCell id="wNs__B0eNk2y5WzHHpU0-48" value="" style="endArrow=classic;html=1;rounded=0;entryX=0.5;entryY=0;entryDx=0;entryDy=0;fontSize=14;" edge="1" parent="1">
          <mxGeometry width="50" height="50" relative="1" as="geometry">
            <mxPoint x="1881.62" y="985" as="sourcePoint" />
            <mxPoint x="1881.62" y="1015" as="targetPoint" />
          </mxGeometry>
        </mxCell>
        <mxCell id="wNs__B0eNk2y5WzHHpU0-49" value="" style="endArrow=classic;html=1;rounded=0;entryX=0.5;entryY=0;entryDx=0;entryDy=0;fontSize=14;" edge="1" parent="1">
          <mxGeometry width="50" height="50" relative="1" as="geometry">
            <mxPoint x="1880.62" y="1051" as="sourcePoint" />
            <mxPoint x="1880.62" y="1081" as="targetPoint" />
          </mxGeometry>
        </mxCell>
        <mxCell id="wNs__B0eNk2y5WzHHpU0-50" value="yes" style="text;html=1;align=center;verticalAlign=middle;resizable=0;points=[];autosize=1;strokeColor=none;fillColor=none;" vertex="1" parent="1">
          <mxGeometry x="1620" y="608" width="40" height="30" as="geometry" />
        </mxCell>
        <mxCell id="wNs__B0eNk2y5WzHHpU0-51" value="NO" style="text;html=1;align=center;verticalAlign=middle;resizable=0;points=[];autosize=1;strokeColor=none;fillColor=none;" vertex="1" parent="1">
          <mxGeometry x="1790" y="609" width="40" height="30" as="geometry" />
        </mxCell>
        <mxCell id="wNs__B0eNk2y5WzHHpU0-52" value="Render register page" style="rounded=1;whiteSpace=wrap;html=1;arcSize=50;fontSize=14;" vertex="1" parent="1">
          <mxGeometry x="1453" y="738" width="200" height="40" as="geometry" />
        </mxCell>
        <mxCell id="wNs__B0eNk2y5WzHHpU0-53" value="" style="endArrow=classic;html=1;rounded=0;entryX=0.5;entryY=0;entryDx=0;entryDy=0;fontSize=14;" edge="1" parent="1">
          <mxGeometry width="50" height="50" relative="1" as="geometry">
            <mxPoint x="1559.63" y="708" as="sourcePoint" />
            <mxPoint x="1559.63" y="738" as="targetPoint" />
          </mxGeometry>
        </mxCell>
        <mxCell id="wNs__B0eNk2y5WzHHpU0-54" value="" style="endArrow=classic;html=1;rounded=0;entryX=0.5;entryY=0;entryDx=0;entryDy=0;fontSize=14;" edge="1" parent="1">
          <mxGeometry width="50" height="50" relative="1" as="geometry">
            <mxPoint x="1560" y="778" as="sourcePoint" />
            <mxPoint x="1560" y="808" as="targetPoint" />
          </mxGeometry>
        </mxCell>
        <mxCell id="wNs__B0eNk2y5WzHHpU0-55" value="" style="strokeWidth=2;html=1;shape=mxgraph.flowchart.start_2;whiteSpace=wrap;fillColor=#000000;fontSize=14;" vertex="1" parent="1">
          <mxGeometry x="1540" y="808" width="40" height="40" as="geometry" />
        </mxCell>
        <mxCell id="wNs__B0eNk2y5WzHHpU0-56" value="Yes" style="text;html=1;align=center;verticalAlign=middle;resizable=0;points=[];autosize=1;strokeColor=none;fillColor=none;" vertex="1" parent="1">
          <mxGeometry x="1755" y="258" width="40" height="30" as="geometry" />
        </mxCell>
        <mxCell id="wNs__B0eNk2y5WzHHpU0-57" value="No" style="text;html=1;align=center;verticalAlign=middle;resizable=0;points=[];autosize=1;strokeColor=none;fillColor=none;" vertex="1" parent="1">
          <mxGeometry x="1923" y="258" width="40" height="30" as="geometry" />
        </mxCell>
        <mxCell id="wNs__B0eNk2y5WzHHpU0-58" value="" style="endArrow=classic;html=1;rounded=0;entryX=0.5;entryY=0;entryDx=0;entryDy=0;fontSize=14;" edge="1" parent="1">
          <mxGeometry width="50" height="50" relative="1" as="geometry">
            <mxPoint x="1883" y="1120" as="sourcePoint" />
            <mxPoint x="1883" y="1150" as="targetPoint" />
          </mxGeometry>
        </mxCell>
        <mxCell id="wNs__B0eNk2y5WzHHpU0-59" value="" style="strokeWidth=2;html=1;shape=mxgraph.flowchart.start_2;whiteSpace=wrap;fillColor=#000000;fontSize=14;" vertex="1" parent="1">
          <mxGeometry x="1863" y="1150" width="40" height="40" as="geometry" />
        </mxCell>
        <mxCell id="wNs__B0eNk2y5WzHHpU0-60" value="NO" style="text;html=1;align=center;verticalAlign=middle;resizable=0;points=[];autosize=1;strokeColor=none;fillColor=none;" vertex="1" parent="1">
          <mxGeometry x="2087" y="210" width="40" height="30" as="geometry" />
        </mxCell>
        <mxCell id="wNs__B0eNk2y5WzHHpU0-61" value="Yes" style="text;html=1;align=center;verticalAlign=middle;resizable=0;points=[];autosize=1;strokeColor=none;fillColor=none;" vertex="1" parent="1">
          <mxGeometry x="1910" y="208" width="40" height="30" as="geometry" />
        </mxCell>
        <mxCell id="wNs__B0eNk2y5WzHHpU0-62" value="" style="endArrow=classic;html=1;rounded=0;entryX=0.5;entryY=0;entryDx=0;entryDy=0;fontSize=14;" edge="1" parent="1">
          <mxGeometry width="50" height="50" relative="1" as="geometry">
            <mxPoint x="2235" y="378" as="sourcePoint" />
            <mxPoint x="2235" y="408" as="targetPoint" />
          </mxGeometry>
        </mxCell>
        <mxCell id="wNs__B0eNk2y5WzHHpU0-63" value="" style="strokeWidth=2;html=1;shape=mxgraph.flowchart.start_2;whiteSpace=wrap;fillColor=#000000;fontSize=14;" vertex="1" parent="1">
          <mxGeometry x="2215" y="408" width="40" height="40" as="geometry" />
        </mxCell>
      </root>
    </mxGraphModel>
  </diagram>
</mxfile>
